STARTFONT 2.1
COMMENT
COMMENT Converted from OpenType font "LiberationSans-Regular.ttf" by "otf2bdf 3.0".
COMMENT
FONT -FreeType-Liberation Sans-Medium-R-Normal--14-100-100-100-P-70-ISO10646-1
SIZE 10 100 100
FONTBOUNDINGBOX 25 18 -7 -4
STARTPROPERTIES 19
FOUNDRY "FreeType"
FAMILY_NAME "Liberation Sans"
WEIGHT_NAME "Medium"
SLANT "R"
SETWIDTH_NAME "Normal"
ADD_STYLE_NAME ""
PIXEL_SIZE 14
POINT_SIZE 100
RESOLUTION_X 100
RESOLUTION_Y 100
SPACING "P"
AVERAGE_WIDTH 70
CHARSET_REGISTRY "ISO10646"
CHARSET_ENCODING "1"
FONT_ASCENT 12
FONT_DESCENT 2
COPYRIGHT "Digitized data copyright (c) 2010 Google Corporation.   Copyright (c) 2012 Red Hat, Inc."
_OTF_FONTFILE "LiberationSans-Regular.ttf"
_OTF_PSNAME "LiberationSans"
ENDPROPERTIES
CHARS 2294
STARTCHAR 0020
ENCODING 32
SWIDTH 288 0
DWIDTH 4 0
BBX 0 0 0 0
BITMAP
ENDCHAR
STARTCHAR 0021
ENCODING 33
SWIDTH 288 0
DWIDTH 4 0
BBX 2 10 1 0
BITMAP
C0
C0
C0
C0
C0
80
80
00
00
C0
ENDCHAR
STARTCHAR 0022
ENCODING 34
SWIDTH 360 0
DWIDTH 5 0
BBX 3 3 1 7
BITMAP
A0
A0
A0
ENDCHAR
STARTCHAR 0023
ENCODING 35
SWIDTH 576 0
DWIDTH 8 0
BBX 8 10 0 0
BITMAP
12
22
22
FF
24
24
FE
48
48
48
ENDCHAR
STARTCHAR 0024
ENCODING 36
SWIDTH 576 0
DWIDTH 8 0
BBX 8 12 0 -1
BITMAP
10
3C
52
50
50
38
0E
12
13
D2
7C
10
ENDCHAR
STARTCHAR 0025
ENCODING 37
SWIDTH 864 0
DWIDTH 12 0
BBX 11 10 1 0
BITMAP
E080
9100
9200
9200
95C0
E920
0920
1120
3120
21C0
ENDCHAR
STARTCHAR 0026
ENCODING 38
SWIDTH 648 0
DWIDTH 9 0
BBX 8 10 1 0
BITMAP
38
44
44
28
70
F2
92
8C
8C
7B
ENDCHAR
STARTCHAR 0027
ENCODING 39
SWIDTH 216 0
DWIDTH 3 0
BBX 1 3 1 7
BITMAP
80
80
80
ENDCHAR
STARTCHAR 0028
ENCODING 40
SWIDTH 360 0
DWIDTH 5 0
BBX 3 13 1 -3
BITMAP
20
40
40
C0
80
80
80
80
80
C0
40
40
20
ENDCHAR
STARTCHAR 0029
ENCODING 41
SWIDTH 360 0
DWIDTH 5 0
BBX 3 13 1 -3
BITMAP
80
80
40
40
60
20
20
20
60
40
40
80
80
ENDCHAR
STARTCHAR 002A
ENCODING 42
SWIDTH 360 0
DWIDTH 5 0
BBX 5 5 0 5
BITMAP
20
A8
70
30
58
ENDCHAR
STARTCHAR 002B
ENCODING 43
SWIDTH 576 0
DWIDTH 8 0
BBX 6 7 1 1
BITMAP
10
10
10
FC
10
10
10
ENDCHAR
STARTCHAR 002C
ENCODING 44
SWIDTH 288 0
DWIDTH 4 0
BBX 2 3 1 -2
BITMAP
C0
40
80
ENDCHAR
STARTCHAR 002D
ENCODING 45
SWIDTH 360 0
DWIDTH 5 0
BBX 3 1 1 3
BITMAP
E0
ENDCHAR
STARTCHAR 002E
ENCODING 46
SWIDTH 288 0
DWIDTH 4 0
BBX 2 1 1 0
BITMAP
C0
ENDCHAR
STARTCHAR 002F
ENCODING 47
SWIDTH 288 0
DWIDTH 4 0
BBX 4 10 0 0
BITMAP
10
20
20
20
20
40
40
40
C0
80
ENDCHAR
STARTCHAR 0030
ENCODING 48
SWIDTH 576 0
DWIDTH 8 0
BBX 6 10 1 0
BITMAP
78
CC
84
84
84
84
84
84
CC
78
ENDCHAR
STARTCHAR 0031
ENCODING 49
SWIDTH 576 0
DWIDTH 8 0
BBX 6 10 1 0
BITMAP
30
50
90
10
10
10
10
10
10
FC
ENDCHAR
STARTCHAR 0032
ENCODING 50
SWIDTH 576 0
DWIDTH 8 0
BBX 6 10 1 0
BITMAP
78
CC
84
04
08
10
20
40
80
FC
ENDCHAR
STARTCHAR 0033
ENCODING 51
SWIDTH 576 0
DWIDTH 8 0
BBX 6 10 1 0
BITMAP
78
8C
84
0C
30
0C
04
84
8C
78
ENDCHAR
STARTCHAR 0034
ENCODING 52
SWIDTH 576 0
DWIDTH 8 0
BBX 7 10 0 0
BITMAP
0C
0C
14
14
24
44
44
FE
04
04
ENDCHAR
STARTCHAR 0035
ENCODING 53
SWIDTH 576 0
DWIDTH 8 0
BBX 6 10 1 0
BITMAP
FC
80
80
80
F8
8C
04
04
8C
78
ENDCHAR
STARTCHAR 0036
ENCODING 54
SWIDTH 576 0
DWIDTH 8 0
BBX 6 10 1 0
BITMAP
78
4C
80
80
B8
CC
84
84
CC
78
ENDCHAR
STARTCHAR 0037
ENCODING 55
SWIDTH 576 0
DWIDTH 8 0
BBX 6 10 1 0
BITMAP
FC
04
08
18
10
30
20
20
20
20
ENDCHAR
STARTCHAR 0038
ENCODING 56
SWIDTH 576 0
DWIDTH 8 0
BBX 6 10 1 0
BITMAP
78
8C
84
8C
70
8C
84
84
8C
78
ENDCHAR
STARTCHAR 0039
ENCODING 57
SWIDTH 576 0
DWIDTH 8 0
BBX 6 10 1 0
BITMAP
78
88
84
84
8C
74
04
0C
88
70
ENDCHAR
STARTCHAR 003A
ENCODING 58
SWIDTH 288 0
DWIDTH 4 0
BBX 2 7 1 0
BITMAP
C0
00
00
00
00
00
C0
ENDCHAR
STARTCHAR 003B
ENCODING 59
SWIDTH 288 0
DWIDTH 4 0
BBX 2 9 1 -2
BITMAP
C0
00
00
00
00
00
C0
40
80
ENDCHAR
STARTCHAR 003C
ENCODING 60
SWIDTH 576 0
DWIDTH 8 0
BBX 7 7 1 1
BITMAP
06
18
E0
80
E0
18
06
ENDCHAR
STARTCHAR 003D
ENCODING 61
SWIDTH 576 0
DWIDTH 8 0
BBX 6 4 1 2
BITMAP
FC
00
00
FC
ENDCHAR
STARTCHAR 003E
ENCODING 62
SWIDTH 576 0
DWIDTH 8 0
BBX 7 7 1 1
BITMAP
80
60
1C
02
1C
60
80
ENDCHAR
STARTCHAR 003F
ENCODING 63
SWIDTH 576 0
DWIDTH 8 0
BBX 6 10 1 0
BITMAP
78
CC
84
04
08
10
20
00
00
20
ENDCHAR
STARTCHAR 0040
ENCODING 64
SWIDTH 1008 0
DWIDTH 14 0
BBX 12 12 1 -2
BITMAP
0F80
3060
6020
4F90
9890
9090
9090
91A0
9EC0
4000
6040
1F80
ENDCHAR
STARTCHAR 0041
ENCODING 65
SWIDTH 648 0
DWIDTH 9 0
BBX 9 10 0 0
BITMAP
0C00
1C00
1400
1200
2200
2300
7F00
4100
4180
C080
ENDCHAR
STARTCHAR 0042
ENCODING 66
SWIDTH 648 0
DWIDTH 9 0
BBX 8 10 1 0
BITMAP
FC
86
82
86
FC
82
83
83
82
FC
ENDCHAR
STARTCHAR 0043
ENCODING 67
SWIDTH 720 0
DWIDTH 10 0
BBX 9 10 1 0
BITMAP
3E00
6300
C100
8000
8000
8000
8000
C180
6300
3E00
ENDCHAR
STARTCHAR 0044
ENCODING 68
SWIDTH 720 0
DWIDTH 10 0
BBX 8 10 1 0
BITMAP
FC
86
81
81
81
81
81
83
86
FC
ENDCHAR
STARTCHAR 0045
ENCODING 69
SWIDTH 648 0
DWIDTH 9 0
BBX 8 10 1 0
BITMAP
FE
80
80
80
FE
80
80
80
80
FF
ENDCHAR
STARTCHAR 0046
ENCODING 70
SWIDTH 648 0
DWIDTH 9 0
BBX 7 10 1 0
BITMAP
FE
80
80
80
80
FE
80
80
80
80
ENDCHAR
STARTCHAR 0047
ENCODING 71
SWIDTH 792 0
DWIDTH 11 0
BBX 9 10 1 0
BITMAP
3E00
6300
C180
8000
8000
8780
8080
C080
6180
3E00
ENDCHAR
STARTCHAR 0048
ENCODING 72
SWIDTH 720 0
DWIDTH 10 0
BBX 8 10 1 0
BITMAP
81
81
81
81
FF
81
81
81
81
81
ENDCHAR
STARTCHAR 0049
ENCODING 73
SWIDTH 288 0
DWIDTH 4 0
BBX 2 10 1 0
BITMAP
C0
C0
C0
C0
C0
C0
C0
C0
C0
C0
ENDCHAR
STARTCHAR 004A
ENCODING 74
SWIDTH 504 0
DWIDTH 7 0
BBX 6 10 0 0
BITMAP
1C
04
04
04
04
04
04
C4
4C
78
ENDCHAR
STARTCHAR 004B
ENCODING 75
SWIDTH 648 0
DWIDTH 9 0
BBX 8 10 1 0
BITMAP
82
84
88
90
B0
D0
88
84
86
83
ENDCHAR
STARTCHAR 004C
ENCODING 76
SWIDTH 576 0
DWIDTH 8 0
BBX 6 10 1 0
BITMAP
80
80
80
80
80
80
80
80
80
FC
ENDCHAR
STARTCHAR 004D
ENCODING 77
SWIDTH 864 0
DWIDTH 12 0
BBX 10 10 1 0
BITMAP
C0C0
C1C0
A1C0
A1C0
B2C0
92C0
92C0
9CC0
8CC0
88C0
ENDCHAR
STARTCHAR 004E
ENCODING 78
SWIDTH 720 0
DWIDTH 10 0
BBX 8 10 1 0
BITMAP
C1
E1
A1
B1
91
89
8D
85
87
83
ENDCHAR
STARTCHAR 004F
ENCODING 79
SWIDTH 792 0
DWIDTH 11 0
BBX 9 10 1 0
BITMAP
3E00
6300
C180
8080
8080
8080
8080
C180
6300
3E00
ENDCHAR
STARTCHAR 0050
ENCODING 80
SWIDTH 648 0
DWIDTH 9 0
BBX 8 10 1 0
BITMAP
FC
82
83
83
82
FC
80
80
80
80
ENDCHAR
STARTCHAR 0051
ENCODING 81
SWIDTH 792 0
DWIDTH 11 0
BBX 9 13 1 -3
BITMAP
3E00
6300
C180
8080
8080
8080
8080
C180
6300
3E00
0C00
0400
0700
ENDCHAR
STARTCHAR 0052
ENCODING 82
SWIDTH 720 0
DWIDTH 10 0
BBX 8 10 1 0
BITMAP
FE
83
81
81
83
FE
84
86
82
81
ENDCHAR
STARTCHAR 0053
ENCODING 83
SWIDTH 648 0
DWIDTH 9 0
BBX 8 10 1 0
BITMAP
7C
C2
80
C0
78
0E
03
03
82
7C
ENDCHAR
STARTCHAR 0054
ENCODING 84
SWIDTH 648 0
DWIDTH 9 0
BBX 8 10 0 0
BITMAP
FF
08
08
08
08
08
08
08
08
08
ENDCHAR
STARTCHAR 0055
ENCODING 85
SWIDTH 720 0
DWIDTH 10 0
BBX 8 10 1 0
BITMAP
81
81
81
81
81
81
81
C3
42
3C
ENDCHAR
STARTCHAR 0056
ENCODING 86
SWIDTH 648 0
DWIDTH 9 0
BBX 9 10 0 0
BITMAP
C080
4180
4100
6100
2300
3200
1600
1400
1C00
0C00
ENDCHAR
STARTCHAR 0057
ENCODING 87
SWIDTH 936 0
DWIDTH 13 0
BBX 13 10 0 0
BITMAP
C208
C318
4510
4510
6510
24B0
28A0
28A0
38A0
1840
ENDCHAR
STARTCHAR 0058
ENCODING 88
SWIDTH 648 0
DWIDTH 9 0
BBX 8 10 1 0
BITMAP
82
46
64
28
18
38
2C
44
C2
83
ENDCHAR
STARTCHAR 0059
ENCODING 89
SWIDTH 648 0
DWIDTH 9 0
BBX 8 10 1 0
BITMAP
83
C2
44
2C
28
18
10
10
10
10
ENDCHAR
STARTCHAR 005A
ENCODING 90
SWIDTH 648 0
DWIDTH 9 0
BBX 8 10 0 0
BITMAP
7F
02
06
04
08
10
30
20
40
FF
ENDCHAR
STARTCHAR 005B
ENCODING 91
SWIDTH 288 0
DWIDTH 4 0
BBX 3 13 1 -3
BITMAP
E0
80
80
80
80
80
80
80
80
80
80
80
E0
ENDCHAR
STARTCHAR 005C
ENCODING 92
SWIDTH 288 0
DWIDTH 4 0
BBX 4 10 0 0
BITMAP
80
C0
40
40
40
20
20
20
20
10
ENDCHAR
STARTCHAR 005D
ENCODING 93
SWIDTH 288 0
DWIDTH 4 0
BBX 3 13 0 -3
BITMAP
E0
20
20
20
20
20
20
20
20
20
20
20
E0
ENDCHAR
STARTCHAR 005E
ENCODING 94
SWIDTH 504 0
DWIDTH 7 0
BBX 6 5 0 5
BITMAP
30
28
48
44
84
ENDCHAR
STARTCHAR 005F
ENCODING 95
SWIDTH 576 0
DWIDTH 8 0
BBX 8 1 0 -3
BITMAP
FF
ENDCHAR
STARTCHAR 0060
ENCODING 96
SWIDTH 360 0
DWIDTH 5 0
BBX 2 2 1 8
BITMAP
C0
40
ENDCHAR
STARTCHAR 0061
ENCODING 97
SWIDTH 576 0
DWIDTH 8 0
BBX 7 7 1 0
BITMAP
78
8C
0C
7C
8C
8C
F6
ENDCHAR
STARTCHAR 0062
ENCODING 98
SWIDTH 576 0
DWIDTH 8 0
BBX 6 10 1 0
BITMAP
80
80
80
B8
CC
84
84
84
CC
B8
ENDCHAR
STARTCHAR 0063
ENCODING 99
SWIDTH 504 0
DWIDTH 7 0
BBX 6 7 1 0
BITMAP
78
88
80
80
80
8C
78
ENDCHAR
STARTCHAR 0064
ENCODING 100
SWIDTH 576 0
DWIDTH 8 0
BBX 6 10 1 0
BITMAP
04
04
04
74
8C
84
84
84
8C
74
ENDCHAR
STARTCHAR 0065
ENCODING 101
SWIDTH 576 0
DWIDTH 8 0
BBX 6 7 1 0
BITMAP
78
8C
84
FC
80
84
78
ENDCHAR
STARTCHAR 0066
ENCODING 102
SWIDTH 288 0
DWIDTH 4 0
BBX 4 10 0 0
BITMAP
30
60
40
F0
40
40
40
40
40
40
ENDCHAR
STARTCHAR 0067
ENCODING 103
SWIDTH 576 0
DWIDTH 8 0
BBX 6 10 1 -3
BITMAP
74
8C
84
84
84
8C
74
04
8C
78
ENDCHAR
STARTCHAR 0068
ENCODING 104
SWIDTH 576 0
DWIDTH 8 0
BBX 6 10 1 0
BITMAP
80
80
80
B8
CC
84
84
84
84
84
ENDCHAR
STARTCHAR 0069
ENCODING 105
SWIDTH 216 0
DWIDTH 3 0
BBX 1 10 1 0
BITMAP
80
00
00
80
80
80
80
80
80
80
ENDCHAR
STARTCHAR 006A
ENCODING 106
SWIDTH 216 0
DWIDTH 3 0
BBX 2 13 0 -3
BITMAP
40
00
00
40
40
40
40
40
40
40
40
40
C0
ENDCHAR
STARTCHAR 006B
ENCODING 107
SWIDTH 504 0
DWIDTH 7 0
BBX 6 10 1 0
BITMAP
80
80
80
88
90
A0
E0
90
98
8C
ENDCHAR
STARTCHAR 006C
ENCODING 108
SWIDTH 216 0
DWIDTH 3 0
BBX 1 10 1 0
BITMAP
80
80
80
80
80
80
80
80
80
80
ENDCHAR
STARTCHAR 006D
ENCODING 109
SWIDTH 864 0
DWIDTH 12 0
BBX 10 7 1 0
BITMAP
BB80
CCC0
8C40
8840
8840
8840
8840
ENDCHAR
STARTCHAR 006E
ENCODING 110
SWIDTH 576 0
DWIDTH 8 0
BBX 6 7 1 0
BITMAP
B8
CC
84
84
84
84
84
ENDCHAR
STARTCHAR 006F
ENCODING 111
SWIDTH 576 0
DWIDTH 8 0
BBX 6 7 1 0
BITMAP
78
8C
84
84
84
8C
78
ENDCHAR
STARTCHAR 0070
ENCODING 112
SWIDTH 576 0
DWIDTH 8 0
BBX 6 10 1 -3
BITMAP
B8
CC
84
84
84
CC
B8
80
80
80
ENDCHAR
STARTCHAR 0071
ENCODING 113
SWIDTH 576 0
DWIDTH 8 0
BBX 6 10 1 -3
BITMAP
74
8C
84
84
84
8C
74
04
04
04
ENDCHAR
STARTCHAR 0072
ENCODING 114
SWIDTH 360 0
DWIDTH 5 0
BBX 3 7 1 0
BITMAP
A0
C0
80
80
80
80
80
ENDCHAR
STARTCHAR 0073
ENCODING 115
SWIDTH 504 0
DWIDTH 7 0
BBX 5 7 1 0
BITMAP
F8
88
80
78
08
88
F8
ENDCHAR
STARTCHAR 0074
ENCODING 116
SWIDTH 288 0
DWIDTH 4 0
BBX 4 9 0 0
BITMAP
40
40
F0
40
40
40
40
40
70
ENDCHAR
STARTCHAR 0075
ENCODING 117
SWIDTH 576 0
DWIDTH 8 0
BBX 6 7 1 0
BITMAP
84
84
84
84
84
8C
74
ENDCHAR
STARTCHAR 0076
ENCODING 118
SWIDTH 504 0
DWIDTH 7 0
BBX 7 7 0 0
BITMAP
C6
44
44
6C
28
28
10
ENDCHAR
STARTCHAR 0077
ENCODING 119
SWIDTH 720 0
DWIDTH 10 0
BBX 10 7 0 0
BITMAP
8C40
CC40
4C80
5280
5280
3300
3300
ENDCHAR
STARTCHAR 0078
ENCODING 120
SWIDTH 504 0
DWIDTH 7 0
BBX 5 7 1 0
BITMAP
88
D8
50
20
50
D8
88
ENDCHAR
STARTCHAR 0079
ENCODING 121
SWIDTH 504 0
DWIDTH 7 0
BBX 7 10 0 -3
BITMAP
C6
44
44
2C
28
38
10
10
20
E0
ENDCHAR
STARTCHAR 007A
ENCODING 122
SWIDTH 504 0
DWIDTH 7 0
BBX 5 7 1 0
BITMAP
F8
18
30
20
40
80
F8
ENDCHAR
STARTCHAR 007B
ENCODING 123
SWIDTH 360 0
DWIDTH 5 0
BBX 4 13 0 -3
BITMAP
30
20
20
20
20
60
C0
60
20
20
20
20
30
ENDCHAR
STARTCHAR 007C
ENCODING 124
SWIDTH 288 0
DWIDTH 4 0
BBX 1 13 1 -3
BITMAP
80
80
80
80
80
80
80
80
80
80
80
80
80
ENDCHAR
STARTCHAR 007D
ENCODING 125
SWIDTH 360 0
DWIDTH 5 0
BBX 4 13 0 -3
BITMAP
C0
20
20
20
20
20
10
20
20
20
20
20
C0
ENDCHAR
STARTCHAR 007E
ENCODING 126
SWIDTH 576 0
DWIDTH 8 0
BBX 7 3 1 3
BITMAP
E2
92
0C
ENDCHAR
STARTCHAR 00A0
ENCODING 160
SWIDTH 288 0
DWIDTH 4 0
BBX 0 0 0 0
BITMAP
ENDCHAR
STARTCHAR 00A1
ENCODING 161
SWIDTH 360 0
DWIDTH 5 0
BBX 1 9 2 -2
BITMAP
80
00
80
80
80
80
80
80
80
ENDCHAR
STARTCHAR 00A2
ENCODING 162
SWIDTH 576 0
DWIDTH 8 0
BBX 6 10 1 0
BITMAP
10
78
CC
80
80
80
80
CC
78
10
ENDCHAR
STARTCHAR 00A3
ENCODING 163
SWIDTH 576 0
DWIDTH 8 0
BBX 7 10 0 0
BITMAP
3C
22
20
20
FC
20
20
20
42
FE
ENDCHAR
STARTCHAR 00A4
ENCODING 164
SWIDTH 576 0
DWIDTH 8 0
BBX 6 6 1 2
BITMAP
FC
C8
84
84
C8
FC
ENDCHAR
STARTCHAR 00A5
ENCODING 165
SWIDTH 576 0
DWIDTH 8 0
BBX 8 10 0 0
BITMAP
C3
42
64
24
18
7E
18
7E
18
18
ENDCHAR
STARTCHAR 00A6
ENCODING 166
SWIDTH 288 0
DWIDTH 4 0
BBX 1 13 1 -3
BITMAP
80
80
80
80
80
00
00
00
80
80
80
80
80
ENDCHAR
STARTCHAR 00A7
ENCODING 167
SWIDTH 576 0
DWIDTH 8 0
BBX 6 11 1 -1
BITMAP
78
84
C0
70
8C
84
EC
18
04
84
78
ENDCHAR
STARTCHAR 00A8
ENCODING 168
SWIDTH 360 0
DWIDTH 5 0
BBX 4 1 0 8
BITMAP
90
ENDCHAR
STARTCHAR 00A9
ENCODING 169
SWIDTH 720 0
DWIDTH 10 0
BBX 10 10 0 0
BITMAP
1F00
2080
5E40
9040
A040
A040
9140
4E40
2080
1F00
ENDCHAR
STARTCHAR 00AA
ENCODING 170
SWIDTH 360 0
DWIDTH 5 0
BBX 5 6 0 4
BITMAP
70
10
78
88
98
68
ENDCHAR
STARTCHAR 00AB
ENCODING 171
SWIDTH 576 0
DWIDTH 8 0
BBX 6 5 1 1
BITMAP
64
C8
90
C8
64
ENDCHAR
STARTCHAR 00AC
ENCODING 172
SWIDTH 576 0
DWIDTH 8 0
BBX 6 4 1 1
BITMAP
FC
04
04
04
ENDCHAR
STARTCHAR 00AD
ENCODING 173
SWIDTH 360 0
DWIDTH 5 0
BBX 3 1 1 3
BITMAP
E0
ENDCHAR
STARTCHAR 00AE
ENCODING 174
SWIDTH 720 0
DWIDTH 10 0
BBX 10 10 0 0
BITMAP
1F00
2080
5E40
9240
9240
9C40
9240
5240
2080
1F00
ENDCHAR
STARTCHAR 00AF
ENCODING 175
SWIDTH 576 0
DWIDTH 8 0
BBX 8 1 0 10
BITMAP
FF
ENDCHAR
STARTCHAR 00B0
ENCODING 176
SWIDTH 432 0
DWIDTH 6 0
BBX 4 4 1 6
BITMAP
E0
90
90
E0
ENDCHAR
STARTCHAR 00B1
ENCODING 177
SWIDTH 576 0
DWIDTH 8 0
BBX 7 8 0 0
BITMAP
10
10
10
FE
10
10
10
FE
ENDCHAR
STARTCHAR 00B2
ENCODING 178
SWIDTH 360 0
DWIDTH 5 0
BBX 4 6 0 4
BITMAP
70
90
10
20
40
F0
ENDCHAR
STARTCHAR 00B3
ENCODING 179
SWIDTH 360 0
DWIDTH 5 0
BBX 4 6 0 4
BITMAP
70
10
30
10
90
70
ENDCHAR
STARTCHAR 00B4
ENCODING 180
SWIDTH 360 0
DWIDTH 5 0
BBX 2 2 1 8
BITMAP
40
80
ENDCHAR
STARTCHAR 00B5
ENCODING 181
SWIDTH 576 0
DWIDTH 8 0
BBX 7 10 1 -3
BITMAP
84
84
84
84
84
8C
F6
80
80
80
ENDCHAR
STARTCHAR 00B6
ENCODING 182
SWIDTH 576 0
DWIDTH 8 0
BBX 6 12 1 -2
BITMAP
FC
E8
E8
E8
E8
28
28
28
28
28
28
28
ENDCHAR
STARTCHAR 00B7
ENCODING 183
SWIDTH 360 0
DWIDTH 5 0
BBX 2 1 1 4
BITMAP
C0
ENDCHAR
STARTCHAR 00B8
ENCODING 184
SWIDTH 360 0
DWIDTH 5 0
BBX 2 4 1 -4
BITMAP
80
C0
40
C0
ENDCHAR
STARTCHAR 00B9
ENCODING 185
SWIDTH 360 0
DWIDTH 5 0
BBX 3 6 1 4
BITMAP
C0
C0
40
40
40
E0
ENDCHAR
STARTCHAR 00BA
ENCODING 186
SWIDTH 360 0
DWIDTH 5 0
BBX 5 6 0 4
BITMAP
70
88
88
88
88
70
ENDCHAR
STARTCHAR 00BB
ENCODING 187
SWIDTH 576 0
DWIDTH 8 0
BBX 6 5 1 1
BITMAP
90
48
24
48
90
ENDCHAR
STARTCHAR 00BC
ENCODING 188
SWIDTH 864 0
DWIDTH 12 0
BBX 11 10 1 0
BITMAP
C100
C200
4200
4400
48C0
E8C0
1140
1240
23E0
4040
ENDCHAR
STARTCHAR 00BD
ENCODING 189
SWIDTH 864 0
DWIDTH 12 0
BBX 10 10 1 0
BITMAP
C100
C200
4200
4400
49C0
EA40
1040
1080
2100
43C0
ENDCHAR
STARTCHAR 00BE
ENCODING 190
SWIDTH 864 0
DWIDTH 12 0
BBX 12 10 0 0
BITMAP
7080
1100
3100
1200
9460
7460
08A0
0920
11F0
2020
ENDCHAR
STARTCHAR 00BF
ENCODING 191
SWIDTH 648 0
DWIDTH 9 0
BBX 7 9 1 -2
BITMAP
10
00
10
30
40
80
86
C4
78
ENDCHAR
STARTCHAR 00C0
ENCODING 192
SWIDTH 648 0
DWIDTH 9 0
BBX 9 13 0 0
BITMAP
1800
0800
0000
0C00
1C00
1400
1200
2200
2300
7F00
4100
4180
C080
ENDCHAR
STARTCHAR 00C1
ENCODING 193
SWIDTH 648 0
DWIDTH 9 0
BBX 9 13 0 0
BITMAP
0400
0800
0000
0C00
1C00
1400
1200
2200
2300
7F00
4100
4180
C080
ENDCHAR
STARTCHAR 00C2
ENCODING 194
SWIDTH 648 0
DWIDTH 9 0
BBX 9 13 0 0
BITMAP
1800
2400
0000
0C00
1C00
1400
1200
2200
2300
7F00
4100
4180
C080
ENDCHAR
STARTCHAR 00C3
ENCODING 195
SWIDTH 648 0
DWIDTH 9 0
BBX 9 13 0 0
BITMAP
3200
2C00
0000
0C00
1C00
1400
1200
2200
2300
7F00
4100
4180
C080
ENDCHAR
STARTCHAR 00C4
ENCODING 196
SWIDTH 648 0
DWIDTH 9 0
BBX 9 12 0 0
BITMAP
2400
0000
0C00
1C00
1400
1200
2200
2300
7F00
4100
4180
C080
ENDCHAR
STARTCHAR 00C5
ENCODING 197
SWIDTH 648 0
DWIDTH 9 0
BBX 9 12 0 0
BITMAP
0C00
1200
0C00
1C00
1400
1200
2200
2300
7F00
4100
4180
C080
ENDCHAR
STARTCHAR 00C6
ENCODING 198
SWIDTH 1008 0
DWIDTH 14 0
BBX 13 10 0 0
BITMAP
07F8
0900
0900
1100
11F8
3100
3F00
6100
4100
C1F8
ENDCHAR
STARTCHAR 00C7
ENCODING 199
SWIDTH 720 0
DWIDTH 10 0
BBX 9 14 1 -4
BITMAP
3E00
6300
C100
8000
8000
8000
8000
C180
6300
3E00
1000
1800
0800
1800
ENDCHAR
STARTCHAR 00C8
ENCODING 200
SWIDTH 648 0
DWIDTH 9 0
BBX 8 13 1 0
BITMAP
30
10
00
FE
80
80
80
FE
80
80
80
80
FF
ENDCHAR
STARTCHAR 00C9
ENCODING 201
SWIDTH 648 0
DWIDTH 9 0
BBX 8 13 1 0
BITMAP
08
10
00
FE
80
80
80
FE
80
80
80
80
FF
ENDCHAR
STARTCHAR 00CA
ENCODING 202
SWIDTH 648 0
DWIDTH 9 0
BBX 8 13 1 0
BITMAP
18
24
00
FE
80
80
80
FE
80
80
80
80
FF
ENDCHAR
STARTCHAR 00CB
ENCODING 203
SWIDTH 648 0
DWIDTH 9 0
BBX 8 12 1 0
BITMAP
24
00
FE
80
80
80
FE
80
80
80
80
FF
ENDCHAR
STARTCHAR 00CC
ENCODING 204
SWIDTH 288 0
DWIDTH 4 0
BBX 3 13 0 0
BITMAP
C0
40
00
60
60
60
60
60
60
60
60
60
60
ENDCHAR
STARTCHAR 00CD
ENCODING 205
SWIDTH 288 0
DWIDTH 4 0
BBX 2 13 1 0
BITMAP
40
80
00
C0
C0
C0
C0
C0
C0
C0
C0
C0
C0
ENDCHAR
STARTCHAR 00CE
ENCODING 206
SWIDTH 288 0
DWIDTH 4 0
BBX 4 13 0 0
BITMAP
60
90
00
60
60
60
60
60
60
60
60
60
60
ENDCHAR
STARTCHAR 00CF
ENCODING 207
SWIDTH 288 0
DWIDTH 4 0
BBX 4 12 0 0
BITMAP
90
00
60
60
60
60
60
60
60
60
60
60
ENDCHAR
STARTCHAR 00D0
ENCODING 208
SWIDTH 720 0
DWIDTH 10 0
BBX 9 10 0 0
BITMAP
7E00
4300
4080
4080
F880
4080
4080
4180
4300
7E00
ENDCHAR
STARTCHAR 00D1
ENCODING 209
SWIDTH 720 0
DWIDTH 10 0
BBX 8 13 1 0
BITMAP
32
2C
00
C1
E1
A1
B1
91
89
8D
85
87
83
ENDCHAR
STARTCHAR 00D2
ENCODING 210
SWIDTH 792 0
DWIDTH 11 0
BBX 9 13 1 0
BITMAP
1800
0800
0000
3E00
6300
C180
8080
8080
8080
8080
C180
6300
3E00
ENDCHAR
STARTCHAR 00D3
ENCODING 211
SWIDTH 792 0
DWIDTH 11 0
BBX 9 13 1 0
BITMAP
0400
0800
0000
3E00
6300
C180
8080
8080
8080
8080
C180
6300
3E00
ENDCHAR
STARTCHAR 00D4
ENCODING 212
SWIDTH 792 0
DWIDTH 11 0
BBX 9 13 1 0
BITMAP
1800
2400
0000
3E00
6300
C180
8080
8080
8080
8080
C180
6300
3E00
ENDCHAR
STARTCHAR 00D5
ENCODING 213
SWIDTH 792 0
DWIDTH 11 0
BBX 9 13 1 0
BITMAP
3200
2C00
0000
3E00
6300
C180
8080
8080
8080
8080
C180
6300
3E00
ENDCHAR
STARTCHAR 00D6
ENCODING 214
SWIDTH 792 0
DWIDTH 11 0
BBX 9 12 1 0
BITMAP
2400
0000
3E00
6300
C180
8080
8080
8080
8080
C180
6300
3E00
ENDCHAR
STARTCHAR 00D7
ENCODING 215
SWIDTH 576 0
DWIDTH 8 0
BBX 6 7 1 1
BITMAP
04
CC
78
30
78
CC
04
ENDCHAR
STARTCHAR 00D8
ENCODING 216
SWIDTH 792 0
DWIDTH 11 0
BBX 9 10 1 0
BITMAP
3F80
6300
C380
8480
8C80
9880
9080
E180
6300
BE00
ENDCHAR
STARTCHAR 00D9
ENCODING 217
SWIDTH 720 0
DWIDTH 10 0
BBX 8 13 1 0
BITMAP
18
08
00
81
81
81
81
81
81
81
C3
42
3C
ENDCHAR
STARTCHAR 00DA
ENCODING 218
SWIDTH 720 0
DWIDTH 10 0
BBX 8 13 1 0
BITMAP
08
10
00
81
81
81
81
81
81
81
C3
42
3C
ENDCHAR
STARTCHAR 00DB
ENCODING 219
SWIDTH 720 0
DWIDTH 10 0
BBX 8 13 1 0
BITMAP
18
24
00
81
81
81
81
81
81
81
C3
42
3C
ENDCHAR
STARTCHAR 00DC
ENCODING 220
SWIDTH 720 0
DWIDTH 10 0
BBX 8 12 1 0
BITMAP
24
00
81
81
81
81
81
81
81
C3
42
3C
ENDCHAR
STARTCHAR 00DD
ENCODING 221
SWIDTH 648 0
DWIDTH 9 0
BBX 8 13 1 0
BITMAP
08
10
00
83
C2
44
2C
28
18
10
10
10
10
ENDCHAR
STARTCHAR 00DE
ENCODING 222
SWIDTH 648 0
DWIDTH 9 0
BBX 8 10 1 0
BITMAP
80
80
FC
82
83
83
82
FC
80
80
ENDCHAR
STARTCHAR 00DF
ENCODING 223
SWIDTH 648 0
DWIDTH 9 0
BBX 7 10 1 0
BITMAP
78
C4
84
88
90
88
84
82
82
9C
ENDCHAR
STARTCHAR 00E0
ENCODING 224
SWIDTH 576 0
DWIDTH 8 0
BBX 7 10 1 0
BITMAP
60
20
00
78
8C
0C
7C
8C
8C
F6
ENDCHAR
STARTCHAR 00E1
ENCODING 225
SWIDTH 576 0
DWIDTH 8 0
BBX 7 10 1 0
BITMAP
10
20
00
78
8C
0C
7C
8C
8C
F6
ENDCHAR
STARTCHAR 00E2
ENCODING 226
SWIDTH 576 0
DWIDTH 8 0
BBX 7 10 1 0
BITMAP
60
90
00
78
8C
0C
7C
8C
8C
F6
ENDCHAR
STARTCHAR 00E3
ENCODING 227
SWIDTH 576 0
DWIDTH 8 0
BBX 7 10 1 0
BITMAP
64
58
00
78
8C
0C
7C
8C
8C
F6
ENDCHAR
STARTCHAR 00E4
ENCODING 228
SWIDTH 576 0
DWIDTH 8 0
BBX 7 9 1 0
BITMAP
48
00
78
8C
0C
7C
8C
8C
F6
ENDCHAR
STARTCHAR 00E5
ENCODING 229
SWIDTH 576 0
DWIDTH 8 0
BBX 7 11 1 0
BITMAP
30
48
30
00
78
8C
0C
7C
8C
8C
F6
ENDCHAR
STARTCHAR 00E6
ENCODING 230
SWIDTH 864 0
DWIDTH 12 0
BBX 12 7 0 0
BITMAP
3DE0
4620
0630
7FF0
4600
C630
79E0
ENDCHAR
STARTCHAR 00E7
ENCODING 231
SWIDTH 504 0
DWIDTH 7 0
BBX 6 11 1 -4
BITMAP
78
88
80
80
80
8C
78
20
30
10
30
ENDCHAR
STARTCHAR 00E8
ENCODING 232
SWIDTH 576 0
DWIDTH 8 0
BBX 6 10 1 0
BITMAP
30
10
00
78
8C
84
FC
80
84
78
ENDCHAR
STARTCHAR 00E9
ENCODING 233
SWIDTH 576 0
DWIDTH 8 0
BBX 6 10 1 0
BITMAP
08
10
00
78
8C
84
FC
80
84
78
ENDCHAR
STARTCHAR 00EA
ENCODING 234
SWIDTH 576 0
DWIDTH 8 0
BBX 6 10 1 0
BITMAP
30
48
00
78
8C
84
FC
80
84
78
ENDCHAR
STARTCHAR 00EB
ENCODING 235
SWIDTH 576 0
DWIDTH 8 0
BBX 6 9 1 0
BITMAP
48
00
78
8C
84
FC
80
84
78
ENDCHAR
STARTCHAR 00EC
ENCODING 236
SWIDTH 288 0
DWIDTH 4 0
BBX 3 10 0 0
BITMAP
C0
40
00
60
60
60
60
60
60
60
ENDCHAR
STARTCHAR 00ED
ENCODING 237
SWIDTH 288 0
DWIDTH 4 0
BBX 2 10 1 0
BITMAP
40
80
00
C0
C0
C0
C0
C0
C0
C0
ENDCHAR
STARTCHAR 00EE
ENCODING 238
SWIDTH 288 0
DWIDTH 4 0
BBX 4 10 0 0
BITMAP
60
90
00
60
60
60
60
60
60
60
ENDCHAR
STARTCHAR 00EF
ENCODING 239
SWIDTH 288 0
DWIDTH 4 0
BBX 4 9 0 0
BITMAP
90
00
60
60
60
60
60
60
60
ENDCHAR
STARTCHAR 00F0
ENCODING 240
SWIDTH 576 0
DWIDTH 8 0
BBX 6 10 1 0
BITMAP
68
30
58
0C
7C
84
84
84
84
78
ENDCHAR
STARTCHAR 00F1
ENCODING 241
SWIDTH 576 0
DWIDTH 8 0
BBX 6 10 1 0
BITMAP
64
58
00
B8
CC
84
84
84
84
84
ENDCHAR
STARTCHAR 00F2
ENCODING 242
SWIDTH 576 0
DWIDTH 8 0
BBX 6 10 1 0
BITMAP
30
10
00
78
8C
84
84
84
8C
78
ENDCHAR
STARTCHAR 00F3
ENCODING 243
SWIDTH 576 0
DWIDTH 8 0
BBX 6 10 1 0
BITMAP
10
20
00
78
8C
84
84
84
8C
78
ENDCHAR
STARTCHAR 00F4
ENCODING 244
SWIDTH 576 0
DWIDTH 8 0
BBX 6 10 1 0
BITMAP
30
48
00
78
8C
84
84
84
8C
78
ENDCHAR
STARTCHAR 00F5
ENCODING 245
SWIDTH 576 0
DWIDTH 8 0
BBX 6 10 1 0
BITMAP
64
58
00
78
8C
84
84
84
8C
78
ENDCHAR
STARTCHAR 00F6
ENCODING 246
SWIDTH 576 0
DWIDTH 8 0
BBX 6 9 1 0
BITMAP
48
00
78
8C
84
84
84
8C
78
ENDCHAR
STARTCHAR 00F7
ENCODING 247
SWIDTH 576 0
DWIDTH 8 0
BBX 7 7 0 1
BITMAP
10
00
00
FE
00
00
10
ENDCHAR
STARTCHAR 00F8
ENCODING 248
SWIDTH 648 0
DWIDTH 9 0
BBX 7 7 1 0
BITMAP
7A
C4
8E
96
A6
C4
F8
ENDCHAR
STARTCHAR 00F9
ENCODING 249
SWIDTH 576 0
DWIDTH 8 0
BBX 6 10 1 0
BITMAP
30
10
00
84
84
84
84
84
8C
74
ENDCHAR
STARTCHAR 00FA
ENCODING 250
SWIDTH 576 0
DWIDTH 8 0
BBX 6 10 1 0
BITMAP
10
20
00
84
84
84
84
84
8C
74
ENDCHAR
STARTCHAR 00FB
ENCODING 251
SWIDTH 576 0
DWIDTH 8 0
BBX 6 10 1 0
BITMAP
30
48
00
84
84
84
84
84
8C
74
ENDCHAR
STARTCHAR 00FC
ENCODING 252
SWIDTH 576 0
DWIDTH 8 0
BBX 6 9 1 0
BITMAP
48
00
84
84
84
84
84
8C
74
ENDCHAR
STARTCHAR 00FD
ENCODING 253
SWIDTH 504 0
DWIDTH 7 0
BBX 7 13 0 -3
BITMAP
08
10
00
C6
44
44
2C
28
38
10
10
20
E0
ENDCHAR
STARTCHAR 00FE
ENCODING 254
SWIDTH 576 0
DWIDTH 8 0
BBX 6 13 1 -3
BITMAP
80
80
80
B8
CC
84
84
84
CC
B8
80
80
80
ENDCHAR
STARTCHAR 00FF
ENCODING 255
SWIDTH 504 0
DWIDTH 7 0
BBX 7 12 0 -3
BITMAP
48
00
C6
44
44
2C
28
38
10
10
20
E0
ENDCHAR
STARTCHAR 0100
ENCODING 256
SWIDTH 648 0
DWIDTH 9 0
BBX 9 12 0 0
BITMAP
3C00
0000
0C00
1C00
1400
1200
2200
2300
7F00
4100
4180
C080
ENDCHAR
STARTCHAR 0101
ENCODING 257
SWIDTH 576 0
DWIDTH 8 0
BBX 7 9 1 0
BITMAP
78
00
78
8C
0C
7C
8C
8C
F6
ENDCHAR
STARTCHAR 0102
ENCODING 258
SWIDTH 648 0
DWIDTH 9 0
BBX 9 13 0 0
BITMAP
1200
0E00
0000
0C00
1C00
1400
1200
2200
2300
7F00
4100
4180
C080
ENDCHAR
STARTCHAR 0103
ENCODING 259
SWIDTH 576 0
DWIDTH 8 0
BBX 7 10 1 0
BITMAP
48
38
00
78
8C
0C
7C
8C
8C
F6
ENDCHAR
STARTCHAR 0104
ENCODING 260
SWIDTH 648 0
DWIDTH 9 0
BBX 9 14 0 -4
BITMAP
0C00
1C00
1400
1200
2200
2300
7F00
4100
4180
C080
0100
0100
0100
0180
ENDCHAR
STARTCHAR 0105
ENCODING 261
SWIDTH 576 0
DWIDTH 8 0
BBX 7 11 1 -4
BITMAP
78
8C
0C
7C
8C
8C
F6
04
04
04
06
ENDCHAR
STARTCHAR 0106
ENCODING 262
SWIDTH 720 0
DWIDTH 10 0
BBX 9 13 1 0
BITMAP
0400
0800
0000
3E00
6300
C100
8000
8000
8000
8000
C180
6300
3E00
ENDCHAR
STARTCHAR 0107
ENCODING 263
SWIDTH 504 0
DWIDTH 7 0
BBX 6 10 1 0
BITMAP
10
20
00
78
88
80
80
80
8C
78
ENDCHAR
STARTCHAR 0108
ENCODING 264
SWIDTH 720 0
DWIDTH 10 0
BBX 9 13 1 0
BITMAP
1800
2400
0000
3E00
6300
C100
8000
8000
8000
8000
C180
6300
3E00
ENDCHAR
STARTCHAR 0109
ENCODING 265
SWIDTH 504 0
DWIDTH 7 0
BBX 6 10 1 0
BITMAP
60
90
00
78
88
80
80
80
8C
78
ENDCHAR
STARTCHAR 010A
ENCODING 266
SWIDTH 720 0
DWIDTH 10 0
BBX 9 12 1 0
BITMAP
0800
0000
3E00
6300
C100
8000
8000
8000
8000
C180
6300
3E00
ENDCHAR
STARTCHAR 010B
ENCODING 267
SWIDTH 504 0
DWIDTH 7 0
BBX 6 9 1 0
BITMAP
20
00
78
88
80
80
80
8C
78
ENDCHAR
STARTCHAR 010C
ENCODING 268
SWIDTH 720 0
DWIDTH 10 0
BBX 9 13 1 0
BITMAP
2400
1800
0000
3E00
6300
C100
8000
8000
8000
8000
C180
6300
3E00
ENDCHAR
STARTCHAR 010D
ENCODING 269
SWIDTH 504 0
DWIDTH 7 0
BBX 6 10 1 0
BITMAP
90
60
00
78
88
80
80
80
8C
78
ENDCHAR
STARTCHAR 010E
ENCODING 270
SWIDTH 720 0
DWIDTH 10 0
BBX 8 13 1 0
BITMAP
48
30
00
FC
86
81
81
81
81
81
83
86
FC
ENDCHAR
STARTCHAR 010F
ENCODING 271
SWIDTH 648 0
DWIDTH 9 0
BBX 8 10 1 0
BITMAP
05
05
04
74
8C
84
84
84
8C
74
ENDCHAR
STARTCHAR 0110
ENCODING 272
SWIDTH 720 0
DWIDTH 10 0
BBX 9 10 0 0
BITMAP
7E00
4300
4080
4080
F880
4080
4080
4180
4300
7E00
ENDCHAR
STARTCHAR 0111
ENCODING 273
SWIDTH 576 0
DWIDTH 8 0
BBX 7 10 1 0
BITMAP
04
1E
04
74
8C
84
84
84
8C
74
ENDCHAR
STARTCHAR 0112
ENCODING 274
SWIDTH 648 0
DWIDTH 9 0
BBX 8 12 1 0
BITMAP
3C
00
FE
80
80
80
FE
80
80
80
80
FF
ENDCHAR
STARTCHAR 0113
ENCODING 275
SWIDTH 576 0
DWIDTH 8 0
BBX 6 9 1 0
BITMAP
78
00
78
8C
84
FC
80
84
78
ENDCHAR
STARTCHAR 0114
ENCODING 276
SWIDTH 648 0
DWIDTH 9 0
BBX 8 13 1 0
BITMAP
24
1C
00
FE
80
80
80
FE
80
80
80
80
FF
ENDCHAR
STARTCHAR 0115
ENCODING 277
SWIDTH 576 0
DWIDTH 8 0
BBX 6 10 1 0
BITMAP
48
38
00
78
8C
84
FC
80
84
78
ENDCHAR
STARTCHAR 0116
ENCODING 278
SWIDTH 648 0
DWIDTH 9 0
BBX 8 12 1 0
BITMAP
10
00
FE
80
80
80
FE
80
80
80
80
FF
ENDCHAR
STARTCHAR 0117
ENCODING 279
SWIDTH 576 0
DWIDTH 8 0
BBX 6 9 1 0
BITMAP
20
00
78
8C
84
FC
80
84
78
ENDCHAR
STARTCHAR 0118
ENCODING 280
SWIDTH 648 0
DWIDTH 9 0
BBX 8 14 1 -4
BITMAP
FE
80
80
80
FE
80
80
80
80
FF
02
02
02
03
ENDCHAR
STARTCHAR 0119
ENCODING 281
SWIDTH 576 0
DWIDTH 8 0
BBX 6 11 1 -4
BITMAP
78
8C
84
FC
80
84
78
10
10
10
18
ENDCHAR
STARTCHAR 011A
ENCODING 282
SWIDTH 648 0
DWIDTH 9 0
BBX 8 13 1 0
BITMAP
24
18
00
FE
80
80
80
FE
80
80
80
80
FF
ENDCHAR
STARTCHAR 011B
ENCODING 283
SWIDTH 576 0
DWIDTH 8 0
BBX 6 10 1 0
BITMAP
48
30
00
78
8C
84
FC
80
84
78
ENDCHAR
STARTCHAR 011C
ENCODING 284
SWIDTH 792 0
DWIDTH 11 0
BBX 9 13 1 0
BITMAP
1800
2400
0000
3E00
6300
C180
8000
8000
8780
8080
C080
6180
3E00
ENDCHAR
STARTCHAR 011D
ENCODING 285
SWIDTH 576 0
DWIDTH 8 0
BBX 6 13 1 -3
BITMAP
60
90
00
74
8C
84
84
84
8C
74
04
8C
78
ENDCHAR
STARTCHAR 011E
ENCODING 286
SWIDTH 792 0
DWIDTH 11 0
BBX 9 13 1 0
BITMAP
2400
1C00
0000
3E00
6300
C180
8000
8000
8780
8080
C080
6180
3E00
ENDCHAR
STARTCHAR 011F
ENCODING 287
SWIDTH 576 0
DWIDTH 8 0
BBX 6 13 1 -3
BITMAP
48
38
00
74
8C
84
84
84
8C
74
04
8C
78
ENDCHAR
STARTCHAR 0120
ENCODING 288
SWIDTH 792 0
DWIDTH 11 0
BBX 9 12 1 0
BITMAP
0800
0000
3E00
6300
C180
8000
8000
8780
8080
C080
6180
3E00
ENDCHAR
STARTCHAR 0121
ENCODING 289
SWIDTH 576 0
DWIDTH 8 0
BBX 6 12 1 -3
BITMAP
20
00
74
8C
84
84
84
8C
74
04
8C
78
ENDCHAR
STARTCHAR 0122
ENCODING 290
SWIDTH 792 0
DWIDTH 11 0
BBX 9 13 1 -3
BITMAP
3E00
6300
C180
8000
8000
8780
8080
C080
6180
3E00
0000
0800
0800
ENDCHAR
STARTCHAR 0123
ENCODING 291
SWIDTH 576 0
DWIDTH 8 0
BBX 6 13 1 -3
BITMAP
20
20
00
74
8C
84
84
84
8C
74
04
8C
78
ENDCHAR
STARTCHAR 0124
ENCODING 292
SWIDTH 720 0
DWIDTH 10 0
BBX 8 13 1 0
BITMAP
18
24
00
81
81
81
81
FF
81
81
81
81
81
ENDCHAR
STARTCHAR 0125
ENCODING 293
SWIDTH 576 0
DWIDTH 8 0
BBX 6 13 1 0
BITMAP
30
48
00
80
80
80
B8
CC
84
84
84
84
84
ENDCHAR
STARTCHAR 0126
ENCODING 294
SWIDTH 720 0
DWIDTH 10 0
BBX 10 10 0 0
BITMAP
4080
4080
FFC0
4080
7F80
4080
4080
4080
4080
4080
ENDCHAR
STARTCHAR 0127
ENCODING 295
SWIDTH 576 0
DWIDTH 8 0
BBX 7 10 0 0
BITMAP
40
F0
40
5C
66
42
42
42
42
42
ENDCHAR
STARTCHAR 0128
ENCODING 296
SWIDTH 288 0
DWIDTH 4 0
BBX 5 13 0 0
BITMAP
C8
B0
00
60
60
60
60
60
60
60
60
60
60
ENDCHAR
STARTCHAR 0129
ENCODING 297
SWIDTH 288 0
DWIDTH 4 0
BBX 5 10 0 0
BITMAP
C8
B0
00
60
60
60
60
60
60
60
ENDCHAR
STARTCHAR 012A
ENCODING 298
SWIDTH 288 0
DWIDTH 4 0
BBX 4 12 0 0
BITMAP
F0
00
60
60
60
60
60
60
60
60
60
60
ENDCHAR
STARTCHAR 012B
ENCODING 299
SWIDTH 288 0
DWIDTH 4 0
BBX 4 9 0 0
BITMAP
F0
00
60
60
60
60
60
60
60
ENDCHAR
STARTCHAR 012C
ENCODING 300
SWIDTH 288 0
DWIDTH 4 0
BBX 4 13 0 0
BITMAP
90
70
00
60
60
60
60
60
60
60
60
60
60
ENDCHAR
STARTCHAR 012D
ENCODING 301
SWIDTH 288 0
DWIDTH 4 0
BBX 4 10 0 0
BITMAP
90
70
00
60
60
60
60
60
60
60
ENDCHAR
STARTCHAR 012E
ENCODING 302
SWIDTH 288 0
DWIDTH 4 0
BBX 2 14 1 -4
BITMAP
C0
C0
C0
C0
C0
C0
C0
C0
C0
C0
80
80
80
C0
ENDCHAR
STARTCHAR 012F
ENCODING 303
SWIDTH 216 0
DWIDTH 3 0
BBX 2 14 1 -4
BITMAP
80
00
00
80
80
80
80
80
80
80
80
80
80
C0
ENDCHAR
STARTCHAR 0130
ENCODING 304
SWIDTH 288 0
DWIDTH 4 0
BBX 2 12 1 0
BITMAP
80
00
C0
C0
C0
C0
C0
C0
C0
C0
C0
C0
ENDCHAR
STARTCHAR 0131
ENCODING 305
SWIDTH 288 0
DWIDTH 4 0
BBX 2 7 1 0
BITMAP
C0
C0
C0
C0
C0
C0
C0
ENDCHAR
STARTCHAR 0132
ENCODING 306
SWIDTH 720 0
DWIDTH 10 0
BBX 8 10 1 0
BITMAP
C7
C1
C1
C1
C1
C1
C1
F1
D3
DE
ENDCHAR
STARTCHAR 0133
ENCODING 307
SWIDTH 432 0
DWIDTH 6 0
BBX 4 13 1 -3
BITMAP
90
00
00
90
90
90
90
90
90
90
10
10
30
ENDCHAR
STARTCHAR 0134
ENCODING 308
SWIDTH 504 0
DWIDTH 7 0
BBX 6 13 0 0
BITMAP
18
24
00
1C
04
04
04
04
04
04
C4
4C
78
ENDCHAR
STARTCHAR 0135
ENCODING 309
SWIDTH 216 0
DWIDTH 3 0
BBX 4 13 0 -3
BITMAP
E0
B0
00
40
40
40
40
40
40
40
40
40
C0
ENDCHAR
STARTCHAR 0136
ENCODING 310
SWIDTH 648 0
DWIDTH 9 0
BBX 8 13 1 -3
BITMAP
82
84
88
90
B0
D0
88
84
86
83
00
10
10
ENDCHAR
STARTCHAR 0137
ENCODING 311
SWIDTH 504 0
DWIDTH 7 0
BBX 6 13 1 -3
BITMAP
80
80
80
88
90
A0
E0
90
98
8C
00
20
20
ENDCHAR
STARTCHAR 0138
ENCODING 312
SWIDTH 504 0
DWIDTH 7 0
BBX 6 7 1 0
BITMAP
88
90
A0
E0
90
98
8C
ENDCHAR
STARTCHAR 0139
ENCODING 313
SWIDTH 576 0
DWIDTH 8 0
BBX 6 13 1 0
BITMAP
20
40
00
80
80
80
80
80
80
80
80
80
FC
ENDCHAR
STARTCHAR 013A
ENCODING 314
SWIDTH 216 0
DWIDTH 3 0
BBX 2 13 1 0
BITMAP
40
80
00
80
80
80
80
80
80
80
80
80
80
ENDCHAR
STARTCHAR 013B
ENCODING 315
SWIDTH 576 0
DWIDTH 8 0
BBX 6 13 1 -3
BITMAP
80
80
80
80
80
80
80
80
80
FC
00
10
10
ENDCHAR
STARTCHAR 013C
ENCODING 316
SWIDTH 216 0
DWIDTH 3 0
BBX 1 13 1 -3
BITMAP
80
80
80
80
80
80
80
80
80
80
00
80
80
ENDCHAR
STARTCHAR 013D
ENCODING 317
SWIDTH 576 0
DWIDTH 8 0
BBX 6 10 1 0
BITMAP
88
88
80
80
80
80
80
80
80
FC
ENDCHAR
STARTCHAR 013E
ENCODING 318
SWIDTH 288 0
DWIDTH 4 0
BBX 3 10 1 0
BITMAP
A0
A0
80
80
80
80
80
80
80
80
ENDCHAR
STARTCHAR 013F
ENCODING 319
SWIDTH 576 0
DWIDTH 8 0
BBX 6 10 1 0
BITMAP
80
80
80
80
90
80
80
80
80
FC
ENDCHAR
STARTCHAR 0140
ENCODING 320
SWIDTH 360 0
DWIDTH 5 0
BBX 3 10 1 0
BITMAP
80
80
80
80
A0
80
80
80
80
80
ENDCHAR
STARTCHAR 0141
ENCODING 321
SWIDTH 576 0
DWIDTH 8 0
BBX 7 10 0 0
BITMAP
40
40
40
50
60
C0
40
40
40
7E
ENDCHAR
STARTCHAR 0142
ENCODING 322
SWIDTH 216 0
DWIDTH 3 0
BBX 3 10 0 0
BITMAP
40
40
40
40
60
60
C0
40
40
40
ENDCHAR
STARTCHAR 0143
ENCODING 323
SWIDTH 720 0
DWIDTH 10 0
BBX 8 13 1 0
BITMAP
04
08
00
C1
E1
A1
B1
91
89
8D
85
87
83
ENDCHAR
STARTCHAR 0144
ENCODING 324
SWIDTH 576 0
DWIDTH 8 0
BBX 6 10 1 0
BITMAP
08
10
00
B8
CC
84
84
84
84
84
ENDCHAR
STARTCHAR 0145
ENCODING 325
SWIDTH 720 0
DWIDTH 10 0
BBX 8 13 1 -3
BITMAP
C1
E1
A1
B1
91
89
8D
85
87
83
00
10
10
ENDCHAR
STARTCHAR 0146
ENCODING 326
SWIDTH 576 0
DWIDTH 8 0
BBX 6 10 1 -3
BITMAP
B8
CC
84
84
84
84
84
00
20
20
ENDCHAR
STARTCHAR 0147
ENCODING 327
SWIDTH 720 0
DWIDTH 10 0
BBX 8 13 1 0
BITMAP
24
18
00
C1
E1
A1
B1
91
89
8D
85
87
83
ENDCHAR
STARTCHAR 0148
ENCODING 328
SWIDTH 576 0
DWIDTH 8 0
BBX 6 10 1 0
BITMAP
48
30
00
B8
CC
84
84
84
84
84
ENDCHAR
STARTCHAR 0149
ENCODING 329
SWIDTH 576 0
DWIDTH 8 0
BBX 8 10 0 0
BITMAP
80
80
80
2E
33
21
21
21
21
21
ENDCHAR
STARTCHAR 014A
ENCODING 330
SWIDTH 720 0
DWIDTH 10 0
BBX 8 10 1 0
BITMAP
9E
A3
C1
81
81
81
81
81
83
8E
ENDCHAR
STARTCHAR 014B
ENCODING 331
SWIDTH 576 0
DWIDTH 8 0
BBX 6 10 1 -3
BITMAP
B8
CC
84
84
84
84
84
04
04
1C
ENDCHAR
STARTCHAR 014C
ENCODING 332
SWIDTH 792 0
DWIDTH 11 0
BBX 9 12 1 0
BITMAP
3C00
0000
3E00
6300
C180
8080
8080
8080
8080
C180
6300
3E00
ENDCHAR
STARTCHAR 014D
ENCODING 333
SWIDTH 576 0
DWIDTH 8 0
BBX 6 9 1 0
BITMAP
78
00
78
8C
84
84
84
8C
78
ENDCHAR
STARTCHAR 014E
ENCODING 334
SWIDTH 792 0
DWIDTH 11 0
BBX 9 13 1 0
BITMAP
2400
1C00
0000
3E00
6300
C180
8080
8080
8080
8080
C180
6300
3E00
ENDCHAR
STARTCHAR 014F
ENCODING 335
SWIDTH 576 0
DWIDTH 8 0
BBX 6 10 1 0
BITMAP
48
38
00
78
8C
84
84
84
8C
78
ENDCHAR
STARTCHAR 0150
ENCODING 336
SWIDTH 792 0
DWIDTH 11 0
BBX 9 13 1 0
BITMAP
1A00
2400
0000
3E00
6300
C180
8080
8080
8080
8080
C180
6300
3E00
ENDCHAR
STARTCHAR 0151
ENCODING 337
SWIDTH 576 0
DWIDTH 8 0
BBX 6 10 1 0
BITMAP
34
48
00
78
8C
84
84
84
8C
78
ENDCHAR
STARTCHAR 0152
ENCODING 338
SWIDTH 1008 0
DWIDTH 14 0
BBX 12 10 1 0
BITMAP
3FF0
6600
C600
8600
87F0
8600
8600
C600
6600
3FF0
ENDCHAR
STARTCHAR 0153
ENCODING 339
SWIDTH 936 0
DWIDTH 13 0
BBX 12 7 1 0
BITMAP
7BC0
8620
8420
87F0
8400
8E20
7BC0
ENDCHAR
STARTCHAR 0154
ENCODING 340
SWIDTH 720 0
DWIDTH 10 0
BBX 8 13 1 0
BITMAP
08
10
00
FE
83
81
81
83
FE
84
86
82
81
ENDCHAR
STARTCHAR 0155
ENCODING 341
SWIDTH 360 0
DWIDTH 5 0
BBX 3 10 1 0
BITMAP
20
40
00
A0
C0
80
80
80
80
80
ENDCHAR
STARTCHAR 0156
ENCODING 342
SWIDTH 720 0
DWIDTH 10 0
BBX 8 13 1 -3
BITMAP
FE
83
81
81
83
FE
84
86
82
81
00
08
08
ENDCHAR
STARTCHAR 0157
ENCODING 343
SWIDTH 360 0
DWIDTH 5 0
BBX 3 10 1 -3
BITMAP
A0
C0
80
80
80
80
80
00
80
80
ENDCHAR
STARTCHAR 0158
ENCODING 344
SWIDTH 720 0
DWIDTH 10 0
BBX 8 13 1 0
BITMAP
48
30
00
FE
83
81
81
83
FE
84
86
82
81
ENDCHAR
STARTCHAR 0159
ENCODING 345
SWIDTH 360 0
DWIDTH 5 0
BBX 4 10 0 0
BITMAP
90
60
00
50
60
40
40
40
40
40
ENDCHAR
STARTCHAR 015A
ENCODING 346
SWIDTH 648 0
DWIDTH 9 0
BBX 8 13 1 0
BITMAP
08
10
00
7C
C2
80
C0
78
0E
03
03
82
7C
ENDCHAR
STARTCHAR 015B
ENCODING 347
SWIDTH 504 0
DWIDTH 7 0
BBX 5 10 1 0
BITMAP
10
20
00
F8
88
80
78
08
88
F8
ENDCHAR
STARTCHAR 015C
ENCODING 348
SWIDTH 648 0
DWIDTH 9 0
BBX 8 13 1 0
BITMAP
18
24
00
7C
C2
80
C0
78
0E
03
03
82
7C
ENDCHAR
STARTCHAR 015D
ENCODING 349
SWIDTH 504 0
DWIDTH 7 0
BBX 5 10 1 0
BITMAP
60
90
00
F8
88
80
78
08
88
F8
ENDCHAR
STARTCHAR 015E
ENCODING 350
SWIDTH 648 0
DWIDTH 9 0
BBX 8 14 1 -4
BITMAP
7C
C2
80
C0
78
0E
03
03
82
7C
10
18
08
18
ENDCHAR
STARTCHAR 015F
ENCODING 351
SWIDTH 504 0
DWIDTH 7 0
BBX 5 11 1 -4
BITMAP
F8
88
80
78
08
88
F8
40
60
20
60
ENDCHAR
STARTCHAR 0160
ENCODING 352
SWIDTH 648 0
DWIDTH 9 0
BBX 8 13 1 0
BITMAP
24
18
00
7C
C2
80
C0
78
0E
03
03
82
7C
ENDCHAR
STARTCHAR 0161
ENCODING 353
SWIDTH 504 0
DWIDTH 7 0
BBX 5 10 1 0
BITMAP
90
60
00
F8
88
80
78
08
88
F8
ENDCHAR
STARTCHAR 0162
ENCODING 354
SWIDTH 648 0
DWIDTH 9 0
BBX 8 14 0 -4
BITMAP
FF
08
08
08
08
08
08
08
08
08
10
18
08
18
ENDCHAR
STARTCHAR 0163
ENCODING 355
SWIDTH 288 0
DWIDTH 4 0
BBX 4 13 0 -4
BITMAP
40
40
F0
40
40
40
40
40
70
20
30
10
30
ENDCHAR
STARTCHAR 0164
ENCODING 356
SWIDTH 648 0
DWIDTH 9 0
BBX 8 13 0 0
BITMAP
24
18
00
FF
08
08
08
08
08
08
08
08
08
ENDCHAR
STARTCHAR 0165
ENCODING 357
SWIDTH 360 0
DWIDTH 5 0
BBX 5 11 0 0
BITMAP
08
08
40
40
F0
40
40
40
40
40
70
ENDCHAR
STARTCHAR 0166
ENCODING 358
SWIDTH 648 0
DWIDTH 9 0
BBX 8 10 0 0
BITMAP
FF
08
08
08
3E
08
08
08
08
08
ENDCHAR
STARTCHAR 0167
ENCODING 359
SWIDTH 288 0
DWIDTH 4 0
BBX 4 9 0 0
BITMAP
40
40
F0
40
40
F0
40
40
70
ENDCHAR
STARTCHAR 0168
ENCODING 360
SWIDTH 720 0
DWIDTH 10 0
BBX 8 13 1 0
BITMAP
32
2C
00
81
81
81
81
81
81
81
C3
42
3C
ENDCHAR
STARTCHAR 0169
ENCODING 361
SWIDTH 576 0
DWIDTH 8 0
BBX 6 10 1 0
BITMAP
64
58
00
84
84
84
84
84
8C
74
ENDCHAR
STARTCHAR 016A
ENCODING 362
SWIDTH 720 0
DWIDTH 10 0
BBX 8 12 1 0
BITMAP
3C
00
81
81
81
81
81
81
81
C3
42
3C
ENDCHAR
STARTCHAR 016B
ENCODING 363
SWIDTH 576 0
DWIDTH 8 0
BBX 6 9 1 0
BITMAP
78
00
84
84
84
84
84
8C
74
ENDCHAR
STARTCHAR 016C
ENCODING 364
SWIDTH 720 0
DWIDTH 10 0
BBX 8 13 1 0
BITMAP
24
1C
00
81
81
81
81
81
81
81
C3
42
3C
ENDCHAR
STARTCHAR 016D
ENCODING 365
SWIDTH 576 0
DWIDTH 8 0
BBX 6 10 1 0
BITMAP
48
38
00
84
84
84
84
84
8C
74
ENDCHAR
STARTCHAR 016E
ENCODING 366
SWIDTH 720 0
DWIDTH 10 0
BBX 8 13 1 0
BITMAP
18
24
18
81
81
81
81
81
81
81
C3
42
3C
ENDCHAR
STARTCHAR 016F
ENCODING 367
SWIDTH 576 0
DWIDTH 8 0
BBX 6 11 1 0
BITMAP
30
48
30
00
84
84
84
84
84
8C
74
ENDCHAR
STARTCHAR 0170
ENCODING 368
SWIDTH 720 0
DWIDTH 10 0
BBX 8 13 1 0
BITMAP
1A
24
00
81
81
81
81
81
81
81
C3
42
3C
ENDCHAR
STARTCHAR 0171
ENCODING 369
SWIDTH 576 0
DWIDTH 8 0
BBX 6 10 1 0
BITMAP
34
48
00
84
84
84
84
84
8C
74
ENDCHAR
STARTCHAR 0172
ENCODING 370
SWIDTH 720 0
DWIDTH 10 0
BBX 8 14 1 -4
BITMAP
81
81
81
81
81
81
81
C3
42
3C
08
08
08
0C
ENDCHAR
STARTCHAR 0173
ENCODING 371
SWIDTH 576 0
DWIDTH 8 0
BBX 6 11 1 -4
BITMAP
84
84
84
84
84
8C
74
08
08
08
0C
ENDCHAR
STARTCHAR 0174
ENCODING 372
SWIDTH 936 0
DWIDTH 13 0
BBX 13 13 0 0
BITMAP
0600
0900
0000
C208
C318
4510
4510
6510
24B0
28A0
28A0
38A0
1840
ENDCHAR
STARTCHAR 0175
ENCODING 373
SWIDTH 720 0
DWIDTH 10 0
BBX 10 10 0 0
BITMAP
0C00
1200
0000
8C40
CC40
4C80
5280
5280
3300
3300
ENDCHAR
STARTCHAR 0176
ENCODING 374
SWIDTH 648 0
DWIDTH 9 0
BBX 8 13 1 0
BITMAP
30
48
00
83
C2
44
2C
28
18
10
10
10
10
ENDCHAR
STARTCHAR 0177
ENCODING 375
SWIDTH 504 0
DWIDTH 7 0
BBX 7 13 0 -3
BITMAP
30
48
00
C6
44
44
2C
28
38
10
10
20
E0
ENDCHAR
STARTCHAR 0178
ENCODING 376
SWIDTH 648 0
DWIDTH 9 0
BBX 8 12 1 0
BITMAP
48
00
83
C2
44
2C
28
18
10
10
10
10
ENDCHAR
STARTCHAR 0179
ENCODING 377
SWIDTH 648 0
DWIDTH 9 0
BBX 8 13 0 0
BITMAP
04
08
00
7F
02
06
04
08
10
30
20
40
FF
ENDCHAR
STARTCHAR 017A
ENCODING 378
SWIDTH 504 0
DWIDTH 7 0
BBX 5 10 1 0
BITMAP
10
20
00
F8
18
30
20
40
80
F8
ENDCHAR
STARTCHAR 017B
ENCODING 379
SWIDTH 648 0
DWIDTH 9 0
BBX 8 12 0 0
BITMAP
08
00
7F
02
06
04
08
10
30
20
40
FF
ENDCHAR
STARTCHAR 017C
ENCODING 380
SWIDTH 504 0
DWIDTH 7 0
BBX 5 10 1 0
BITMAP
20
00
00
F8
18
30
20
40
80
F8
ENDCHAR
STARTCHAR 017D
ENCODING 381
SWIDTH 648 0
DWIDTH 9 0
BBX 8 13 0 0
BITMAP
24
18
00
7F
02
06
04
08
10
30
20
40
FF
ENDCHAR
STARTCHAR 017E
ENCODING 382
SWIDTH 504 0
DWIDTH 7 0
BBX 5 10 1 0
BITMAP
90
60
00
F8
18
30
20
40
80
F8
ENDCHAR
STARTCHAR 017F
ENCODING 383
SWIDTH 216 0
DWIDTH 3 0
BBX 3 10 1 0
BITMAP
E0
80
80
80
80
80
80
80
80
80
ENDCHAR
STARTCHAR 0180
ENCODING 384
SWIDTH 576 0
DWIDTH 8 0
BBX 7 10 0 0
BITMAP
40
F0
40
5C
66
42
42
42
66
5C
ENDCHAR
STARTCHAR 0181
ENCODING 385
SWIDTH 792 0
DWIDTH 11 0
BBX 10 10 0 0
BITMAP
7F00
B080
B080
3080
3F00
3080
30C0
30C0
3080
3F00
ENDCHAR
STARTCHAR 0182
ENCODING 386
SWIDTH 648 0
DWIDTH 9 0
BBX 8 10 1 0
BITMAP
FE
80
80
80
FC
82
83
83
82
FC
ENDCHAR
STARTCHAR 0183
ENCODING 387
SWIDTH 576 0
DWIDTH 8 0
BBX 6 10 1 0
BITMAP
F8
80
80
B8
CC
84
84
84
CC
B8
ENDCHAR
STARTCHAR 0184
ENCODING 388
SWIDTH 648 0
DWIDTH 9 0
BBX 9 10 0 0
BITMAP
4000
C000
4000
4000
7E00
4100
4180
4180
4100
7E00
ENDCHAR
STARTCHAR 0185
ENCODING 389
SWIDTH 576 0
DWIDTH 8 0
BBX 7 10 0 0
BITMAP
40
C0
40
5C
66
42
42
42
66
5C
ENDCHAR
STARTCHAR 0186
ENCODING 390
SWIDTH 720 0
DWIDTH 10 0
BBX 8 10 1 0
BITMAP
3C
C6
83
01
01
01
01
81
C2
7C
ENDCHAR
STARTCHAR 0187
ENCODING 391
SWIDTH 720 0
DWIDTH 10 0
BBX 10 11 1 0
BITMAP
00C0
3F80
6300
C100
8000
8000
8000
8000
C180
6300
3E00
ENDCHAR
STARTCHAR 0188
ENCODING 392
SWIDTH 504 0
DWIDTH 7 0
BBX 7 8 1 0
BITMAP
06
7C
8C
80
80
80
8C
78
ENDCHAR
STARTCHAR 0189
ENCODING 393
SWIDTH 720 0
DWIDTH 10 0
BBX 9 10 0 0
BITMAP
7E00
4300
4080
4080
F880
4080
4080
4180
4300
7E00
ENDCHAR
STARTCHAR 018A
ENCODING 394
SWIDTH 792 0
DWIDTH 11 0
BBX 11 10 0 0
BITMAP
7F00
B0C0
B040
3060
3060
3060
3040
3040
3080
3F00
ENDCHAR
STARTCHAR 018B
ENCODING 395
SWIDTH 648 0
DWIDTH 9 0
BBX 7 10 1 0
BITMAP
7E
02
02
02
7E
82
82
82
82
7E
ENDCHAR
STARTCHAR 018C
ENCODING 396
SWIDTH 576 0
DWIDTH 8 0
BBX 6 10 1 0
BITMAP
7C
04
04
74
8C
8C
84
84
8C
74
ENDCHAR
STARTCHAR 018D
ENCODING 397
SWIDTH 576 0
DWIDTH 8 0
BBX 6 10 1 -3
BITMAP
78
8C
84
84
84
8C
78
30
18
FC
ENDCHAR
STARTCHAR 018E
ENCODING 398
SWIDTH 648 0
DWIDTH 9 0
BBX 7 10 1 0
BITMAP
FE
02
02
02
FE
02
02
02
02
FE
ENDCHAR
STARTCHAR 018F
ENCODING 399
SWIDTH 792 0
DWIDTH 11 0
BBX 9 10 1 0
BITMAP
3E00
6300
C100
0180
FF80
8080
8180
C100
4300
3E00
ENDCHAR
STARTCHAR 0190
ENCODING 400
SWIDTH 576 0
DWIDTH 8 0
BBX 7 10 1 0
BITMAP
78
C4
86
C0
30
C0
80
82
C4
78
ENDCHAR
STARTCHAR 0191
ENCODING 401
SWIDTH 648 0
DWIDTH 9 0
BBX 8 13 0 -3
BITMAP
7F
40
40
40
40
7F
40
40
40
40
40
40
C0
ENDCHAR
STARTCHAR 0192
ENCODING 402
SWIDTH 576 0
DWIDTH 8 0
BBX 5 13 1 -3
BITMAP
18
10
30
78
20
20
20
60
40
40
40
40
C0
ENDCHAR
STARTCHAR 0193
ENCODING 403
SWIDTH 792 0
DWIDTH 11 0
BBX 10 11 1 0
BITMAP
00C0
3E80
6380
C180
8000
8000
8780
8080
C080
6180
3E00
ENDCHAR
STARTCHAR 0194
ENCODING 404
SWIDTH 648 0
DWIDTH 9 0
BBX 8 13 0 -3
BITMAP
C1
41
43
22
26
34
14
18
08
14
14
14
1C
ENDCHAR
STARTCHAR 0195
ENCODING 405
SWIDTH 864 0
DWIDTH 12 0
BBX 10 10 1 0
BITMAP
8000
8000
8000
B840
C440
8440
8440
8440
8440
8380
ENDCHAR
STARTCHAR 0196
ENCODING 406
SWIDTH 216 0
DWIDTH 3 0
BBX 1 10 1 0
BITMAP
80
80
80
80
80
80
80
80
80
80
ENDCHAR
STARTCHAR 0197
ENCODING 407
SWIDTH 288 0
DWIDTH 4 0
BBX 4 10 0 0
BITMAP
60
60
60
60
60
F0
60
60
60
60
ENDCHAR
STARTCHAR 0198
ENCODING 408
SWIDTH 648 0
DWIDTH 9 0
BBX 8 10 1 0
BITMAP
62
C4
88
90
B0
D0
88
84
86
83
ENDCHAR
STARTCHAR 0199
ENCODING 409
SWIDTH 504 0
DWIDTH 7 0
BBX 6 10 1 0
BITMAP
E0
80
80
88
90
A0
E0
90
98
8C
ENDCHAR
STARTCHAR 019A
ENCODING 410
SWIDTH 216 0
DWIDTH 3 0
BBX 3 10 0 0
BITMAP
40
40
40
40
40
E0
40
40
40
40
ENDCHAR
STARTCHAR 019B
ENCODING 411
SWIDTH 504 0
DWIDTH 7 0
BBX 7 10 0 0
BITMAP
20
38
70
10
18
28
28
64
44
C6
ENDCHAR
STARTCHAR 019C
ENCODING 412
SWIDTH 864 0
DWIDTH 12 0
BBX 10 10 1 0
BITMAP
8440
8440
8440
8440
8440
8440
8440
8C40
CCC0
73C0
ENDCHAR
STARTCHAR 019D
ENCODING 413
SWIDTH 720 0
DWIDTH 10 0
BBX 9 13 0 -3
BITMAP
6080
7080
5080
5880
4880
4480
4680
4280
4380
4180
4000
4000
C000
ENDCHAR
STARTCHAR 019E
ENCODING 414
SWIDTH 576 0
DWIDTH 8 0
BBX 6 10 1 -3
BITMAP
B8
CC
84
84
84
84
84
04
04
04
ENDCHAR
STARTCHAR 019F
ENCODING 415
SWIDTH 792 0
DWIDTH 11 0
BBX 9 10 1 0
BITMAP
3E00
6300
C180
8080
FF80
8080
8080
C180
6300
3E00
ENDCHAR
STARTCHAR 01A0
ENCODING 416
SWIDTH 864 0
DWIDTH 12 0
BBX 11 10 1 0
BITMAP
3E60
6320
C1C0
8080
8080
8080
8080
C180
6300
3E00
ENDCHAR
STARTCHAR 01A1
ENCODING 417
SWIDTH 648 0
DWIDTH 9 0
BBX 8 7 1 0
BITMAP
7B
8D
86
84
84
8C
78
ENDCHAR
STARTCHAR 01A2
ENCODING 418
SWIDTH 864 0
DWIDTH 12 0
BBX 10 13 1 -3
BITMAP
3FC0
6240
C240
8240
8240
8240
8240
C240
6240
3E40
0040
0040
0040
ENDCHAR
STARTCHAR 01A3
ENCODING 419
SWIDTH 648 0
DWIDTH 9 0
BBX 7 10 1 -3
BITMAP
7E
8A
8A
8A
8A
8A
7A
02
02
02
ENDCHAR
STARTCHAR 01A4
ENCODING 420
SWIDTH 792 0
DWIDTH 11 0
BBX 10 10 0 0
BITMAP
7F00
B080
B0C0
30C0
3080
3F00
3000
3000
3000
3000
ENDCHAR
STARTCHAR 01A5
ENCODING 421
SWIDTH 576 0
DWIDTH 8 0
BBX 6 13 1 -3
BITMAP
E0
80
80
B8
CC
84
84
84
CC
B8
80
80
80
ENDCHAR
STARTCHAR 01A6
ENCODING 422
SWIDTH 648 0
DWIDTH 9 0
BBX 8 12 1 -2
BITMAP
80
FC
82
83
83
82
FC
8C
84
86
02
03
ENDCHAR
STARTCHAR 01A7
ENCODING 423
SWIDTH 648 0
DWIDTH 9 0
BBX 8 10 1 0
BITMAP
7C
C2
82
06
3C
E0
80
83
C6
7C
ENDCHAR
STARTCHAR 01A8
ENCODING 424
SWIDTH 504 0
DWIDTH 7 0
BBX 5 7 1 0
BITMAP
78
88
08
F0
80
88
F0
ENDCHAR
STARTCHAR 01A9
ENCODING 425
SWIDTH 648 0
DWIDTH 9 0
BBX 7 10 1 0
BITMAP
FE
C0
60
30
10
10
20
40
80
FE
ENDCHAR
STARTCHAR 01AA
ENCODING 426
SWIDTH 360 0
DWIDTH 5 0
BBX 5 13 0 -3
BITMAP
60
B0
70
30
30
30
30
30
30
30
30
30
18
ENDCHAR
STARTCHAR 01AB
ENCODING 427
SWIDTH 288 0
DWIDTH 4 0
BBX 4 12 0 -3
BITMAP
40
40
F0
40
40
40
40
40
70
10
10
60
ENDCHAR
STARTCHAR 01AC
ENCODING 428
SWIDTH 648 0
DWIDTH 9 0
BBX 8 10 0 0
BITMAP
7F
88
88
08
08
08
08
08
08
08
ENDCHAR
STARTCHAR 01AD
ENCODING 429
SWIDTH 288 0
DWIDTH 4 0
BBX 4 10 0 0
BITMAP
30
40
40
F0
40
40
40
40
40
70
ENDCHAR
STARTCHAR 01AE
ENCODING 430
SWIDTH 648 0
DWIDTH 9 0
BBX 8 13 0 -3
BITMAP
FF
08
08
08
08
08
08
08
08
08
08
08
0C
ENDCHAR
STARTCHAR 01AF
ENCODING 431
SWIDTH 864 0
DWIDTH 12 0
BBX 10 10 1 0
BITMAP
8140
8140
8140
8180
8100
8100
8100
C300
4200
3C00
ENDCHAR
STARTCHAR 01B0
ENCODING 432
SWIDTH 648 0
DWIDTH 9 0
BBX 8 7 1 0
BITMAP
85
85
85
86
84
8C
74
ENDCHAR
STARTCHAR 01B1
ENCODING 433
SWIDTH 720 0
DWIDTH 10 0
BBX 9 10 1 0
BITMAP
F780
3600
4300
C100
8180
8180
8180
C100
4300
3E00
ENDCHAR
STARTCHAR 01B2
ENCODING 434
SWIDTH 720 0
DWIDTH 10 0
BBX 8 10 1 0
BITMAP
86
83
81
81
81
81
83
C2
46
3C
ENDCHAR
STARTCHAR 01B3
ENCODING 435
SWIDTH 792 0
DWIDTH 11 0
BBX 9 10 1 0
BITMAP
8380
C200
4400
2C00
3800
1800
1000
1000
1000
1000
ENDCHAR
STARTCHAR 01B4
ENCODING 436
SWIDTH 504 0
DWIDTH 7 0
BBX 10 13 0 -3
BITMAP
01C0
0200
0200
C600
4400
4400
6800
2800
2800
1000
1000
2000
E000
ENDCHAR
STARTCHAR 01B5
ENCODING 437
SWIDTH 648 0
DWIDTH 9 0
BBX 8 10 0 0
BITMAP
7F
02
06
0C
FF
10
30
60
40
FF
ENDCHAR
STARTCHAR 01B6
ENCODING 438
SWIDTH 504 0
DWIDTH 7 0
BBX 7 7 0 0
BITMAP
7C
0C
18
FE
20
40
FE
ENDCHAR
STARTCHAR 01B7
ENCODING 439
SWIDTH 648 0
DWIDTH 9 0
BBX 7 13 1 -3
BITMAP
FE
04
08
18
30
38
04
06
02
02
82
84
78
ENDCHAR
STARTCHAR 01B8
ENCODING 440
SWIDTH 648 0
DWIDTH 9 0
BBX 7 13 1 -3
BITMAP
FE
C0
60
20
10
78
C0
80
80
80
82
C6
7C
ENDCHAR
STARTCHAR 01B9
ENCODING 441
SWIDTH 576 0
DWIDTH 8 0
BBX 6 10 1 -3
BITMAP
FC
C0
60
30
70
80
80
80
C4
78
ENDCHAR
STARTCHAR 01BA
ENCODING 442
SWIDTH 576 0
DWIDTH 8 0
BBX 6 10 1 -3
BITMAP
FC
18
30
38
08
08
70
80
8C
F8
ENDCHAR
STARTCHAR 01BB
ENCODING 443
SWIDTH 576 0
DWIDTH 8 0
BBX 6 10 1 0
BITMAP
78
CC
84
04
08
FC
20
40
80
FC
ENDCHAR
STARTCHAR 01BC
ENCODING 444
SWIDTH 576 0
DWIDTH 8 0
BBX 6 10 1 0
BITMAP
FC
40
40
78
0C
04
04
84
8C
78
ENDCHAR
STARTCHAR 01BD
ENCODING 445
SWIDTH 432 0
DWIDTH 6 0
BBX 6 7 0 0
BITMAP
FC
20
38
0C
04
4C
78
ENDCHAR
STARTCHAR 01BE
ENCODING 446
SWIDTH 504 0
DWIDTH 7 0
BBX 6 10 0 0
BITMAP
40
40
40
F0
40
60
38
04
44
7C
ENDCHAR
STARTCHAR 01BF
ENCODING 447
SWIDTH 576 0
DWIDTH 8 0
BBX 6 10 1 -3
BITMAP
B8
CC
84
84
84
88
B0
C0
80
80
ENDCHAR
STARTCHAR 01C0
ENCODING 448
SWIDTH 288 0
DWIDTH 4 0
BBX 1 10 1 0
BITMAP
80
80
80
80
80
80
80
80
80
80
ENDCHAR
STARTCHAR 01C1
ENCODING 449
SWIDTH 432 0
DWIDTH 6 0
BBX 4 10 1 0
BITMAP
B0
B0
B0
B0
B0
B0
B0
B0
B0
B0
ENDCHAR
STARTCHAR 01C2
ENCODING 450
SWIDTH 576 0
DWIDTH 8 0
BBX 6 10 1 0
BITMAP
30
30
30
FC
30
30
FC
30
30
30
ENDCHAR
STARTCHAR 01C3
ENCODING 451
SWIDTH 288 0
DWIDTH 4 0
BBX 2 10 1 0
BITMAP
C0
C0
C0
C0
C0
80
80
00
00
C0
ENDCHAR
STARTCHAR 01C4
ENCODING 452
SWIDTH 1368 0
DWIDTH 19 0
BBX 17 13 1 0
BITMAP
001200
000C00
000000
FC3F80
860100
810300
810200
810400
810800
811800
831000
862000
FC7F80
ENDCHAR
STARTCHAR 01C5
ENCODING 453
SWIDTH 1224 0
DWIDTH 17 0
BBX 15 10 1 0
BITMAP
FC24
8618
8100
813E
8106
810C
8108
8310
8620
FC3E
ENDCHAR
STARTCHAR 01C6
ENCODING 454
SWIDTH 1080 0
DWIDTH 15 0
BBX 13 10 1 0
BITMAP
0490
0460
0400
74F8
8C18
8430
8420
8440
8C80
74F8
ENDCHAR
STARTCHAR 01C7
ENCODING 455
SWIDTH 1080 0
DWIDTH 15 0
BBX 13 10 1 0
BITMAP
8038
8008
8008
8008
8008
8008
8008
8188
8098
FCF0
ENDCHAR
STARTCHAR 01C8
ENCODING 456
SWIDTH 864 0
DWIDTH 12 0
BBX 10 13 1 -3
BITMAP
8040
8000
8000
8040
8040
8040
8040
8040
8040
FC40
0040
0040
00C0
ENDCHAR
STARTCHAR 01C9
ENCODING 457
SWIDTH 432 0
DWIDTH 6 0
BBX 4 13 1 -3
BITMAP
90
80
80
90
90
90
90
90
90
90
10
10
30
ENDCHAR
STARTCHAR 01CA
ENCODING 458
SWIDTH 1224 0
DWIDTH 17 0
BBX 15 10 1 0
BITMAP
C10E
E102
A102
B102
9102
8902
8D02
8562
8726
833C
ENDCHAR
STARTCHAR 01CB
ENCODING 459
SWIDTH 936 0
DWIDTH 13 0
BBX 11 13 1 -3
BITMAP
C120
E100
A100
B120
9120
8920
8D20
8520
8720
8320
0020
0020
0060
ENDCHAR
STARTCHAR 01CC
ENCODING 460
SWIDTH 792 0
DWIDTH 11 0
BBX 9 13 1 -3
BITMAP
0080
0000
0000
B880
CC80
8480
8480
8480
8480
8480
0080
0080
0180
ENDCHAR
STARTCHAR 01CD
ENCODING 461
SWIDTH 648 0
DWIDTH 9 0
BBX 9 13 0 0
BITMAP
2400
1800
0000
0C00
1C00
1400
1200
2200
2300
7F00
4100
4180
C080
ENDCHAR
STARTCHAR 01CE
ENCODING 462
SWIDTH 576 0
DWIDTH 8 0
BBX 7 10 1 0
BITMAP
48
30
00
78
8C
0C
7C
8C
8C
F6
ENDCHAR
STARTCHAR 01CF
ENCODING 463
SWIDTH 288 0
DWIDTH 4 0
BBX 4 13 0 0
BITMAP
90
60
00
60
60
60
60
60
60
60
60
60
60
ENDCHAR
STARTCHAR 01D0
ENCODING 464
SWIDTH 216 0
DWIDTH 3 0
BBX 4 10 -1 0
BITMAP
90
60
00
20
20
20
20
20
20
20
ENDCHAR
STARTCHAR 01D1
ENCODING 465
SWIDTH 792 0
DWIDTH 11 0
BBX 9 13 1 0
BITMAP
2400
1800
0000
3E00
6300
C180
8080
8080
8080
8080
C180
6300
3E00
ENDCHAR
STARTCHAR 01D2
ENCODING 466
SWIDTH 576 0
DWIDTH 8 0
BBX 6 10 1 0
BITMAP
48
30
00
78
8C
84
84
84
8C
78
ENDCHAR
STARTCHAR 01D3
ENCODING 467
SWIDTH 720 0
DWIDTH 10 0
BBX 8 13 1 0
BITMAP
24
18
00
81
81
81
81
81
81
81
C3
42
3C
ENDCHAR
STARTCHAR 01D4
ENCODING 468
SWIDTH 576 0
DWIDTH 8 0
BBX 6 10 1 0
BITMAP
48
30
00
84
84
84
84
84
8C
74
ENDCHAR
STARTCHAR 01D5
ENCODING 469
SWIDTH 720 0
DWIDTH 10 0
BBX 8 14 1 0
BITMAP
3C
00
24
00
81
81
81
81
81
81
81
C3
42
3C
ENDCHAR
STARTCHAR 01D6
ENCODING 470
SWIDTH 576 0
DWIDTH 8 0
BBX 6 10 1 0
BITMAP
78
48
00
84
84
84
84
84
8C
74
ENDCHAR
STARTCHAR 01D7
ENCODING 471
SWIDTH 720 0
DWIDTH 10 0
BBX 8 13 1 0
BITMAP
08
24
00
81
81
81
81
81
81
81
C3
42
3C
ENDCHAR
STARTCHAR 01D8
ENCODING 472
SWIDTH 576 0
DWIDTH 8 0
BBX 6 12 1 0
BITMAP
08
10
00
48
00
84
84
84
84
84
8C
74
ENDCHAR
STARTCHAR 01D9
ENCODING 473
SWIDTH 720 0
DWIDTH 10 0
BBX 8 13 1 0
BITMAP
18
24
00
81
81
81
81
81
81
81
C3
42
3C
ENDCHAR
STARTCHAR 01DA
ENCODING 474
SWIDTH 576 0
DWIDTH 8 0
BBX 6 12 1 0
BITMAP
48
30
00
48
00
84
84
84
84
84
8C
74
ENDCHAR
STARTCHAR 01DB
ENCODING 475
SWIDTH 720 0
DWIDTH 10 0
BBX 8 13 1 0
BITMAP
10
24
00
81
81
81
81
81
81
81
C3
42
3C
ENDCHAR
STARTCHAR 01DC
ENCODING 476
SWIDTH 576 0
DWIDTH 8 0
BBX 6 12 1 0
BITMAP
60
20
00
48
00
84
84
84
84
84
8C
74
ENDCHAR
STARTCHAR 01DD
ENCODING 477
SWIDTH 576 0
DWIDTH 8 0
BBX 6 7 1 0
BITMAP
78
8C
04
FC
84
8C
78
ENDCHAR
STARTCHAR 01DE
ENCODING 478
SWIDTH 648 0
DWIDTH 9 0
BBX 9 14 0 0
BITMAP
1E00
0000
1200
0000
0C00
1C00
1400
1200
2200
2300
7F00
4100
4180
C080
ENDCHAR
STARTCHAR 01DF
ENCODING 479
SWIDTH 576 0
DWIDTH 8 0
BBX 7 11 1 0
BITMAP
78
00
48
00
78
8C
0C
7C
8C
8C
F6
ENDCHAR
STARTCHAR 01E0
ENCODING 480
SWIDTH 648 0
DWIDTH 9 0
BBX 9 14 0 0
BITMAP
1E00
0000
0C00
0000
0C00
1C00
1400
1200
2200
2300
7F00
4100
4180
C080
ENDCHAR
STARTCHAR 01E1
ENCODING 481
SWIDTH 576 0
DWIDTH 8 0
BBX 7 11 1 0
BITMAP
78
00
20
00
78
8C
0C
7C
8C
8C
F6
ENDCHAR
STARTCHAR 01E2
ENCODING 482
SWIDTH 1008 0
DWIDTH 14 0
BBX 13 12 0 0
BITMAP
01E0
0000
07F8
0900
0900
1100
11F8
3100
3F00
6100
4100
C1F8
ENDCHAR
STARTCHAR 01E3
ENCODING 483
SWIDTH 864 0
DWIDTH 12 0
BBX 12 9 0 0
BITMAP
0F00
0000
3DE0
4620
0630
7FF0
4600
C630
79E0
ENDCHAR
STARTCHAR 01E4
ENCODING 484
SWIDTH 792 0
DWIDTH 11 0
BBX 10 10 1 0
BITMAP
3E00
6300
C180
8000
8000
8780
8080
C7C0
6180
3E00
ENDCHAR
STARTCHAR 01E5
ENCODING 485
SWIDTH 576 0
DWIDTH 8 0
BBX 7 10 1 -3
BITMAP
74
8C
84
84
8C
F4
04
3E
8C
78
ENDCHAR
STARTCHAR 01E6
ENCODING 486
SWIDTH 792 0
DWIDTH 11 0
BBX 9 13 1 0
BITMAP
2400
1800
0000
3E00
6300
C180
8000
8000
8780
8080
C080
6180
3E00
ENDCHAR
STARTCHAR 01E7
ENCODING 487
SWIDTH 576 0
DWIDTH 8 0
BBX 6 13 1 -3
BITMAP
90
60
00
74
8C
84
84
84
8C
74
04
8C
78
ENDCHAR
STARTCHAR 01E8
ENCODING 488
SWIDTH 648 0
DWIDTH 9 0
BBX 8 13 1 0
BITMAP
48
30
00
82
84
88
90
B0
D0
88
84
86
83
ENDCHAR
STARTCHAR 01E9
ENCODING 489
SWIDTH 504 0
DWIDTH 7 0
BBX 6 13 1 0
BITMAP
90
60
00
80
80
80
88
90
A0
E0
90
98
8C
ENDCHAR
STARTCHAR 01EA
ENCODING 490
SWIDTH 792 0
DWIDTH 11 0
BBX 9 14 1 -4
BITMAP
3E00
6300
C180
8080
8080
8080
8080
C180
6300
3E00
0800
0800
0800
0C00
ENDCHAR
STARTCHAR 01EB
ENCODING 491
SWIDTH 576 0
DWIDTH 8 0
BBX 6 11 1 -4
BITMAP
78
8C
84
84
84
8C
78
10
10
10
18
ENDCHAR
STARTCHAR 01EC
ENCODING 492
SWIDTH 792 0
DWIDTH 11 0
BBX 9 16 1 -4
BITMAP
3C00
0000
3E00
6300
C180
8080
8080
8080
8080
C180
6300
3E00
0800
0800
0800
0C00
ENDCHAR
STARTCHAR 01ED
ENCODING 493
SWIDTH 576 0
DWIDTH 8 0
BBX 6 13 1 -4
BITMAP
78
00
78
8C
84
84
84
8C
78
10
10
10
18
ENDCHAR
STARTCHAR 01EE
ENCODING 494
SWIDTH 648 0
DWIDTH 9 0
BBX 7 16 1 -3
BITMAP
48
30
00
FE
04
08
18
30
38
04
06
02
02
82
84
78
ENDCHAR
STARTCHAR 01EF
ENCODING 495
SWIDTH 576 0
DWIDTH 8 0
BBX 6 13 1 -3
BITMAP
48
30
00
FC
0C
18
30
38
0C
04
84
8C
78
ENDCHAR
STARTCHAR 01F0
ENCODING 496
SWIDTH 216 0
DWIDTH 3 0
BBX 4 13 -1 -3
BITMAP
90
60
00
20
20
20
20
20
20
20
20
20
60
ENDCHAR
STARTCHAR 01F1
ENCODING 497
SWIDTH 1368 0
DWIDTH 19 0
BBX 17 10 1 0
BITMAP
FC3F80
860100
810300
810200
810400
810800
811800
831000
862000
FC7F80
ENDCHAR
STARTCHAR 01F2
ENCODING 498
SWIDTH 1224 0
DWIDTH 17 0
BBX 15 10 1 0
BITMAP
FC00
8600
8100
813E
8106
810C
8108
8310
8620
FC3E
ENDCHAR
STARTCHAR 01F3
ENCODING 499
SWIDTH 1080 0
DWIDTH 15 0
BBX 13 10 1 0
BITMAP
0400
0400
0400
74F8
8C18
8430
8420
8440
8C80
74F8
ENDCHAR
STARTCHAR 01F4
ENCODING 500
SWIDTH 792 0
DWIDTH 11 0
BBX 9 13 1 0
BITMAP
0400
0800
0000
3E00
6300
C180
8000
8000
8780
8080
C080
6180
3E00
ENDCHAR
STARTCHAR 01F5
ENCODING 501
SWIDTH 576 0
DWIDTH 8 0
BBX 6 13 1 -3
BITMAP
10
20
00
74
8C
84
84
84
8C
74
04
8C
78
ENDCHAR
STARTCHAR 01F6
ENCODING 502
SWIDTH 1008 0
DWIDTH 14 0
BBX 13 10 1 0
BITMAP
8100
8100
8100
8118
FF18
8118
8118
8118
8110
80F0
ENDCHAR
STARTCHAR 01F7
ENCODING 503
SWIDTH 648 0
DWIDTH 9 0
BBX 7 13 1 -3
BITMAP
BC
C6
C2
82
82
86
84
8C
88
B0
E0
80
80
ENDCHAR
STARTCHAR 01F8
ENCODING 504
SWIDTH 720 0
DWIDTH 10 0
BBX 8 13 1 0
BITMAP
30
10
00
C1
E1
A1
B1
91
89
8D
85
87
83
ENDCHAR
STARTCHAR 01F9
ENCODING 505
SWIDTH 576 0
DWIDTH 8 0
BBX 6 10 1 0
BITMAP
60
20
00
B8
CC
84
84
84
84
84
ENDCHAR
STARTCHAR 01FA
ENCODING 506
SWIDTH 648 0
DWIDTH 9 0
BBX 9 13 0 0
BITMAP
0400
0800
1C00
1400
0C00
1400
1600
3200
2200
3F00
4100
4180
C080
ENDCHAR
STARTCHAR 01FB
ENCODING 507
SWIDTH 576 0
DWIDTH 8 0
BBX 7 12 1 0
BITMAP
10
20
00
30
48
78
8C
0C
7C
8C
8C
F6
ENDCHAR
STARTCHAR 01FC
ENCODING 508
SWIDTH 1008 0
DWIDTH 14 0
BBX 13 13 0 0
BITMAP
0040
0080
0000
07F8
0900
0900
1100
11F8
3100
3F00
6100
4100
C1F8
ENDCHAR
STARTCHAR 01FD
ENCODING 509
SWIDTH 864 0
DWIDTH 12 0
BBX 12 10 0 0
BITMAP
0100
0200
0000
3DE0
4620
0630
7FF0
4600
C630
79E0
ENDCHAR
STARTCHAR 01FE
ENCODING 510
SWIDTH 792 0
DWIDTH 11 0
BBX 9 13 1 0
BITMAP
0400
0800
0000
3F80
6300
C380
8480
8C80
9880
9080
E180
6300
BE00
ENDCHAR
STARTCHAR 01FF
ENCODING 511
SWIDTH 648 0
DWIDTH 9 0
BBX 7 10 1 0
BITMAP
08
10
00
7A
C4
8E
96
A6
C4
F8
ENDCHAR
STARTCHAR 0200
ENCODING 512
SWIDTH 648 0
DWIDTH 9 0
BBX 9 13 0 0
BITMAP
2C00
1400
0000
0C00
1C00
1400
1200
2200
2300
7F00
4100
4180
C080
ENDCHAR
STARTCHAR 0201
ENCODING 513
SWIDTH 576 0
DWIDTH 8 0
BBX 7 10 1 0
BITMAP
B0
50
00
78
8C
0C
7C
8C
8C
F6
ENDCHAR
STARTCHAR 0202
ENCODING 514
SWIDTH 648 0
DWIDTH 9 0
BBX 9 13 0 0
BITMAP
0C00
1200
0000
0C00
1C00
1400
1200
2200
2300
7F00
4100
4180
C080
ENDCHAR
STARTCHAR 0203
ENCODING 515
SWIDTH 576 0
DWIDTH 8 0
BBX 7 10 1 0
BITMAP
30
48
00
78
8C
0C
7C
8C
8C
F6
ENDCHAR
STARTCHAR 0204
ENCODING 516
SWIDTH 648 0
DWIDTH 9 0
BBX 8 13 1 0
BITMAP
58
28
00
FE
80
80
80
FE
80
80
80
80
FF
ENDCHAR
STARTCHAR 0205
ENCODING 517
SWIDTH 576 0
DWIDTH 8 0
BBX 6 10 1 0
BITMAP
B0
50
00
78
8C
84
FC
80
84
78
ENDCHAR
STARTCHAR 0206
ENCODING 518
SWIDTH 648 0
DWIDTH 9 0
BBX 8 13 1 0
BITMAP
18
24
00
FE
80
80
80
FE
80
80
80
80
FF
ENDCHAR
STARTCHAR 0207
ENCODING 519
SWIDTH 576 0
DWIDTH 8 0
BBX 6 10 1 0
BITMAP
30
48
00
78
8C
84
FC
80
84
78
ENDCHAR
STARTCHAR 0208
ENCODING 520
SWIDTH 288 0
DWIDTH 4 0
BBX 4 13 0 0
BITMAP
B0
50
00
60
60
60
60
60
60
60
60
60
60
ENDCHAR
STARTCHAR 0209
ENCODING 521
SWIDTH 288 0
DWIDTH 4 0
BBX 4 10 -1 0
BITMAP
B0
50
00
30
30
30
30
30
30
30
ENDCHAR
STARTCHAR 020A
ENCODING 522
SWIDTH 288 0
DWIDTH 4 0
BBX 4 13 0 0
BITMAP
60
90
00
60
60
60
60
60
60
60
60
60
60
ENDCHAR
STARTCHAR 020B
ENCODING 523
SWIDTH 288 0
DWIDTH 4 0
BBX 4 10 0 0
BITMAP
60
90
00
60
60
60
60
60
60
60
ENDCHAR
STARTCHAR 020C
ENCODING 524
SWIDTH 792 0
DWIDTH 11 0
BBX 9 13 1 0
BITMAP
2C00
1400
0000
3E00
6300
C180
8080
8080
8080
8080
C180
6300
3E00
ENDCHAR
STARTCHAR 020D
ENCODING 525
SWIDTH 576 0
DWIDTH 8 0
BBX 6 10 1 0
BITMAP
B0
50
00
78
8C
84
84
84
8C
78
ENDCHAR
STARTCHAR 020E
ENCODING 526
SWIDTH 792 0
DWIDTH 11 0
BBX 9 13 1 0
BITMAP
1800
2400
0000
3E00
6300
C180
8080
8080
8080
8080
C180
6300
3E00
ENDCHAR
STARTCHAR 020F
ENCODING 527
SWIDTH 576 0
DWIDTH 8 0
BBX 6 10 1 0
BITMAP
30
48
00
78
8C
84
84
84
8C
78
ENDCHAR
STARTCHAR 0210
ENCODING 528
SWIDTH 720 0
DWIDTH 10 0
BBX 8 13 1 0
BITMAP
58
28
00
FE
83
81
81
83
FE
84
86
82
81
ENDCHAR
STARTCHAR 0211
ENCODING 529
SWIDTH 360 0
DWIDTH 5 0
BBX 4 10 0 0
BITMAP
B0
50
00
50
60
40
40
40
40
40
ENDCHAR
STARTCHAR 0212
ENCODING 530
SWIDTH 720 0
DWIDTH 10 0
BBX 8 13 1 0
BITMAP
18
24
00
FE
83
81
81
83
FE
84
86
82
81
ENDCHAR
STARTCHAR 0213
ENCODING 531
SWIDTH 360 0
DWIDTH 5 0
BBX 4 10 1 0
BITMAP
60
90
00
A0
C0
80
80
80
80
80
ENDCHAR
STARTCHAR 0214
ENCODING 532
SWIDTH 720 0
DWIDTH 10 0
BBX 8 13 1 0
BITMAP
2C
14
00
81
81
81
81
81
81
81
C3
42
3C
ENDCHAR
STARTCHAR 0215
ENCODING 533
SWIDTH 576 0
DWIDTH 8 0
BBX 6 10 1 0
BITMAP
B0
50
00
84
84
84
84
84
8C
74
ENDCHAR
STARTCHAR 0216
ENCODING 534
SWIDTH 720 0
DWIDTH 10 0
BBX 8 13 1 0
BITMAP
18
24
00
81
81
81
81
81
81
81
C3
42
3C
ENDCHAR
STARTCHAR 0217
ENCODING 535
SWIDTH 576 0
DWIDTH 8 0
BBX 6 10 1 0
BITMAP
30
48
00
84
84
84
84
84
8C
74
ENDCHAR
STARTCHAR 0218
ENCODING 536
SWIDTH 648 0
DWIDTH 9 0
BBX 8 13 1 -3
BITMAP
7C
C2
80
C0
78
0E
03
03
82
7C
00
10
10
ENDCHAR
STARTCHAR 0219
ENCODING 537
SWIDTH 504 0
DWIDTH 7 0
BBX 5 10 1 -3
BITMAP
F8
88
80
78
08
88
F8
00
20
20
ENDCHAR
STARTCHAR 021A
ENCODING 538
SWIDTH 648 0
DWIDTH 9 0
BBX 8 13 0 -3
BITMAP
FF
08
08
08
08
08
08
08
08
08
00
08
08
ENDCHAR
STARTCHAR 021B
ENCODING 539
SWIDTH 288 0
DWIDTH 4 0
BBX 4 12 0 -3
BITMAP
40
40
F0
40
40
40
40
40
70
00
20
20
ENDCHAR
STARTCHAR 021C
ENCODING 540
SWIDTH 576 0
DWIDTH 8 0
BBX 7 13 0 -3
BITMAP
3C
C6
02
02
04
0C
36
42
02
04
0C
30
40
ENDCHAR
STARTCHAR 021D
ENCODING 541
SWIDTH 432 0
DWIDTH 6 0
BBX 6 10 0 -3
BITMAP
78
C8
0C
08
18
68
0C
08
30
40
ENDCHAR
STARTCHAR 021E
ENCODING 542
SWIDTH 720 0
DWIDTH 10 0
BBX 8 13 1 0
BITMAP
24
18
00
81
81
81
81
FF
81
81
81
81
81
ENDCHAR
STARTCHAR 021F
ENCODING 543
SWIDTH 576 0
DWIDTH 8 0
BBX 6 13 1 0
BITMAP
48
30
00
80
80
80
B8
CC
84
84
84
84
84
ENDCHAR
STARTCHAR 0220
ENCODING 544
SWIDTH 720 0
DWIDTH 10 0
BBX 8 13 1 -3
BITMAP
BE
C2
83
83
83
83
83
83
83
83
03
03
03
ENDCHAR
STARTCHAR 0221
ENCODING 545
SWIDTH 720 0
DWIDTH 10 0
BBX 9 13 1 -3
BITMAP
0400
0400
0400
7400
8C00
8400
8400
8400
8C00
7700
0D80
1D80
1700
ENDCHAR
STARTCHAR 0222
ENCODING 546
SWIDTH 576 0
DWIDTH 8 0
BBX 7 10 1 0
BITMAP
18
64
86
84
78
C4
82
82
84
78
ENDCHAR
STARTCHAR 0223
ENCODING 547
SWIDTH 576 0
DWIDTH 8 0
BBX 6 10 1 0
BITMAP
48
84
84
CC
78
84
84
84
84
78
ENDCHAR
STARTCHAR 0224
ENCODING 548
SWIDTH 648 0
DWIDTH 9 0
BBX 8 12 0 -2
BITMAP
7F
02
06
04
08
10
30
20
40
FF
01
01
ENDCHAR
STARTCHAR 0225
ENCODING 549
SWIDTH 504 0
DWIDTH 7 0
BBX 7 9 0 -2
BITMAP
7C
0C
18
10
20
40
FC
02
02
ENDCHAR
STARTCHAR 0226
ENCODING 550
SWIDTH 648 0
DWIDTH 9 0
BBX 9 12 0 0
BITMAP
0800
0000
0C00
1C00
1400
1200
2200
2300
7F00
4100
4180
C080
ENDCHAR
STARTCHAR 0227
ENCODING 551
SWIDTH 576 0
DWIDTH 8 0
BBX 7 9 1 0
BITMAP
20
00
78
8C
0C
7C
8C
8C
F6
ENDCHAR
STARTCHAR 0228
ENCODING 552
SWIDTH 648 0
DWIDTH 9 0
BBX 8 14 1 -4
BITMAP
FE
80
80
80
FE
80
80
80
80
FF
10
18
08
18
ENDCHAR
STARTCHAR 0229
ENCODING 553
SWIDTH 576 0
DWIDTH 8 0
BBX 6 11 1 -4
BITMAP
78
8C
84
FC
80
84
78
20
30
10
30
ENDCHAR
STARTCHAR 022A
ENCODING 554
SWIDTH 792 0
DWIDTH 11 0
BBX 9 14 1 0
BITMAP
3C00
0000
2400
0000
3E00
6300
C180
8080
8080
8080
8080
C180
6300
3E00
ENDCHAR
STARTCHAR 022B
ENCODING 555
SWIDTH 576 0
DWIDTH 8 0
BBX 6 11 1 0
BITMAP
78
00
48
00
78
8C
84
84
84
8C
78
ENDCHAR
STARTCHAR 022C
ENCODING 556
SWIDTH 792 0
DWIDTH 11 0
BBX 9 14 1 0
BITMAP
3C00
3400
2C00
0000
3E00
6300
C180
8080
8080
8080
8080
C180
6300
3E00
ENDCHAR
STARTCHAR 022D
ENCODING 557
SWIDTH 576 0
DWIDTH 8 0
BBX 6 12 1 0
BITMAP
78
00
64
58
00
78
8C
84
84
84
8C
78
ENDCHAR
STARTCHAR 022E
ENCODING 558
SWIDTH 792 0
DWIDTH 11 0
BBX 9 12 1 0
BITMAP
0800
0000
3E00
6300
C180
8080
8080
8080
8080
C180
6300
3E00
ENDCHAR
STARTCHAR 022F
ENCODING 559
SWIDTH 576 0
DWIDTH 8 0
BBX 6 9 1 0
BITMAP
20
00
78
8C
84
84
84
8C
78
ENDCHAR
STARTCHAR 0230
ENCODING 560
SWIDTH 792 0
DWIDTH 11 0
BBX 9 14 1 0
BITMAP
3C00
0000
1800
0000
3E00
6300
C180
8080
8080
8080
8080
C180
6300
3E00
ENDCHAR
STARTCHAR 0231
ENCODING 561
SWIDTH 576 0
DWIDTH 8 0
BBX 6 11 1 0
BITMAP
78
00
20
00
78
8C
84
84
84
8C
78
ENDCHAR
STARTCHAR 0232
ENCODING 562
SWIDTH 648 0
DWIDTH 9 0
BBX 8 12 1 0
BITMAP
78
00
83
C2
44
2C
28
18
10
10
10
10
ENDCHAR
STARTCHAR 0233
ENCODING 563
SWIDTH 504 0
DWIDTH 7 0
BBX 7 12 0 -3
BITMAP
78
00
C6
44
44
2C
28
38
10
10
20
E0
ENDCHAR
STARTCHAR 0234
ENCODING 564
SWIDTH 360 0
DWIDTH 5 0
BBX 5 13 0 -3
BITMAP
40
40
40
40
40
40
40
40
40
40
78
C8
B0
ENDCHAR
STARTCHAR 0235
ENCODING 565
SWIDTH 720 0
DWIDTH 10 0
BBX 9 9 1 -2
BITMAP
B800
CC00
8400
8400
8400
8400
8700
0D80
1700
ENDCHAR
STARTCHAR 0236
ENCODING 566
SWIDTH 360 0
DWIDTH 5 0
BBX 5 9 0 0
BITMAP
40
40
F0
40
40
40
78
C8
B8
ENDCHAR
STARTCHAR 0237
ENCODING 567
SWIDTH 216 0
DWIDTH 3 0
BBX 2 10 0 -3
BITMAP
40
40
40
40
40
40
40
40
40
C0
ENDCHAR
STARTCHAR 0238
ENCODING 568
SWIDTH 864 0
DWIDTH 12 0
BBX 11 10 1 0
BITMAP
0400
0400
0400
77C0
8C60
8460
8420
8C60
8C60
77C0
ENDCHAR
STARTCHAR 0239
ENCODING 569
SWIDTH 864 0
DWIDTH 12 0
BBX 11 10 1 -3
BITMAP
77C0
8C60
8460
8420
8C60
8C60
77C0
0400
0400
0400
ENDCHAR
STARTCHAR 023A
ENCODING 570
SWIDTH 648 0
DWIDTH 9 0
BBX 9 12 0 -1
BITMAP
0100
0D00
1E00
1600
1600
2600
2B00
7F00
5100
6180
E080
4000
ENDCHAR
STARTCHAR 023B
ENCODING 571
SWIDTH 720 0
DWIDTH 10 0
BBX 9 12 1 -1
BITMAP
0100
3E00
6300
C500
8400
8800
9800
9000
E180
6300
7E00
4000
ENDCHAR
STARTCHAR 023C
ENCODING 572
SWIDTH 504 0
DWIDTH 7 0
BBX 7 13 0 -3
BITMAP
02
04
04
3C
4C
50
50
50
66
3C
40
40
80
ENDCHAR
STARTCHAR 023D
ENCODING 573
SWIDTH 576 0
DWIDTH 8 0
BBX 7 10 0 0
BITMAP
40
40
40
40
F8
40
40
40
40
7E
ENDCHAR
STARTCHAR 023E
ENCODING 574
SWIDTH 648 0
DWIDTH 9 0
BBX 8 12 0 -1
BITMAP
01
FF
0A
0C
0C
08
18
18
28
28
48
40
ENDCHAR
STARTCHAR 023F
ENCODING 575
SWIDTH 504 0
DWIDTH 7 0
BBX 5 10 1 -3
BITMAP
F8
88
80
78
08
88
F8
40
20
18
ENDCHAR
STARTCHAR 0240
ENCODING 576
SWIDTH 504 0
DWIDTH 7 0
BBX 7 10 0 -3
BITMAP
7C
0C
18
10
20
40
E0
10
18
0E
ENDCHAR
STARTCHAR 0241
ENCODING 577
SWIDTH 576 0
DWIDTH 8 0
BBX 7 10 1 0
BITMAP
78
84
84
06
04
04
38
20
20
20
ENDCHAR
STARTCHAR 0242
ENCODING 578
SWIDTH 432 0
DWIDTH 6 0
BBX 6 7 0 0
BITMAP
78
CC
04
0C
38
30
30
ENDCHAR
STARTCHAR 0243
ENCODING 579
SWIDTH 648 0
DWIDTH 9 0
BBX 9 10 0 0
BITMAP
7E00
4300
4100
4300
7E00
4100
F980
4180
4100
7E00
ENDCHAR
STARTCHAR 0244
ENCODING 580
SWIDTH 720 0
DWIDTH 10 0
BBX 10 10 0 0
BITMAP
4080
4080
4080
4080
FFC0
4080
4080
6180
2100
1E00
ENDCHAR
STARTCHAR 0245
ENCODING 581
SWIDTH 648 0
DWIDTH 9 0
BBX 9 10 0 0
BITMAP
0C00
1C00
1400
1600
2200
2300
6100
4100
4180
C080
ENDCHAR
STARTCHAR 0246
ENCODING 582
SWIDTH 648 0
DWIDTH 9 0
BBX 8 13 1 -2
BITMAP
02
FE
84
84
88
FE
90
90
A0
A0
FF
40
40
ENDCHAR
STARTCHAR 0247
ENCODING 583
SWIDTH 576 0
DWIDTH 8 0
BBX 6 13 1 -3
BITMAP
04
04
08
78
9C
94
FC
A0
C4
78
80
80
80
ENDCHAR
STARTCHAR 0248
ENCODING 584
SWIDTH 504 0
DWIDTH 7 0
BBX 7 10 0 0
BITMAP
1C
04
04
04
1E
04
04
C4
4C
78
ENDCHAR
STARTCHAR 0249
ENCODING 585
SWIDTH 216 0
DWIDTH 3 0
BBX 3 13 0 -3
BITMAP
40
00
00
40
40
40
E0
40
40
40
40
40
C0
ENDCHAR
STARTCHAR 024A
ENCODING 586
SWIDTH 720 0
DWIDTH 10 0
BBX 10 13 1 -3
BITMAP
3F00
6300
C100
8100
8100
8100
8100
C100
6300
3F00
0100
0100
01C0
ENDCHAR
STARTCHAR 024B
ENCODING 587
SWIDTH 576 0
DWIDTH 8 0
BBX 7 10 1 -3
BITMAP
74
8C
84
84
84
8C
74
04
04
06
ENDCHAR
STARTCHAR 024C
ENCODING 588
SWIDTH 720 0
DWIDTH 10 0
BBX 9 10 0 0
BITMAP
7F00
4180
4080
4080
4180
FF00
4200
4300
4100
4080
ENDCHAR
STARTCHAR 024D
ENCODING 589
SWIDTH 360 0
DWIDTH 5 0
BBX 4 7 0 0
BITMAP
50
60
40
E0
40
40
40
ENDCHAR
STARTCHAR 024E
ENCODING 590
SWIDTH 648 0
DWIDTH 9 0
BBX 9 10 0 0
BITMAP
4180
6100
FF80
3200
1400
0C00
0800
0800
0800
0800
ENDCHAR
STARTCHAR 024F
ENCODING 591
SWIDTH 504 0
DWIDTH 7 0
BBX 7 10 0 -3
BITMAP
C6
44
FE
28
28
38
10
10
20
E0
ENDCHAR
STARTCHAR 0250
ENCODING 592
SWIDTH 576 0
DWIDTH 8 0
BBX 7 7 0 0
BITMAP
DE
62
42
7C
40
66
3C
ENDCHAR
STARTCHAR 0251
ENCODING 593
SWIDTH 576 0
DWIDTH 8 0
BBX 6 7 1 0
BITMAP
74
8C
84
84
84
8C
74
ENDCHAR
STARTCHAR 0252
ENCODING 594
SWIDTH 576 0
DWIDTH 8 0
BBX 6 7 1 0
BITMAP
B8
CC
84
84
84
CC
B8
ENDCHAR
STARTCHAR 0253
ENCODING 595
SWIDTH 576 0
DWIDTH 8 0
BBX 6 10 1 0
BITMAP
E0
80
80
B8
CC
84
84
84
CC
B8
ENDCHAR
STARTCHAR 0254
ENCODING 596
SWIDTH 504 0
DWIDTH 7 0
BBX 5 7 1 0
BITMAP
F0
88
08
08
08
88
F0
ENDCHAR
STARTCHAR 0255
ENCODING 597
SWIDTH 504 0
DWIDTH 7 0
BBX 6 7 1 0
BITMAP
78
88
80
80
B8
C4
F8
ENDCHAR
STARTCHAR 0256
ENCODING 598
SWIDTH 576 0
DWIDTH 8 0
BBX 7 13 1 -3
BITMAP
04
04
04
74
8C
84
84
84
8C
74
04
04
06
ENDCHAR
STARTCHAR 0257
ENCODING 599
SWIDTH 576 0
DWIDTH 8 0
BBX 7 10 1 0
BITMAP
06
04
04
74
8C
84
84
84
8C
74
ENDCHAR
STARTCHAR 0258
ENCODING 600
SWIDTH 576 0
DWIDTH 8 0
BBX 6 7 1 0
BITMAP
78
8C
84
FC
04
8C
78
ENDCHAR
STARTCHAR 0259
ENCODING 601
SWIDTH 576 0
DWIDTH 8 0
BBX 6 7 1 0
BITMAP
78
8C
04
FC
84
8C
78
ENDCHAR
STARTCHAR 025A
ENCODING 602
SWIDTH 720 0
DWIDTH 10 0
BBX 9 7 1 0
BITMAP
7800
8C00
3E00
C600
8580
8C00
7800
ENDCHAR
STARTCHAR 025B
ENCODING 603
SWIDTH 432 0
DWIDTH 6 0
BBX 5 7 1 0
BITMAP
F0
98
80
60
80
88
F0
ENDCHAR
STARTCHAR 025C
ENCODING 604
SWIDTH 432 0
DWIDTH 6 0
BBX 6 7 0 0
BITMAP
78
4C
0C
38
04
C4
78
ENDCHAR
STARTCHAR 025D
ENCODING 605
SWIDTH 648 0
DWIDTH 9 0
BBX 9 7 0 0
BITMAP
7800
4E00
0E00
3B80
0400
C400
7800
ENDCHAR
STARTCHAR 025E
ENCODING 606
SWIDTH 504 0
DWIDTH 7 0
BBX 6 7 1 0
BITMAP
78
88
88
B0
8C
8C
78
ENDCHAR
STARTCHAR 025F
ENCODING 607
SWIDTH 288 0
DWIDTH 4 0
BBX 4 10 0 -3
BITMAP
60
60
60
60
60
60
F0
60
60
C0
ENDCHAR
STARTCHAR 0260
ENCODING 608
SWIDTH 576 0
DWIDTH 8 0
BBX 7 13 1 -3
BITMAP
06
04
04
74
8C
84
84
84
8C
74
04
8C
78
ENDCHAR
STARTCHAR 0261
ENCODING 609
SWIDTH 576 0
DWIDTH 8 0
BBX 6 10 1 -3
BITMAP
74
8C
84
84
84
8C
74
04
8C
78
ENDCHAR
STARTCHAR 0262
ENCODING 610
SWIDTH 576 0
DWIDTH 8 0
BBX 6 7 1 0
BITMAP
78
8C
80
9C
84
84
78
ENDCHAR
STARTCHAR 0263
ENCODING 611
SWIDTH 504 0
DWIDTH 7 0
BBX 7 10 0 -3
BITMAP
C6
44
44
28
28
30
10
28
28
38
ENDCHAR
STARTCHAR 0264
ENCODING 612
SWIDTH 648 0
DWIDTH 9 0
BBX 8 7 0 0
BITMAP
67
95
18
08
1C
14
1C
ENDCHAR
STARTCHAR 0265
ENCODING 613
SWIDTH 576 0
DWIDTH 8 0
BBX 6 10 1 -3
BITMAP
84
84
84
84
84
8C
74
04
04
04
ENDCHAR
STARTCHAR 0266
ENCODING 614
SWIDTH 576 0
DWIDTH 8 0
BBX 6 10 1 0
BITMAP
E0
80
80
B8
CC
84
84
84
84
84
ENDCHAR
STARTCHAR 0267
ENCODING 615
SWIDTH 576 0
DWIDTH 8 0
BBX 6 13 1 -3
BITMAP
E0
80
80
B8
CC
84
84
84
84
84
04
04
18
ENDCHAR
STARTCHAR 0268
ENCODING 616
SWIDTH 216 0
DWIDTH 3 0
BBX 3 10 0 0
BITMAP
40
00
00
40
40
40
E0
40
40
40
ENDCHAR
STARTCHAR 0269
ENCODING 617
SWIDTH 216 0
DWIDTH 3 0
BBX 2 7 1 0
BITMAP
80
80
80
80
80
80
C0
ENDCHAR
STARTCHAR 026A
ENCODING 618
SWIDTH 360 0
DWIDTH 5 0
BBX 5 7 0 0
BITMAP
F8
20
20
20
20
20
F8
ENDCHAR
STARTCHAR 026B
ENCODING 619
SWIDTH 360 0
DWIDTH 5 0
BBX 5 10 0 0
BITMAP
20
20
20
20
E8
B0
20
20
20
20
ENDCHAR
STARTCHAR 026C
ENCODING 620
SWIDTH 288 0
DWIDTH 4 0
BBX 4 10 0 0
BITMAP
20
20
20
E0
A0
70
20
20
20
20
ENDCHAR
STARTCHAR 026D
ENCODING 621
SWIDTH 216 0
DWIDTH 3 0
BBX 3 13 1 -3
BITMAP
80
80
80
80
80
80
80
80
80
80
80
80
E0
ENDCHAR
STARTCHAR 026E
ENCODING 622
SWIDTH 576 0
DWIDTH 8 0
BBX 7 13 1 -3
BITMAP
80
80
80
FC
8C
90
B8
84
84
86
04
8C
78
ENDCHAR
STARTCHAR 026F
ENCODING 623
SWIDTH 864 0
DWIDTH 12 0
BBX 10 7 1 0
BITMAP
88C0
88C0
88C0
88C0
88C0
8CC0
7740
ENDCHAR
STARTCHAR 0270
ENCODING 624
SWIDTH 864 0
DWIDTH 12 0
BBX 10 10 1 -3
BITMAP
88C0
88C0
88C0
88C0
88C0
8CC0
77C0
00C0
00C0
00C0
ENDCHAR
STARTCHAR 0271
ENCODING 625
SWIDTH 864 0
DWIDTH 12 0
BBX 10 10 1 -3
BITMAP
BB80
CCC0
8C40
8840
8840
8840
8840
0040
00C0
0180
ENDCHAR
STARTCHAR 0272
ENCODING 626
SWIDTH 576 0
DWIDTH 8 0
BBX 8 10 -1 -3
BITMAP
2E
33
21
21
21
21
21
20
20
E0
ENDCHAR
STARTCHAR 0273
ENCODING 627
SWIDTH 576 0
DWIDTH 8 0
BBX 7 10 1 -3
BITMAP
B8
CC
84
84
84
84
84
04
04
06
ENDCHAR
STARTCHAR 0274
ENCODING 628
SWIDTH 576 0
DWIDTH 8 0
BBX 6 7 1 0
BITMAP
C4
C4
A4
B4
94
8C
8C
ENDCHAR
STARTCHAR 0275
ENCODING 629
SWIDTH 576 0
DWIDTH 8 0
BBX 6 7 1 0
BITMAP
78
8C
84
FC
84
8C
78
ENDCHAR
STARTCHAR 0276
ENCODING 630
SWIDTH 792 0
DWIDTH 11 0
BBX 10 7 1 0
BITMAP
7F80
8C00
8400
8780
8400
8C00
7FC0
ENDCHAR
STARTCHAR 0277
ENCODING 631
SWIDTH 792 0
DWIDTH 11 0
BBX 9 7 1 0
BITMAP
3E00
C180
8080
8880
8880
9880
7700
ENDCHAR
STARTCHAR 0278
ENCODING 632
SWIDTH 576 0
DWIDTH 8 0
BBX 6 13 1 -3
BITMAP
20
20
20
78
AC
A4
A4
A4
AC
78
20
20
20
ENDCHAR
STARTCHAR 0279
ENCODING 633
SWIDTH 360 0
DWIDTH 5 0
BBX 4 7 0 0
BITMAP
10
10
10
10
30
30
D0
ENDCHAR
STARTCHAR 027A
ENCODING 634
SWIDTH 360 0
DWIDTH 5 0
BBX 4 10 0 0
BITMAP
10
10
10
10
10
10
10
30
30
D0
ENDCHAR
STARTCHAR 027B
ENCODING 635
SWIDTH 360 0
DWIDTH 5 0
BBX 5 10 0 -3
BITMAP
10
10
10
10
30
30
D0
10
10
18
ENDCHAR
STARTCHAR 027C
ENCODING 636
SWIDTH 360 0
DWIDTH 5 0
BBX 3 10 1 -3
BITMAP
A0
C0
80
80
80
80
80
80
80
80
ENDCHAR
STARTCHAR 027D
ENCODING 637
SWIDTH 360 0
DWIDTH 5 0
BBX 3 10 1 -3
BITMAP
A0
C0
80
80
80
80
80
80
80
E0
ENDCHAR
STARTCHAR 027E
ENCODING 638
SWIDTH 360 0
DWIDTH 5 0
BBX 3 7 1 0
BITMAP
60
C0
80
80
80
80
80
ENDCHAR
STARTCHAR 027F
ENCODING 639
SWIDTH 360 0
DWIDTH 5 0
BBX 4 10 0 -3
BITMAP
E0
20
30
30
30
30
30
30
30
30
ENDCHAR
STARTCHAR 0280
ENCODING 640
SWIDTH 576 0
DWIDTH 8 0
BBX 6 7 1 0
BITMAP
F8
8C
8C
F8
90
88
8C
ENDCHAR
STARTCHAR 0281
ENCODING 641
SWIDTH 576 0
DWIDTH 8 0
BBX 6 7 1 0
BITMAP
8C
88
90
F8
8C
8C
F8
ENDCHAR
STARTCHAR 0282
ENCODING 642
SWIDTH 504 0
DWIDTH 7 0
BBX 6 10 0 -3
BITMAP
7C
44
40
3C
04
C4
FC
C0
C0
60
ENDCHAR
STARTCHAR 0283
ENCODING 643
SWIDTH 216 0
DWIDTH 3 0
BBX 5 13 -1 -3
BITMAP
18
20
20
20
20
20
20
20
20
20
20
20
E0
ENDCHAR
STARTCHAR 0284
ENCODING 644
SWIDTH 288 0
DWIDTH 4 0
BBX 4 13 0 -3
BITMAP
30
60
60
60
60
60
60
60
60
F0
60
40
C0
ENDCHAR
STARTCHAR 0285
ENCODING 645
SWIDTH 216 0
DWIDTH 3 0
BBX 5 10 -1 -3
BITMAP
E0
20
20
20
20
20
20
20
20
18
ENDCHAR
STARTCHAR 0286
ENCODING 646
SWIDTH 360 0
DWIDTH 5 0
BBX 6 13 0 -3
BITMAP
1C
10
10
10
10
10
10
10
10
10
F0
98
E8
ENDCHAR
STARTCHAR 0287
ENCODING 647
SWIDTH 288 0
DWIDTH 4 0
BBX 4 10 0 0
BITMAP
E0
20
20
20
20
20
20
F0
20
20
ENDCHAR
STARTCHAR 0288
ENCODING 648
SWIDTH 288 0
DWIDTH 4 0
BBX 4 12 0 -3
BITMAP
40
40
F0
40
40
40
40
40
40
40
40
70
ENDCHAR
STARTCHAR 0289
ENCODING 649
SWIDTH 576 0
DWIDTH 8 0
BBX 8 7 0 0
BITMAP
42
42
42
FF
42
46
3A
ENDCHAR
STARTCHAR 028A
ENCODING 650
SWIDTH 576 0
DWIDTH 8 0
BBX 6 7 1 0
BITMAP
CC
48
84
84
84
CC
78
ENDCHAR
STARTCHAR 028B
ENCODING 651
SWIDTH 576 0
DWIDTH 8 0
BBX 6 7 1 0
BITMAP
88
8C
84
84
8C
88
70
ENDCHAR
STARTCHAR 028C
ENCODING 652
SWIDTH 504 0
DWIDTH 7 0
BBX 7 7 0 0
BITMAP
10
28
28
6C
44
44
C6
ENDCHAR
STARTCHAR 028D
ENCODING 653
SWIDTH 720 0
DWIDTH 10 0
BBX 10 7 0 0
BITMAP
3300
3300
5280
5280
4C80
CCC0
8C40
ENDCHAR
STARTCHAR 028E
ENCODING 654
SWIDTH 504 0
DWIDTH 7 0
BBX 7 10 0 0
BITMAP
0E
18
10
10
28
28
6C
44
44
C6
ENDCHAR
STARTCHAR 028F
ENCODING 655
SWIDTH 504 0
DWIDTH 7 0
BBX 6 7 1 0
BITMAP
8C
C8
50
30
20
20
20
ENDCHAR
STARTCHAR 0290
ENCODING 656
SWIDTH 504 0
DWIDTH 7 0
BBX 8 10 0 -3
BITMAP
7C
0C
08
10
20
40
FE
06
06
03
ENDCHAR
STARTCHAR 0291
ENCODING 657
SWIDTH 576 0
DWIDTH 8 0
BBX 7 8 0 -1
BITMAP
7C
0C
18
10
2E
5A
FE
20
ENDCHAR
STARTCHAR 0292
ENCODING 658
SWIDTH 576 0
DWIDTH 8 0
BBX 6 10 1 -3
BITMAP
FC
0C
18
30
38
0C
04
84
8C
78
ENDCHAR
STARTCHAR 0293
ENCODING 659
SWIDTH 576 0
DWIDTH 8 0
BBX 6 10 1 -3
BITMAP
FC
0C
18
30
38
0C
04
F4
8C
FC
ENDCHAR
STARTCHAR 0294
ENCODING 660
SWIDTH 504 0
DWIDTH 7 0
BBX 5 10 1 0
BITMAP
F0
88
08
08
08
08
70
60
60
60
ENDCHAR
STARTCHAR 0295
ENCODING 661
SWIDTH 504 0
DWIDTH 7 0
BBX 5 10 1 0
BITMAP
78
88
80
80
80
80
70
30
30
30
ENDCHAR
STARTCHAR 0296
ENCODING 662
SWIDTH 504 0
DWIDTH 7 0
BBX 5 10 1 0
BITMAP
60
60
60
70
08
08
08
08
88
F0
ENDCHAR
STARTCHAR 0297
ENCODING 663
SWIDTH 504 0
DWIDTH 7 0
BBX 6 10 1 -3
BITMAP
78
88
80
80
80
80
80
80
8C
78
ENDCHAR
STARTCHAR 0298
ENCODING 664
SWIDTH 792 0
DWIDTH 11 0
BBX 9 10 1 0
BITMAP
3E00
6300
C180
8080
8880
8880
8080
C180
6300
3E00
ENDCHAR
STARTCHAR 0299
ENCODING 665
SWIDTH 504 0
DWIDTH 7 0
BBX 6 7 1 0
BITMAP
F8
8C
88
F8
8C
8C
F8
ENDCHAR
STARTCHAR 029A
ENCODING 666
SWIDTH 504 0
DWIDTH 7 0
BBX 6 7 1 0
BITMAP
F0
88
8C
6C
8C
88
F0
ENDCHAR
STARTCHAR 029B
ENCODING 667
SWIDTH 576 0
DWIDTH 8 0
BBX 7 8 1 0
BITMAP
06
7C
8C
80
9C
84
84
78
ENDCHAR
STARTCHAR 029C
ENCODING 668
SWIDTH 576 0
DWIDTH 8 0
BBX 6 7 1 0
BITMAP
84
84
84
FC
84
84
84
ENDCHAR
STARTCHAR 029D
ENCODING 669
SWIDTH 432 0
DWIDTH 6 0
BBX 6 13 0 -3
BITMAP
18
00
00
18
18
18
18
18
18
18
FC
98
F0
ENDCHAR
STARTCHAR 029E
ENCODING 670
SWIDTH 504 0
DWIDTH 7 0
BBX 6 10 0 -3
BITMAP
C4
64
24
1C
14
24
44
04
04
04
ENDCHAR
STARTCHAR 029F
ENCODING 671
SWIDTH 432 0
DWIDTH 6 0
BBX 4 7 1 0
BITMAP
80
80
80
80
80
80
F0
ENDCHAR
STARTCHAR 02A0
ENCODING 672
SWIDTH 576 0
DWIDTH 8 0
BBX 7 13 1 -3
BITMAP
06
04
04
74
8C
84
84
84
8C
74
04
04
04
ENDCHAR
STARTCHAR 02A1
ENCODING 673
SWIDTH 504 0
DWIDTH 7 0
BBX 6 10 0 0
BITMAP
78
44
04
04
04
04
38
30
FC
30
ENDCHAR
STARTCHAR 02A2
ENCODING 674
SWIDTH 504 0
DWIDTH 7 0
BBX 6 10 1 0
BITMAP
78
88
80
80
80
80
70
30
FC
30
ENDCHAR
STARTCHAR 02A3
ENCODING 675
SWIDTH 1008 0
DWIDTH 14 0
BBX 12 10 1 0
BITMAP
0400
0400
0400
77F0
8C20
8440
84C0
8580
8F00
77F0
ENDCHAR
STARTCHAR 02A4
ENCODING 676
SWIDTH 936 0
DWIDTH 13 0
BBX 11 13 1 -3
BITMAP
0400
0400
0400
77E0
8C60
8480
85C0
8460
8C20
7420
0020
0460
03C0
ENDCHAR
STARTCHAR 02A5
ENCODING 677
SWIDTH 1008 0
DWIDTH 14 0
BBX 13 11 1 -1
BITMAP
0400
0400
0400
77F0
8C20
8440
84C0
85B0
8F48
77F0
0080
ENDCHAR
STARTCHAR 02A6
ENCODING 678
SWIDTH 720 0
DWIDTH 10 0
BBX 9 9 0 0
BITMAP
4000
4000
FF00
4880
4800
4700
4080
4080
7F80
ENDCHAR
STARTCHAR 02A7
ENCODING 679
SWIDTH 432 0
DWIDTH 6 0
BBX 7 13 0 -3
BITMAP
0E
48
48
F8
48
48
48
48
48
78
08
08
30
ENDCHAR
STARTCHAR 02A8
ENCODING 680
SWIDTH 720 0
DWIDTH 10 0
BBX 10 9 0 0
BITMAP
4000
4000
F780
4880
4800
4800
4B80
4C40
7F80
ENDCHAR
STARTCHAR 02A9
ENCODING 681
SWIDTH 792 0
DWIDTH 11 0
BBX 10 13 0 -3
BITMAP
3000
6000
4000
FB80
4CC0
4840
4840
4840
4840
4840
0040
00C0
0180
ENDCHAR
STARTCHAR 02AA
ENCODING 682
SWIDTH 648 0
DWIDTH 9 0
BBX 8 10 1 0
BITMAP
80
80
80
9E
A2
B0
9E
83
C3
BE
ENDCHAR
STARTCHAR 02AB
ENCODING 683
SWIDTH 648 0
DWIDTH 9 0
BBX 8 10 1 0
BITMAP
80
80
80
FE
86
8C
88
90
A0
FF
ENDCHAR
STARTCHAR 02AC
ENCODING 684
SWIDTH 504 0
DWIDTH 7 0
BBX 7 10 0 0
BITMAP
92
74
6C
68
00
92
94
6C
6C
68
ENDCHAR
STARTCHAR 02AD
ENCODING 685
SWIDTH 504 0
DWIDTH 7 0
BBX 6 10 1 0
BITMAP
FC
84
84
00
00
00
00
FC
84
84
ENDCHAR
STARTCHAR 02AE
ENCODING 686
SWIDTH 720 0
DWIDTH 10 0
BBX 9 10 0 -3
BITMAP
E180
1180
1180
1180
1180
1180
1F80
0180
0180
0180
ENDCHAR
STARTCHAR 02AF
ENCODING 687
SWIDTH 720 0
DWIDTH 10 0
BBX 11 10 0 -3
BITMAP
E180
1180
1180
1180
1180
1180
1F80
0180
0080
00E0
ENDCHAR
STARTCHAR 02B0
ENCODING 688
SWIDTH 360 0
DWIDTH 5 0
BBX 4 8 1 3
BITMAP
80
80
F0
90
90
90
90
90
ENDCHAR
STARTCHAR 02B1
ENCODING 689
SWIDTH 360 0
DWIDTH 5 0
BBX 4 8 1 3
BITMAP
C0
80
E0
90
90
90
90
90
ENDCHAR
STARTCHAR 02B2
ENCODING 690
SWIDTH 144 0
DWIDTH 2 0
BBX 2 9 0 1
BITMAP
40
40
40
40
40
40
40
40
80
ENDCHAR
STARTCHAR 02B3
ENCODING 691
SWIDTH 216 0
DWIDTH 3 0
BBX 2 6 1 3
BITMAP
C0
80
80
80
80
80
ENDCHAR
STARTCHAR 02B4
ENCODING 692
SWIDTH 216 0
DWIDTH 3 0
BBX 3 6 0 3
BITMAP
20
20
20
20
20
E0
ENDCHAR
STARTCHAR 02B5
ENCODING 693
SWIDTH 216 0
DWIDTH 3 0
BBX 3 8 0 1
BITMAP
20
20
20
20
60
A0
20
20
ENDCHAR
STARTCHAR 02B6
ENCODING 694
SWIDTH 360 0
DWIDTH 5 0
BBX 4 6 1 3
BITMAP
90
A0
E0
90
90
E0
ENDCHAR
STARTCHAR 02B7
ENCODING 695
SWIDTH 504 0
DWIDTH 7 0
BBX 7 6 0 3
BITMAP
92
92
AC
6C
6C
48
ENDCHAR
STARTCHAR 02B8
ENCODING 696
SWIDTH 288 0
DWIDTH 4 0
BBX 5 8 0 1
BITMAP
88
90
50
50
60
20
20
C0
ENDCHAR
STARTCHAR 02B9
ENCODING 697
SWIDTH 216 0
DWIDTH 3 0
BBX 1 3 1 7
BITMAP
80
80
80
ENDCHAR
STARTCHAR 02BA
ENCODING 698
SWIDTH 360 0
DWIDTH 5 0
BBX 3 3 1 7
BITMAP
A0
A0
A0
ENDCHAR
STARTCHAR 02BB
ENCODING 699
SWIDTH 216 0
DWIDTH 3 0
BBX 1 3 1 7
BITMAP
80
80
80
ENDCHAR
STARTCHAR 02BC
ENCODING 700
SWIDTH 216 0
DWIDTH 3 0
BBX 1 3 1 7
BITMAP
80
80
80
ENDCHAR
STARTCHAR 02BD
ENCODING 701
SWIDTH 216 0
DWIDTH 3 0
BBX 1 3 1 7
BITMAP
80
80
80
ENDCHAR
STARTCHAR 02BE
ENCODING 702
SWIDTH 360 0
DWIDTH 5 0
BBX 1 3 2 8
BITMAP
80
80
80
ENDCHAR
STARTCHAR 02BF
ENCODING 703
SWIDTH 360 0
DWIDTH 5 0
BBX 1 3 2 8
BITMAP
80
80
80
ENDCHAR
STARTCHAR 02C0
ENCODING 704
SWIDTH 360 0
DWIDTH 5 0
BBX 4 7 0 3
BITMAP
70
90
10
10
10
20
20
ENDCHAR
STARTCHAR 02C1
ENCODING 705
SWIDTH 360 0
DWIDTH 5 0
BBX 4 7 0 3
BITMAP
70
90
80
80
40
20
20
ENDCHAR
STARTCHAR 02C2
ENCODING 706
SWIDTH 576 0
DWIDTH 8 0
BBX 7 7 1 1
BITMAP
06
18
E0
80
E0
18
06
ENDCHAR
STARTCHAR 02C3
ENCODING 707
SWIDTH 576 0
DWIDTH 8 0
BBX 7 7 1 1
BITMAP
80
60
1C
02
1C
60
80
ENDCHAR
STARTCHAR 02C4
ENCODING 708
SWIDTH 576 0
DWIDTH 8 0
BBX 6 6 1 2
BITMAP
30
30
48
48
C4
84
ENDCHAR
STARTCHAR 02C5
ENCODING 709
SWIDTH 576 0
DWIDTH 8 0
BBX 6 6 1 2
BITMAP
84
C4
48
48
30
30
ENDCHAR
STARTCHAR 02C6
ENCODING 710
SWIDTH 360 0
DWIDTH 5 0
BBX 4 2 0 8
BITMAP
60
90
ENDCHAR
STARTCHAR 02C7
ENCODING 711
SWIDTH 360 0
DWIDTH 5 0
BBX 4 2 0 8
BITMAP
90
60
ENDCHAR
STARTCHAR 02C8
ENCODING 712
SWIDTH 360 0
DWIDTH 5 0
BBX 1 2 2 8
BITMAP
80
80
ENDCHAR
STARTCHAR 02C9
ENCODING 713
SWIDTH 360 0
DWIDTH 5 0
BBX 4 1 0 8
BITMAP
F0
ENDCHAR
STARTCHAR 02CA
ENCODING 714
SWIDTH 360 0
DWIDTH 5 0
BBX 2 2 1 8
BITMAP
40
80
ENDCHAR
STARTCHAR 02CB
ENCODING 715
SWIDTH 360 0
DWIDTH 5 0
BBX 2 2 1 8
BITMAP
C0
40
ENDCHAR
STARTCHAR 02CC
ENCODING 716
SWIDTH 360 0
DWIDTH 5 0
BBX 1 2 2 -3
BITMAP
80
80
ENDCHAR
STARTCHAR 02CD
ENCODING 717
SWIDTH 360 0
DWIDTH 5 0
BBX 4 1 0 -2
BITMAP
F0
ENDCHAR
STARTCHAR 02CE
ENCODING 718
SWIDTH 360 0
DWIDTH 5 0
BBX 2 2 1 -3
BITMAP
80
40
ENDCHAR
STARTCHAR 02CF
ENCODING 719
SWIDTH 360 0
DWIDTH 5 0
BBX 2 2 2 -3
BITMAP
C0
80
ENDCHAR
STARTCHAR 02D0
ENCODING 720
SWIDTH 288 0
DWIDTH 4 0
BBX 1 7 1 0
BITMAP
80
00
00
00
00
00
80
ENDCHAR
STARTCHAR 02D1
ENCODING 721
SWIDTH 288 0
DWIDTH 4 0
BBX 1 1 1 6
BITMAP
80
ENDCHAR
STARTCHAR 02D2
ENCODING 722
SWIDTH 360 0
DWIDTH 5 0
BBX 1 3 2 1
BITMAP
80
80
80
ENDCHAR
STARTCHAR 02D3
ENCODING 723
SWIDTH 360 0
DWIDTH 5 0
BBX 1 3 2 1
BITMAP
80
80
80
ENDCHAR
STARTCHAR 02D4
ENCODING 724
SWIDTH 360 0
DWIDTH 5 0
BBX 3 2 1 1
BITMAP
40
E0
ENDCHAR
STARTCHAR 02D5
ENCODING 725
SWIDTH 360 0
DWIDTH 5 0
BBX 3 2 1 1
BITMAP
E0
40
ENDCHAR
STARTCHAR 02D6
ENCODING 726
SWIDTH 360 0
DWIDTH 5 0
BBX 3 3 1 1
BITMAP
40
E0
40
ENDCHAR
STARTCHAR 02D7
ENCODING 727
SWIDTH 360 0
DWIDTH 5 0
BBX 4 1 0 2
BITMAP
F0
ENDCHAR
STARTCHAR 02D8
ENCODING 728
SWIDTH 360 0
DWIDTH 5 0
BBX 4 2 0 8
BITMAP
90
70
ENDCHAR
STARTCHAR 02D9
ENCODING 729
SWIDTH 360 0
DWIDTH 5 0
BBX 1 1 1 9
BITMAP
80
ENDCHAR
STARTCHAR 02DA
ENCODING 730
SWIDTH 360 0
DWIDTH 5 0
BBX 4 3 0 8
BITMAP
60
90
60
ENDCHAR
STARTCHAR 02DB
ENCODING 731
SWIDTH 360 0
DWIDTH 5 0
BBX 2 4 1 -4
BITMAP
80
80
80
C0
ENDCHAR
STARTCHAR 02DC
ENCODING 732
SWIDTH 360 0
DWIDTH 5 0
BBX 5 2 0 8
BITMAP
C8
B0
ENDCHAR
STARTCHAR 02DD
ENCODING 733
SWIDTH 360 0
DWIDTH 5 0
BBX 5 2 0 8
BITMAP
68
90
ENDCHAR
STARTCHAR 02DE
ENCODING 734
SWIDTH 360 0
DWIDTH 5 0
BBX 4 3 0 2
BITMAP
80
40
70
ENDCHAR
STARTCHAR 02DF
ENCODING 735
SWIDTH 360 0
DWIDTH 5 0
BBX 5 5 0 6
BITMAP
88
50
20
50
88
ENDCHAR
STARTCHAR 02E0
ENCODING 736
SWIDTH 360 0
DWIDTH 5 0
BBX 4 8 0 1
BITMAP
90
90
50
60
20
60
60
60
ENDCHAR
STARTCHAR 02E1
ENCODING 737
SWIDTH 144 0
DWIDTH 2 0
BBX 1 7 1 3
BITMAP
80
80
80
80
80
80
80
ENDCHAR
STARTCHAR 02E2
ENCODING 738
SWIDTH 360 0
DWIDTH 5 0
BBX 4 6 0 3
BITMAP
70
80
60
10
10
70
ENDCHAR
STARTCHAR 02E3
ENCODING 739
SWIDTH 360 0
DWIDTH 5 0
BBX 4 6 0 3
BITMAP
90
60
60
60
60
90
ENDCHAR
STARTCHAR 02E4
ENCODING 740
SWIDTH 360 0
DWIDTH 5 0
BBX 4 7 0 3
BITMAP
70
90
80
80
40
20
20
ENDCHAR
STARTCHAR 02E5
ENCODING 741
SWIDTH 360 0
DWIDTH 5 0
BBX 3 10 1 0
BITMAP
E0
20
20
20
20
20
20
20
20
20
ENDCHAR
STARTCHAR 02E6
ENCODING 742
SWIDTH 360 0
DWIDTH 5 0
BBX 3 10 1 0
BITMAP
20
20
E0
20
20
20
20
20
20
20
ENDCHAR
STARTCHAR 02E7
ENCODING 743
SWIDTH 360 0
DWIDTH 5 0
BBX 3 10 1 0
BITMAP
20
20
20
20
E0
20
20
20
20
20
ENDCHAR
STARTCHAR 02E8
ENCODING 744
SWIDTH 360 0
DWIDTH 5 0
BBX 3 10 1 0
BITMAP
20
20
20
20
20
20
20
E0
20
20
ENDCHAR
STARTCHAR 02E9
ENCODING 745
SWIDTH 360 0
DWIDTH 5 0
BBX 3 10 1 0
BITMAP
20
20
20
20
20
20
20
20
20
E0
ENDCHAR
STARTCHAR 02EA
ENCODING 746
SWIDTH 360 0
DWIDTH 5 0
BBX 3 6 1 0
BITMAP
80
80
80
80
80
E0
ENDCHAR
STARTCHAR 02EB
ENCODING 747
SWIDTH 360 0
DWIDTH 5 0
BBX 3 6 1 0
BITMAP
80
80
80
E0
80
80
ENDCHAR
STARTCHAR 02EC
ENCODING 748
SWIDTH 360 0
DWIDTH 5 0
BBX 4 2 0 -3
BITMAP
90
60
ENDCHAR
STARTCHAR 02ED
ENCODING 749
SWIDTH 360 0
DWIDTH 5 0
BBX 4 2 0 8
BITMAP
F0
F0
ENDCHAR
STARTCHAR 02EE
ENCODING 750
SWIDTH 360 0
DWIDTH 5 0
BBX 3 3 1 7
BITMAP
A0
A0
A0
ENDCHAR
STARTCHAR 02EF
ENCODING 751
SWIDTH 360 0
DWIDTH 5 0
BBX 3 2 1 -3
BITMAP
A0
40
ENDCHAR
STARTCHAR 02F0
ENCODING 752
SWIDTH 360 0
DWIDTH 5 0
BBX 3 2 1 -3
BITMAP
40
A0
ENDCHAR
STARTCHAR 02F1
ENCODING 753
SWIDTH 360 0
DWIDTH 5 0
BBX 2 3 1 -3
BITMAP
40
80
40
ENDCHAR
STARTCHAR 02F2
ENCODING 754
SWIDTH 360 0
DWIDTH 5 0
BBX 2 3 1 -3
BITMAP
80
40
80
ENDCHAR
STARTCHAR 02F3
ENCODING 755
SWIDTH 360 0
DWIDTH 5 0
BBX 3 3 1 -3
BITMAP
C0
A0
C0
ENDCHAR
STARTCHAR 02F4
ENCODING 756
SWIDTH 360 0
DWIDTH 5 0
BBX 2 2 1 2
BITMAP
C0
40
ENDCHAR
STARTCHAR 02F5
ENCODING 757
SWIDTH 360 0
DWIDTH 5 0
BBX 5 2 0 2
BITMAP
D0
48
ENDCHAR
STARTCHAR 02F6
ENCODING 758
SWIDTH 360 0
DWIDTH 5 0
BBX 4 2 0 2
BITMAP
50
A0
ENDCHAR
STARTCHAR 02F7
ENCODING 759
SWIDTH 360 0
DWIDTH 5 0
BBX 5 2 0 -3
BITMAP
C8
B0
ENDCHAR
STARTCHAR 02F8
ENCODING 760
SWIDTH 288 0
DWIDTH 4 0
BBX 2 7 1 3
BITMAP
C0
00
00
00
00
00
C0
ENDCHAR
STARTCHAR 02F9
ENCODING 761
SWIDTH 360 0
DWIDTH 5 0
BBX 3 2 1 8
BITMAP
E0
80
ENDCHAR
STARTCHAR 02FA
ENCODING 762
SWIDTH 360 0
DWIDTH 5 0
BBX 3 2 1 8
BITMAP
E0
20
ENDCHAR
STARTCHAR 02FB
ENCODING 763
SWIDTH 360 0
DWIDTH 5 0
BBX 3 2 1 -3
BITMAP
80
E0
ENDCHAR
STARTCHAR 02FC
ENCODING 764
SWIDTH 360 0
DWIDTH 5 0
BBX 3 2 1 -3
BITMAP
20
E0
ENDCHAR
STARTCHAR 02FD
ENCODING 765
SWIDTH 432 0
DWIDTH 6 0
BBX 5 2 0 -3
BITMAP
88
F8
ENDCHAR
STARTCHAR 02FE
ENCODING 766
SWIDTH 432 0
DWIDTH 6 0
BBX 5 2 0 -3
BITMAP
80
F8
ENDCHAR
STARTCHAR 02FF
ENCODING 767
SWIDTH 360 0
DWIDTH 5 0
BBX 4 3 0 -3
BITMAP
40
F0
40
ENDCHAR
STARTCHAR 0300
ENCODING 768
SWIDTH 0 0
DWIDTH 0 0
BBX 2 2 -3 11
BITMAP
80
40
ENDCHAR
STARTCHAR 0301
ENCODING 769
SWIDTH 0 0
DWIDTH 0 0
BBX 2 2 -2 11
BITMAP
C0
80
ENDCHAR
STARTCHAR 0302
ENCODING 770
SWIDTH 0 0
DWIDTH 0 0
BBX 4 2 -2 8
BITMAP
60
90
ENDCHAR
STARTCHAR 0303
ENCODING 771
SWIDTH 0 0
DWIDTH 0 0
BBX 5 2 0 8
BITMAP
C8
B0
ENDCHAR
STARTCHAR 0304
ENCODING 772
SWIDTH 0 0
DWIDTH 0 0
BBX 4 1 -2 8
BITMAP
F0
ENDCHAR
STARTCHAR 0305
ENCODING 773
SWIDTH 0 0
DWIDTH 0 0
BBX 8 1 -4 11
BITMAP
FF
ENDCHAR
STARTCHAR 0306
ENCODING 774
SWIDTH 0 0
DWIDTH 0 0
BBX 4 2 -2 8
BITMAP
90
60
ENDCHAR
STARTCHAR 0307
ENCODING 775
SWIDTH 0 0
DWIDTH 0 0
BBX 2 1 -1 8
BITMAP
C0
ENDCHAR
STARTCHAR 0308
ENCODING 776
SWIDTH 0 0
DWIDTH 0 0
BBX 4 1 -2 8
BITMAP
90
ENDCHAR
STARTCHAR 0309
ENCODING 777
SWIDTH 0 0
DWIDTH 0 0
BBX 3 2 -3 10
BITMAP
E0
40
ENDCHAR
STARTCHAR 030A
ENCODING 778
SWIDTH 0 0
DWIDTH 0 0
BBX 2 3 -1 9
BITMAP
C0
C0
C0
ENDCHAR
STARTCHAR 030B
ENCODING 779
SWIDTH 0 0
DWIDTH 0 0
BBX 4 2 -2 8
BITMAP
D0
A0
ENDCHAR
STARTCHAR 030C
ENCODING 780
SWIDTH 0 0
DWIDTH 0 0
BBX 4 2 -2 8
BITMAP
90
60
ENDCHAR
STARTCHAR 030D
ENCODING 781
SWIDTH 0 0
DWIDTH 0 0
BBX 1 2 0 8
BITMAP
80
80
ENDCHAR
STARTCHAR 030E
ENCODING 782
SWIDTH 0 0
DWIDTH 0 0
BBX 2 2 -1 8
BITMAP
C0
C0
ENDCHAR
STARTCHAR 030F
ENCODING 783
SWIDTH 0 0
DWIDTH 0 0
BBX 4 2 -2 8
BITMAP
B0
50
ENDCHAR
STARTCHAR 0310
ENCODING 784
SWIDTH 0 0
DWIDTH 0 0
BBX 4 3 -2 8
BITMAP
60
90
60
ENDCHAR
STARTCHAR 0311
ENCODING 785
SWIDTH 0 0
DWIDTH 0 0
BBX 4 2 -2 8
BITMAP
60
90
ENDCHAR
STARTCHAR 0312
ENCODING 786
SWIDTH 0 0
DWIDTH 0 0
BBX 2 3 -1 7
BITMAP
80
80
C0
ENDCHAR
STARTCHAR 0313
ENCODING 787
SWIDTH 0 0
DWIDTH 0 0
BBX 2 3 -1 7
BITMAP
C0
40
40
ENDCHAR
STARTCHAR 0314
ENCODING 788
SWIDTH 0 0
DWIDTH 0 0
BBX 2 3 -1 7
BITMAP
C0
80
80
ENDCHAR
STARTCHAR 0315
ENCODING 789
SWIDTH 0 0
DWIDTH 0 0
BBX 2 3 -1 7
BITMAP
C0
40
40
ENDCHAR
STARTCHAR 0316
ENCODING 790
SWIDTH 0 0
DWIDTH 0 0
BBX 2 2 -1 -3
BITMAP
C0
40
ENDCHAR
STARTCHAR 0317
ENCODING 791
SWIDTH 0 0
DWIDTH 0 0
BBX 2 2 -1 -3
BITMAP
C0
80
ENDCHAR
STARTCHAR 0318
ENCODING 792
SWIDTH 0 0
DWIDTH 0 0
BBX 2 3 -1 -3
BITMAP
40
C0
40
ENDCHAR
STARTCHAR 0319
ENCODING 793
SWIDTH 0 0
DWIDTH 0 0
BBX 2 3 -1 -3
BITMAP
80
C0
80
ENDCHAR
STARTCHAR 031A
ENCODING 794
SWIDTH 0 0
DWIDTH 0 0
BBX 6 3 -3 8
BITMAP
FC
04
04
ENDCHAR
STARTCHAR 031B
ENCODING 795
SWIDTH 0 0
DWIDTH 0 0
BBX 2 3 0 7
BITMAP
C0
40
40
ENDCHAR
STARTCHAR 031C
ENCODING 796
SWIDTH 0 0
DWIDTH 0 0
BBX 2 3 -1 -3
BITMAP
40
80
40
ENDCHAR
STARTCHAR 031D
ENCODING 797
SWIDTH 0 0
DWIDTH 0 0
BBX 2 2 -1 -3
BITMAP
80
C0
ENDCHAR
STARTCHAR 031E
ENCODING 798
SWIDTH 0 0
DWIDTH 0 0
BBX 2 2 -1 -3
BITMAP
C0
80
ENDCHAR
STARTCHAR 031F
ENCODING 799
SWIDTH 0 0
DWIDTH 0 0
BBX 2 2 -1 -2
BITMAP
80
C0
ENDCHAR
STARTCHAR 0320
ENCODING 800
SWIDTH 0 0
DWIDTH 0 0
BBX 4 1 -2 -2
BITMAP
F0
ENDCHAR
STARTCHAR 0321
ENCODING 801
SWIDTH 0 0
DWIDTH 0 0
BBX 3 4 -2 -3
BITMAP
20
20
20
E0
ENDCHAR
STARTCHAR 0322
ENCODING 802
SWIDTH 0 0
DWIDTH 0 0
BBX 3 4 0 -3
BITMAP
80
80
80
E0
ENDCHAR
STARTCHAR 0323
ENCODING 803
SWIDTH 0 0
DWIDTH 0 0
BBX 2 1 -6 -2
BITMAP
C0
ENDCHAR
STARTCHAR 0324
ENCODING 804
SWIDTH 0 0
DWIDTH 0 0
BBX 4 1 -2 -3
BITMAP
90
ENDCHAR
STARTCHAR 0325
ENCODING 805
SWIDTH 0 0
DWIDTH 0 0
BBX 2 3 -1 -3
BITMAP
C0
C0
C0
ENDCHAR
STARTCHAR 0326
ENCODING 806
SWIDTH 0 0
DWIDTH 0 0
BBX 2 2 -1 -3
BITMAP
C0
40
ENDCHAR
STARTCHAR 0327
ENCODING 807
SWIDTH 0 0
DWIDTH 0 0
BBX 2 3 -1 -3
BITMAP
80
40
C0
ENDCHAR
STARTCHAR 0328
ENCODING 808
SWIDTH 0 0
DWIDTH 0 0
BBX 2 3 -1 -3
BITMAP
80
80
C0
ENDCHAR
STARTCHAR 0329
ENCODING 809
SWIDTH 0 0
DWIDTH 0 0
BBX 1 2 -1 -3
BITMAP
80
80
ENDCHAR
STARTCHAR 032A
ENCODING 810
SWIDTH 0 0
DWIDTH 0 0
BBX 6 2 -3 -3
BITMAP
FC
84
ENDCHAR
STARTCHAR 032B
ENCODING 811
SWIDTH 0 0
DWIDTH 0 0
BBX 4 2 -2 -3
BITMAP
D0
F0
ENDCHAR
STARTCHAR 032C
ENCODING 812
SWIDTH 0 0
DWIDTH 0 0
BBX 4 2 -2 -3
BITMAP
90
60
ENDCHAR
STARTCHAR 032D
ENCODING 813
SWIDTH 0 0
DWIDTH 0 0
BBX 4 2 -2 -3
BITMAP
60
90
ENDCHAR
STARTCHAR 032E
ENCODING 814
SWIDTH 0 0
DWIDTH 0 0
BBX 4 2 -2 -3
BITMAP
90
60
ENDCHAR
STARTCHAR 032F
ENCODING 815
SWIDTH 0 0
DWIDTH 0 0
BBX 4 2 -2 -3
BITMAP
60
90
ENDCHAR
STARTCHAR 0330
ENCODING 816
SWIDTH 0 0
DWIDTH 0 0
BBX 4 2 -2 -3
BITMAP
D0
B0
ENDCHAR
STARTCHAR 0331
ENCODING 817
SWIDTH 0 0
DWIDTH 0 0
BBX 4 1 -2 -2
BITMAP
F0
ENDCHAR
STARTCHAR 0332
ENCODING 818
SWIDTH 0 0
DWIDTH 0 0
BBX 8 1 -4 -3
BITMAP
FF
ENDCHAR
STARTCHAR 0333
ENCODING 819
SWIDTH 0 0
DWIDTH 0 0
BBX 4 2 -2 -3
BITMAP
F0
F0
ENDCHAR
STARTCHAR 0334
ENCODING 820
SWIDTH 0 0
DWIDTH 0 0
BBX 4 2 -2 2
BITMAP
D0
B0
ENDCHAR
STARTCHAR 0335
ENCODING 821
SWIDTH 0 0
DWIDTH 0 0
BBX 4 1 -2 2
BITMAP
F0
ENDCHAR
STARTCHAR 0336
ENCODING 822
SWIDTH 0 0
DWIDTH 0 0
BBX 8 1 -4 2
BITMAP
FF
ENDCHAR
STARTCHAR 0337
ENCODING 823
SWIDTH 0 0
DWIDTH 0 0
BBX 6 7 -3 0
BITMAP
04
0C
18
30
60
C0
80
ENDCHAR
STARTCHAR 0338
ENCODING 824
SWIDTH 0 0
DWIDTH 0 0
BBX 4 10 -2 0
BITMAP
10
10
20
20
20
40
40
40
40
80
ENDCHAR
STARTCHAR 0339
ENCODING 825
SWIDTH 0 0
DWIDTH 0 0
BBX 2 3 -1 -3
BITMAP
80
40
80
ENDCHAR
STARTCHAR 033A
ENCODING 826
SWIDTH 0 0
DWIDTH 0 0
BBX 6 2 -3 -3
BITMAP
84
FC
ENDCHAR
STARTCHAR 033B
ENCODING 827
SWIDTH 0 0
DWIDTH 0 0
BBX 2 3 -1 -3
BITMAP
C0
C0
C0
ENDCHAR
STARTCHAR 033C
ENCODING 828
SWIDTH 0 0
DWIDTH 0 0
BBX 4 2 -2 -3
BITMAP
F0
40
ENDCHAR
STARTCHAR 033D
ENCODING 829
SWIDTH 0 0
DWIDTH 0 0
BBX 2 3 -1 8
BITMAP
C0
C0
C0
ENDCHAR
STARTCHAR 033E
ENCODING 830
SWIDTH 0 0
DWIDTH 0 0
BBX 2 4 -1 8
BITMAP
C0
80
40
80
ENDCHAR
STARTCHAR 033F
ENCODING 831
SWIDTH 0 0
DWIDTH 0 0
BBX 8 2 -4 11
BITMAP
FF
FF
ENDCHAR
STARTCHAR 0340
ENCODING 832
SWIDTH 0 0
DWIDTH 0 0
BBX 2 2 -2 8
BITMAP
80
40
ENDCHAR
STARTCHAR 0341
ENCODING 833
SWIDTH 0 0
DWIDTH 0 0
BBX 2 2 0 8
BITMAP
40
80
ENDCHAR
STARTCHAR 0342
ENCODING 834
SWIDTH 0 0
DWIDTH 0 0
BBX 4 2 -2 8
BITMAP
D0
B0
ENDCHAR
STARTCHAR 0343
ENCODING 835
SWIDTH 0 0
DWIDTH 0 0
BBX 2 3 -1 7
BITMAP
C0
40
40
ENDCHAR
STARTCHAR 0344
ENCODING 836
SWIDTH 0 0
DWIDTH 0 0
BBX 4 2 -2 8
BITMAP
20
D0
ENDCHAR
STARTCHAR 0345
ENCODING 837
SWIDTH 0 0
DWIDTH 0 0
BBX 1 2 0 -3
BITMAP
80
80
ENDCHAR
STARTCHAR 0346
ENCODING 838
SWIDTH 0 0
DWIDTH 0 0
BBX 6 2 -3 8
BITMAP
FC
84
ENDCHAR
STARTCHAR 0347
ENCODING 839
SWIDTH 0 0
DWIDTH 0 0
BBX 6 2 -3 -3
BITMAP
FC
FC
ENDCHAR
STARTCHAR 0348
ENCODING 840
SWIDTH 0 0
DWIDTH 0 0
BBX 2 2 -1 -3
BITMAP
C0
C0
ENDCHAR
STARTCHAR 0349
ENCODING 841
SWIDTH 0 0
DWIDTH 0 0
BBX 2 2 -1 -3
BITMAP
C0
40
ENDCHAR
STARTCHAR 034A
ENCODING 842
SWIDTH 0 0
DWIDTH 0 0
BBX 4 2 -2 8
BITMAP
F0
F0
ENDCHAR
STARTCHAR 034B
ENCODING 843
SWIDTH 0 0
DWIDTH 0 0
BBX 5 4 -2 8
BITMAP
60
C8
B0
60
ENDCHAR
STARTCHAR 034C
ENCODING 844
SWIDTH 0 0
DWIDTH 0 0
BBX 5 4 -2 8
BITMAP
C8
B0
C8
B0
ENDCHAR
STARTCHAR 034D
ENCODING 845
SWIDTH 0 0
DWIDTH 0 0
BBX 4 1 -2 -2
BITMAP
F0
ENDCHAR
STARTCHAR 034E
ENCODING 846
SWIDTH 0 0
DWIDTH 0 0
BBX 2 3 -1 -3
BITMAP
C0
80
80
ENDCHAR
STARTCHAR 034F
ENCODING 847
SWIDTH 0 0
DWIDTH 0 0
BBX 10 10 -5 0
BITMAP
CCC0
8040
1200
2100
8040
80C0
0000
2100
9240
CCC0
ENDCHAR
STARTCHAR 0350
ENCODING 848
SWIDTH 0 0
DWIDTH 0 0
BBX 2 3 -1 8
BITMAP
80
40
80
ENDCHAR
STARTCHAR 0351
ENCODING 849
SWIDTH 0 0
DWIDTH 0 0
BBX 2 3 -1 8
BITMAP
40
80
40
ENDCHAR
STARTCHAR 0352
ENCODING 850
SWIDTH 0 0
DWIDTH 0 0
BBX 4 3 -2 8
BITMAP
60
90
60
ENDCHAR
STARTCHAR 0353
ENCODING 851
SWIDTH 0 0
DWIDTH 0 0
BBX 2 3 -1 -3
BITMAP
C0
C0
C0
ENDCHAR
STARTCHAR 0354
ENCODING 852
SWIDTH 0 0
DWIDTH 0 0
BBX 2 3 -1 -3
BITMAP
40
80
40
ENDCHAR
STARTCHAR 0355
ENCODING 853
SWIDTH 0 0
DWIDTH 0 0
BBX 2 3 -1 -3
BITMAP
80
40
80
ENDCHAR
STARTCHAR 0356
ENCODING 854
SWIDTH 0 0
DWIDTH 0 0
BBX 5 3 -2 -3
BITMAP
80
50
A8
ENDCHAR
STARTCHAR 0357
ENCODING 855
SWIDTH 0 0
DWIDTH 0 0
BBX 2 3 -1 8
BITMAP
80
40
80
ENDCHAR
STARTCHAR 0358
ENCODING 856
SWIDTH 0 0
DWIDTH 0 0
BBX 1 1 2 8
BITMAP
80
ENDCHAR
STARTCHAR 0359
ENCODING 857
SWIDTH 0 0
DWIDTH 0 0
BBX 2 3 -1 -3
BITMAP
80
C0
C0
ENDCHAR
STARTCHAR 035A
ENCODING 858
SWIDTH 0 0
DWIDTH 0 0
BBX 4 3 -2 -3
BITMAP
F0
B0
F0
ENDCHAR
STARTCHAR 035B
ENCODING 859
SWIDTH 0 0
DWIDTH 0 0
BBX 2 3 -1 8
BITMAP
80
C0
40
ENDCHAR
STARTCHAR 035C
ENCODING 860
SWIDTH 0 0
DWIDTH 0 0
BBX 11 3 -1 -3
BITMAP
8020
40C0
3F00
ENDCHAR
STARTCHAR 035D
ENCODING 861
SWIDTH 0 0
DWIDTH 0 0
BBX 10 3 -1 8
BITMAP
8040
40C0
3F00
ENDCHAR
STARTCHAR 035E
ENCODING 862
SWIDTH 0 0
DWIDTH 0 0
BBX 7 1 -1 9
BITMAP
FE
ENDCHAR
STARTCHAR 035F
ENCODING 863
SWIDTH 0 0
DWIDTH 0 0
BBX 7 1 -1 -2
BITMAP
FE
ENDCHAR
STARTCHAR 0360
ENCODING 864
SWIDTH 0 0
DWIDTH 0 0
BBX 10 2 -1 8
BITMAP
7840
87C0
ENDCHAR
STARTCHAR 0361
ENCODING 865
SWIDTH 0 0
DWIDTH 0 0
BBX 10 3 -1 8
BITMAP
3F00
40C0
8040
ENDCHAR
STARTCHAR 0362
ENCODING 866
SWIDTH 0 0
DWIDTH 0 0
BBX 8 1 -1 -2
BITMAP
FF
ENDCHAR
STARTCHAR 0363
ENCODING 867
SWIDTH 0 0
DWIDTH 0 0
BBX 5 6 -3 3
BITMAP
70
08
78
88
98
68
ENDCHAR
STARTCHAR 0364
ENCODING 868
SWIDTH 0 0
DWIDTH 0 0
BBX 5 6 -3 3
BITMAP
70
88
F8
80
48
70
ENDCHAR
STARTCHAR 0365
ENCODING 869
SWIDTH 0 0
DWIDTH 0 0
BBX 1 6 0 5
BITMAP
80
80
80
80
80
80
ENDCHAR
STARTCHAR 0366
ENCODING 870
SWIDTH 0 0
DWIDTH 0 0
BBX 5 6 -3 3
BITMAP
70
48
88
88
48
70
ENDCHAR
STARTCHAR 0367
ENCODING 871
SWIDTH 0 0
DWIDTH 0 0
BBX 4 6 -2 3
BITMAP
90
90
90
90
90
F0
ENDCHAR
STARTCHAR 0368
ENCODING 872
SWIDTH 0 0
DWIDTH 0 0
BBX 4 6 -2 3
BITMAP
60
90
80
80
90
60
ENDCHAR
STARTCHAR 0369
ENCODING 873
SWIDTH 0 0
DWIDTH 0 0
BBX 5 7 -3 3
BITMAP
08
78
48
88
88
88
78
ENDCHAR
STARTCHAR 036A
ENCODING 874
SWIDTH 0 0
DWIDTH 0 0
BBX 4 8 -2 3
BITMAP
80
80
F0
90
90
90
90
90
ENDCHAR
STARTCHAR 036B
ENCODING 875
SWIDTH 0 0
DWIDTH 0 0
BBX 6 6 -3 3
BITMAP
EC
94
A4
A4
A4
A4
ENDCHAR
STARTCHAR 036C
ENCODING 876
SWIDTH 0 0
DWIDTH 0 0
BBX 2 6 -1 3
BITMAP
C0
80
80
80
80
80
ENDCHAR
STARTCHAR 036D
ENCODING 877
SWIDTH 0 0
DWIDTH 0 0
BBX 3 7 -1 3
BITMAP
40
E0
40
40
40
40
60
ENDCHAR
STARTCHAR 036E
ENCODING 878
SWIDTH 0 0
DWIDTH 0 0
BBX 5 6 -2 3
BITMAP
88
90
50
50
60
20
ENDCHAR
STARTCHAR 036F
ENCODING 879
SWIDTH 0 0
DWIDTH 0 0
BBX 4 6 -2 3
BITMAP
90
60
60
60
60
90
ENDCHAR
STARTCHAR 0374
ENCODING 884
SWIDTH 360 0
DWIDTH 5 0
BBX 2 2 2 8
BITMAP
C0
80
ENDCHAR
STARTCHAR 0375
ENCODING 885
SWIDTH 360 0
DWIDTH 5 0
BBX 2 2 1 -3
BITMAP
40
80
ENDCHAR
STARTCHAR 037A
ENCODING 890
SWIDTH 360 0
DWIDTH 5 0
BBX 1 2 2 -3
BITMAP
80
80
ENDCHAR
STARTCHAR 037B
ENCODING 891
SWIDTH 504 0
DWIDTH 7 0
BBX 5 7 1 0
BITMAP
F0
88
08
08
08
88
F0
ENDCHAR
STARTCHAR 037C
ENCODING 892
SWIDTH 504 0
DWIDTH 7 0
BBX 6 7 1 0
BITMAP
78
88
80
A0
80
8C
78
ENDCHAR
STARTCHAR 037D
ENCODING 893
SWIDTH 504 0
DWIDTH 7 0
BBX 5 7 1 0
BITMAP
F0
88
08
48
08
88
F0
ENDCHAR
STARTCHAR 037E
ENCODING 894
SWIDTH 288 0
DWIDTH 4 0
BBX 2 9 1 -2
BITMAP
C0
00
00
00
00
00
C0
40
80
ENDCHAR
STARTCHAR 0384
ENCODING 900
SWIDTH 360 0
DWIDTH 5 0
BBX 2 2 1 8
BITMAP
40
80
ENDCHAR
STARTCHAR 0385
ENCODING 901
SWIDTH 360 0
DWIDTH 5 0
BBX 4 3 0 8
BITMAP
20
20
B0
ENDCHAR
STARTCHAR 0386
ENCODING 902
SWIDTH 648 0
DWIDTH 9 0
BBX 9 10 0 0
BITMAP
4C00
9C00
1400
1200
2200
2300
7F00
4100
4180
C080
ENDCHAR
STARTCHAR 0387
ENCODING 903
SWIDTH 288 0
DWIDTH 4 0
BBX 2 1 1 4
BITMAP
C0
ENDCHAR
STARTCHAR 0388
ENCODING 904
SWIDTH 792 0
DWIDTH 11 0
BBX 11 10 0 0
BITMAP
5FC0
9000
1000
1000
1FC0
1000
1000
1000
1000
1FE0
ENDCHAR
STARTCHAR 0389
ENCODING 905
SWIDTH 864 0
DWIDTH 12 0
BBX 11 10 0 0
BITMAP
5020
9020
1020
1020
1FE0
1020
1020
1020
1020
1020
ENDCHAR
STARTCHAR 038A
ENCODING 906
SWIDTH 360 0
DWIDTH 5 0
BBX 5 10 -1 0
BITMAP
58
98
18
18
18
18
18
18
18
18
ENDCHAR
STARTCHAR 038C
ENCODING 908
SWIDTH 792 0
DWIDTH 11 0
BBX 11 10 -1 0
BITMAP
4F80
98C0
3060
2020
2020
2020
2020
3060
18C0
0F80
ENDCHAR
STARTCHAR 038E
ENCODING 910
SWIDTH 864 0
DWIDTH 12 0
BBX 12 10 0 0
BITMAP
4830
8C20
0440
02C0
0280
0180
0100
0100
0100
0100
ENDCHAR
STARTCHAR 038F
ENCODING 911
SWIDTH 792 0
DWIDTH 11 0
BBX 11 10 -1 0
BITMAP
4F80
90C0
3040
2060
2060
2060
3040
10C0
0D80
3DE0
ENDCHAR
STARTCHAR 0390
ENCODING 912
SWIDTH 216 0
DWIDTH 3 0
BBX 4 11 -1 0
BITMAP
20
20
B0
00
20
20
20
20
20
20
20
ENDCHAR
STARTCHAR 0391
ENCODING 913
SWIDTH 648 0
DWIDTH 9 0
BBX 9 10 0 0
BITMAP
0C00
1C00
1400
1200
2200
2300
7F00
4100
4180
C080
ENDCHAR
STARTCHAR 0392
ENCODING 914
SWIDTH 648 0
DWIDTH 9 0
BBX 8 10 1 0
BITMAP
FC
86
82
86
FC
82
83
83
82
FC
ENDCHAR
STARTCHAR 0393
ENCODING 915
SWIDTH 576 0
DWIDTH 8 0
BBX 6 10 1 0
BITMAP
FC
80
80
80
80
80
80
80
80
80
ENDCHAR
STARTCHAR 0394
ENCODING 916
SWIDTH 648 0
DWIDTH 9 0
BBX 9 10 0 0
BITMAP
0C00
1C00
1400
1200
2200
2300
6100
4100
4180
FF80
ENDCHAR
STARTCHAR 0395
ENCODING 917
SWIDTH 648 0
DWIDTH 9 0
BBX 8 10 1 0
BITMAP
FE
80
80
80
FE
80
80
80
80
FF
ENDCHAR
STARTCHAR 0396
ENCODING 918
SWIDTH 648 0
DWIDTH 9 0
BBX 8 10 0 0
BITMAP
7F
02
06
04
08
10
30
20
40
FF
ENDCHAR
STARTCHAR 0397
ENCODING 919
SWIDTH 720 0
DWIDTH 10 0
BBX 8 10 1 0
BITMAP
81
81
81
81
FF
81
81
81
81
81
ENDCHAR
STARTCHAR 0398
ENCODING 920
SWIDTH 792 0
DWIDTH 11 0
BBX 9 10 1 0
BITMAP
3E00
6300
C180
8080
BC80
8080
8080
C180
6300
3E00
ENDCHAR
STARTCHAR 0399
ENCODING 921
SWIDTH 288 0
DWIDTH 4 0
BBX 2 10 1 0
BITMAP
C0
C0
C0
C0
C0
C0
C0
C0
C0
C0
ENDCHAR
STARTCHAR 039A
ENCODING 922
SWIDTH 648 0
DWIDTH 9 0
BBX 8 10 1 0
BITMAP
82
84
88
90
B0
D0
88
84
86
83
ENDCHAR
STARTCHAR 039B
ENCODING 923
SWIDTH 648 0
DWIDTH 9 0
BBX 9 10 0 0
BITMAP
0C00
1C00
1400
1600
3200
2300
6100
4100
4180
C080
ENDCHAR
STARTCHAR 039C
ENCODING 924
SWIDTH 864 0
DWIDTH 12 0
BBX 10 10 1 0
BITMAP
C0C0
C1C0
A1C0
A1C0
B2C0
92C0
92C0
9CC0
8CC0
88C0
ENDCHAR
STARTCHAR 039D
ENCODING 925
SWIDTH 720 0
DWIDTH 10 0
BBX 8 10 1 0
BITMAP
C1
E1
A1
B1
91
89
8D
85
87
83
ENDCHAR
STARTCHAR 039E
ENCODING 926
SWIDTH 648 0
DWIDTH 9 0
BBX 7 10 1 0
BITMAP
FE
00
00
00
7C
00
00
00
00
FE
ENDCHAR
STARTCHAR 039F
ENCODING 927
SWIDTH 792 0
DWIDTH 11 0
BBX 9 10 1 0
BITMAP
3E00
6300
C180
8080
8080
8080
8080
C180
6300
3E00
ENDCHAR
STARTCHAR 03A0
ENCODING 928
SWIDTH 720 0
DWIDTH 10 0
BBX 8 10 1 0
BITMAP
FF
81
81
81
81
81
81
81
81
81
ENDCHAR
STARTCHAR 03A1
ENCODING 929
SWIDTH 648 0
DWIDTH 9 0
BBX 8 10 1 0
BITMAP
FC
82
83
83
82
FC
80
80
80
80
ENDCHAR
STARTCHAR 03A3
ENCODING 931
SWIDTH 648 0
DWIDTH 9 0
BBX 7 10 1 0
BITMAP
FE
C0
60
30
10
10
20
40
80
FE
ENDCHAR
STARTCHAR 03A4
ENCODING 932
SWIDTH 648 0
DWIDTH 9 0
BBX 8 10 0 0
BITMAP
FF
08
08
08
08
08
08
08
08
08
ENDCHAR
STARTCHAR 03A5
ENCODING 933
SWIDTH 648 0
DWIDTH 9 0
BBX 8 10 1 0
BITMAP
83
C2
44
2C
28
18
10
10
10
10
ENDCHAR
STARTCHAR 03A6
ENCODING 934
SWIDTH 792 0
DWIDTH 11 0
BBX 9 10 1 0
BITMAP
0800
7F00
C980
8880
8880
8880
C980
7F00
0800
0800
ENDCHAR
STARTCHAR 03A7
ENCODING 935
SWIDTH 648 0
DWIDTH 9 0
BBX 8 10 1 0
BITMAP
82
46
64
28
18
38
2C
44
C2
83
ENDCHAR
STARTCHAR 03A8
ENCODING 936
SWIDTH 864 0
DWIDTH 12 0
BBX 10 10 1 0
BITMAP
88C0
88C0
88C0
88C0
88C0
4880
3F00
0800
0800
0800
ENDCHAR
STARTCHAR 03A9
ENCODING 937
SWIDTH 720 0
DWIDTH 10 0
BBX 9 10 1 0
BITMAP
3E00
4300
C100
8180
8180
8180
C100
4300
3600
F780
ENDCHAR
STARTCHAR 03AA
ENCODING 938
SWIDTH 288 0
DWIDTH 4 0
BBX 4 12 0 0
BITMAP
90
00
60
60
60
60
60
60
60
60
60
60
ENDCHAR
STARTCHAR 03AB
ENCODING 939
SWIDTH 648 0
DWIDTH 9 0
BBX 8 12 1 0
BITMAP
2C
00
83
C2
44
2C
28
18
10
10
10
10
ENDCHAR
STARTCHAR 03AC
ENCODING 940
SWIDTH 576 0
DWIDTH 8 0
BBX 6 10 1 0
BITMAP
10
20
00
74
8C
8C
84
8C
8C
74
ENDCHAR
STARTCHAR 03AD
ENCODING 941
SWIDTH 432 0
DWIDTH 6 0
BBX 5 10 1 0
BITMAP
20
40
00
F0
80
80
60
80
88
F0
ENDCHAR
STARTCHAR 03AE
ENCODING 942
SWIDTH 576 0
DWIDTH 8 0
BBX 6 13 1 -3
BITMAP
10
20
00
B8
CC
84
84
84
84
84
04
04
04
ENDCHAR
STARTCHAR 03AF
ENCODING 943
SWIDTH 216 0
DWIDTH 3 0
BBX 2 10 1 0
BITMAP
40
80
00
80
80
80
80
80
80
80
ENDCHAR
STARTCHAR 03B0
ENCODING 944
SWIDTH 576 0
DWIDTH 8 0
BBX 6 11 1 0
BITMAP
10
10
58
00
88
8C
84
84
84
8C
78
ENDCHAR
STARTCHAR 03B1
ENCODING 945
SWIDTH 576 0
DWIDTH 8 0
BBX 6 7 1 0
BITMAP
74
8C
8C
84
8C
8C
74
ENDCHAR
STARTCHAR 03B2
ENCODING 946
SWIDTH 576 0
DWIDTH 8 0
BBX 6 13 1 -3
BITMAP
78
CC
84
88
98
84
84
84
84
F8
80
80
80
ENDCHAR
STARTCHAR 03B3
ENCODING 947
SWIDTH 504 0
DWIDTH 7 0
BBX 7 10 0 -3
BITMAP
C6
44
44
6C
28
28
10
10
10
30
ENDCHAR
STARTCHAR 03B4
ENCODING 948
SWIDTH 576 0
DWIDTH 8 0
BBX 6 10 1 0
BITMAP
7C
60
30
38
CC
84
84
84
8C
78
ENDCHAR
STARTCHAR 03B5
ENCODING 949
SWIDTH 432 0
DWIDTH 6 0
BBX 5 7 1 0
BITMAP
F0
80
80
60
80
88
F0
ENDCHAR
STARTCHAR 03B6
ENCODING 950
SWIDTH 432 0
DWIDTH 6 0
BBX 5 12 1 -2
BITMAP
F8
10
20
40
40
80
80
80
C0
78
08
08
ENDCHAR
STARTCHAR 03B7
ENCODING 951
SWIDTH 576 0
DWIDTH 8 0
BBX 6 10 1 -3
BITMAP
B8
CC
84
84
84
84
84
04
04
04
ENDCHAR
STARTCHAR 03B8
ENCODING 952
SWIDTH 576 0
DWIDTH 8 0
BBX 6 10 1 0
BITMAP
78
C8
84
84
84
FC
84
84
C8
78
ENDCHAR
STARTCHAR 03B9
ENCODING 953
SWIDTH 216 0
DWIDTH 3 0
BBX 1 7 1 0
BITMAP
80
80
80
80
80
80
80
ENDCHAR
STARTCHAR 03BA
ENCODING 954
SWIDTH 504 0
DWIDTH 7 0
BBX 6 7 1 0
BITMAP
88
90
A0
E0
90
98
8C
ENDCHAR
STARTCHAR 03BB
ENCODING 955
SWIDTH 504 0
DWIDTH 7 0
BBX 7 10 0 0
BITMAP
60
30
10
10
18
28
2C
64
44
C6
ENDCHAR
STARTCHAR 03BC
ENCODING 956
SWIDTH 576 0
DWIDTH 8 0
BBX 6 10 1 -3
BITMAP
84
84
84
84
84
CC
F4
80
80
80
ENDCHAR
STARTCHAR 03BD
ENCODING 957
SWIDTH 504 0
DWIDTH 7 0
BBX 6 7 0 0
BITMAP
84
44
44
64
2C
28
30
ENDCHAR
STARTCHAR 03BE
ENCODING 958
SWIDTH 432 0
DWIDTH 6 0
BBX 5 12 1 -2
BITMAP
F0
40
40
40
30
C0
80
80
C0
78
08
08
ENDCHAR
STARTCHAR 03BF
ENCODING 959
SWIDTH 576 0
DWIDTH 8 0
BBX 6 7 1 0
BITMAP
78
8C
84
84
84
8C
78
ENDCHAR
STARTCHAR 03C0
ENCODING 960
SWIDTH 720 0
DWIDTH 10 0
BBX 8 7 1 0
BITMAP
FF
44
44
44
44
44
47
ENDCHAR
STARTCHAR 03C1
ENCODING 961
SWIDTH 576 0
DWIDTH 8 0
BBX 6 10 1 -3
BITMAP
78
CC
84
84
84
C4
B8
80
80
80
ENDCHAR
STARTCHAR 03C2
ENCODING 962
SWIDTH 504 0
DWIDTH 7 0
BBX 5 9 1 -2
BITMAP
78
C0
80
80
80
C0
78
08
08
ENDCHAR
STARTCHAR 03C3
ENCODING 963
SWIDTH 648 0
DWIDTH 9 0
BBX 7 7 1 0
BITMAP
7E
C4
84
84
84
8C
78
ENDCHAR
STARTCHAR 03C4
ENCODING 964
SWIDTH 432 0
DWIDTH 6 0
BBX 5 7 0 0
BITMAP
F8
20
20
20
20
20
38
ENDCHAR
STARTCHAR 03C5
ENCODING 965
SWIDTH 576 0
DWIDTH 8 0
BBX 6 7 1 0
BITMAP
88
8C
84
84
84
8C
78
ENDCHAR
STARTCHAR 03C6
ENCODING 966
SWIDTH 648 0
DWIDTH 9 0
BBX 7 10 1 -3
BITMAP
6C
D2
92
92
92
92
7C
10
10
10
ENDCHAR
STARTCHAR 03C7
ENCODING 967
SWIDTH 504 0
DWIDTH 7 0
BBX 7 10 0 -3
BITMAP
C6
64
24
18
10
18
28
24
44
C2
ENDCHAR
STARTCHAR 03C8
ENCODING 968
SWIDTH 720 0
DWIDTH 10 0
BBX 8 12 1 -3
BITMAP
18
18
99
99
99
99
99
DB
7E
18
18
18
ENDCHAR
STARTCHAR 03C9
ENCODING 969
SWIDTH 792 0
DWIDTH 11 0
BBX 9 7 1 0
BITMAP
6300
C180
8880
8880
8880
9480
7700
ENDCHAR
STARTCHAR 03CA
ENCODING 970
SWIDTH 216 0
DWIDTH 3 0
BBX 4 9 -1 0
BITMAP
90
00
20
20
20
20
20
20
20
ENDCHAR
STARTCHAR 03CB
ENCODING 971
SWIDTH 576 0
DWIDTH 8 0
BBX 6 9 1 0
BITMAP
48
00
88
8C
84
84
84
8C
78
ENDCHAR
STARTCHAR 03CC
ENCODING 972
SWIDTH 576 0
DWIDTH 8 0
BBX 6 10 1 0
BITMAP
10
20
00
78
8C
84
84
84
8C
78
ENDCHAR
STARTCHAR 03CD
ENCODING 973
SWIDTH 576 0
DWIDTH 8 0
BBX 6 10 1 0
BITMAP
10
20
00
88
8C
84
84
84
8C
78
ENDCHAR
STARTCHAR 03CE
ENCODING 974
SWIDTH 792 0
DWIDTH 11 0
BBX 9 10 1 0
BITMAP
0400
0800
0000
6300
C180
8880
8880
8880
9480
7700
ENDCHAR
STARTCHAR 03D0
ENCODING 976
SWIDTH 576 0
DWIDTH 8 0
BBX 6 10 1 0
BITMAP
78
C8
F8
80
B8
C4
84
84
C4
78
ENDCHAR
STARTCHAR 03D1
ENCODING 977
SWIDTH 576 0
DWIDTH 8 0
BBX 8 10 0 0
BITMAP
3C
24
22
22
1F
C2
22
44
44
38
ENDCHAR
STARTCHAR 03D2
ENCODING 978
SWIDTH 792 0
DWIDTH 11 0
BBX 9 10 1 0
BITMAP
8180
C200
4600
2400
3800
1800
1000
1000
1000
1000
ENDCHAR
STARTCHAR 03D3
ENCODING 979
SWIDTH 936 0
DWIDTH 13 0
BBX 13 10 0 0
BITMAP
C818
8C20
0460
0240
0380
0180
0100
0100
0100
0100
ENDCHAR
STARTCHAR 03D4
ENCODING 980
SWIDTH 792 0
DWIDTH 11 0
BBX 9 12 1 0
BITMAP
2400
0000
8180
C200
4600
2400
3800
1800
1000
1000
1000
1000
ENDCHAR
STARTCHAR 03D5
ENCODING 981
SWIDTH 576 0
DWIDTH 8 0
BBX 6 13 1 -3
BITMAP
20
20
20
78
A4
A4
A4
A4
A4
78
20
20
20
ENDCHAR
STARTCHAR 03D6
ENCODING 982
SWIDTH 792 0
DWIDTH 11 0
BBX 9 7 1 0
BITMAP
FF80
8080
8880
8880
8880
9880
7700
ENDCHAR
STARTCHAR 03D7
ENCODING 983
SWIDTH 576 0
DWIDTH 8 0
BBX 7 10 1 -3
BITMAP
C6
4C
5C
54
68
C4
C6
02
02
0E
ENDCHAR
STARTCHAR 03D8
ENCODING 984
SWIDTH 792 0
DWIDTH 11 0
BBX 9 13 1 -3
BITMAP
3E00
6300
C180
8080
8080
8080
8080
C180
6300
3E00
0800
0800
0800
ENDCHAR
STARTCHAR 03D9
ENCODING 985
SWIDTH 576 0
DWIDTH 8 0
BBX 6 10 1 -3
BITMAP
78
8C
84
84
84
8C
78
20
20
20
ENDCHAR
STARTCHAR 03DA
ENCODING 986
SWIDTH 720 0
DWIDTH 10 0
BBX 8 10 1 0
BITMAP
3E
43
81
80
80
80
40
38
08
08
ENDCHAR
STARTCHAR 03DB
ENCODING 987
SWIDTH 504 0
DWIDTH 7 0
BBX 5 10 1 -3
BITMAP
78
88
80
80
80
C0
78
08
08
F8
ENDCHAR
STARTCHAR 03DC
ENCODING 988
SWIDTH 648 0
DWIDTH 9 0
BBX 7 10 1 0
BITMAP
FE
80
80
80
FC
84
84
80
80
80
ENDCHAR
STARTCHAR 03DD
ENCODING 989
SWIDTH 432 0
DWIDTH 6 0
BBX 4 10 1 -3
BITMAP
F0
80
80
F0
90
80
80
80
80
80
ENDCHAR
STARTCHAR 03DE
ENCODING 990
SWIDTH 648 0
DWIDTH 9 0
BBX 9 10 0 0
BITMAP
C000
6000
2100
2600
6E00
5200
6200
4200
0200
0380
ENDCHAR
STARTCHAR 03DF
ENCODING 991
SWIDTH 504 0
DWIDTH 7 0
BBX 7 10 0 0
BITMAP
20
20
60
40
FE
06
04
04
0C
08
ENDCHAR
STARTCHAR 03E0
ENCODING 992
SWIDTH 792 0
DWIDTH 11 0
BBX 10 13 0 -3
BITMAP
3E00
6300
8180
0380
0CC0
00C0
0340
0C40
00C0
0080
0180
0300
0C00
ENDCHAR
STARTCHAR 03E1
ENCODING 993
SWIDTH 576 0
DWIDTH 8 0
BBX 7 13 1 -3
BITMAP
C0
60
10
18
3C
44
0C
36
06
06
06
06
04
ENDCHAR
STARTCHAR 03E2
ENCODING 994
SWIDTH 864 0
DWIDTH 12 0
BBX 10 13 1 -3
BITMAP
8440
8440
8440
8440
8440
8440
8440
8440
CC40
77C0
0040
0040
FF80
ENDCHAR
STARTCHAR 03E3
ENCODING 995
SWIDTH 864 0
DWIDTH 12 0
BBX 10 10 1 -3
BITMAP
88C0
88C0
88C0
88C0
88C0
8CC0
7740
00C0
0080
FF80
ENDCHAR
STARTCHAR 03E4
ENCODING 996
SWIDTH 648 0
DWIDTH 9 0
BBX 7 10 1 0
BITMAP
72
C2
82
82
82
C2
7E
02
02
02
ENDCHAR
STARTCHAR 03E5
ENCODING 997
SWIDTH 576 0
DWIDTH 8 0
BBX 6 10 1 0
BITMAP
E4
84
84
84
84
8C
74
04
04
04
ENDCHAR
STARTCHAR 03E6
ENCODING 998
SWIDTH 648 0
DWIDTH 9 0
BBX 8 13 1 -3
BITMAP
80
80
80
BC
C6
82
83
83
83
83
02
06
F8
ENDCHAR
STARTCHAR 03E7
ENCODING 999
SWIDTH 504 0
DWIDTH 7 0
BBX 7 7 0 1
BITMAP
7C
4C
76
06
06
C4
B8
ENDCHAR
STARTCHAR 03E8
ENCODING 1000
SWIDTH 648 0
DWIDTH 9 0
BBX 8 10 1 0
BITMAP
7C
C2
02
02
3C
E3
81
83
C2
7C
ENDCHAR
STARTCHAR 03E9
ENCODING 1001
SWIDTH 648 0
DWIDTH 9 0
BBX 7 10 1 0
BITMAP
7C
C2
02
02
3C
E0
80
80
C2
7E
ENDCHAR
STARTCHAR 03EA
ENCODING 1002
SWIDTH 648 0
DWIDTH 9 0
BBX 8 10 0 0
BITMAP
67
95
1C
18
18
14
34
26
22
7E
ENDCHAR
STARTCHAR 03EB
ENCODING 1003
SWIDTH 576 0
DWIDTH 8 0
BBX 8 7 0 0
BITMAP
67
95
18
08
18
14
3C
ENDCHAR
STARTCHAR 03EC
ENCODING 1004
SWIDTH 720 0
DWIDTH 10 0
BBX 9 10 1 0
BITMAP
3E00
4000
BE00
C300
8100
8180
8180
8100
C300
3E00
ENDCHAR
STARTCHAR 03ED
ENCODING 1005
SWIDTH 576 0
DWIDTH 8 0
BBX 6 7 1 0
BITMAP
7C
C0
B8
84
84
84
78
ENDCHAR
STARTCHAR 03EE
ENCODING 1006
SWIDTH 504 0
DWIDTH 7 0
BBX 6 10 0 0
BITMAP
10
10
7C
94
94
10
10
10
10
10
ENDCHAR
STARTCHAR 03EF
ENCODING 1007
SWIDTH 432 0
DWIDTH 6 0
BBX 5 10 0 0
BITMAP
30
20
20
F8
A0
20
20
20
20
20
ENDCHAR
STARTCHAR 03F0
ENCODING 1008
SWIDTH 576 0
DWIDTH 8 0
BBX 7 7 1 0
BITMAP
C6
4C
5C
54
68
C4
C6
ENDCHAR
STARTCHAR 03F1
ENCODING 1009
SWIDTH 576 0
DWIDTH 8 0
BBX 6 10 1 -3
BITMAP
78
C4
84
84
84
C4
F8
80
C0
7C
ENDCHAR
STARTCHAR 03F2
ENCODING 1010
SWIDTH 504 0
DWIDTH 7 0
BBX 6 7 1 0
BITMAP
78
88
80
80
80
8C
78
ENDCHAR
STARTCHAR 03F3
ENCODING 1011
SWIDTH 216 0
DWIDTH 3 0
BBX 2 13 0 -3
BITMAP
40
00
00
40
40
40
40
40
40
40
40
40
C0
ENDCHAR
STARTCHAR 03F4
ENCODING 1012
SWIDTH 792 0
DWIDTH 11 0
BBX 9 10 1 0
BITMAP
3E00
6300
C180
8080
FF80
8080
8080
C180
6300
3E00
ENDCHAR
STARTCHAR 03F5
ENCODING 1013
SWIDTH 432 0
DWIDTH 6 0
BBX 5 7 1 0
BITMAP
78
80
80
E0
80
80
78
ENDCHAR
STARTCHAR 03F6
ENCODING 1014
SWIDTH 432 0
DWIDTH 6 0
BBX 5 7 1 0
BITMAP
E0
10
18
78
18
10
E0
ENDCHAR
STARTCHAR 03F7
ENCODING 1015
SWIDTH 648 0
DWIDTH 9 0
BBX 8 10 1 0
BITMAP
80
80
FC
82
83
83
82
FC
80
80
ENDCHAR
STARTCHAR 03F8
ENCODING 1016
SWIDTH 576 0
DWIDTH 8 0
BBX 6 13 1 -3
BITMAP
80
80
80
B8
CC
84
84
84
CC
B8
80
80
80
ENDCHAR
STARTCHAR 03F9
ENCODING 1017
SWIDTH 720 0
DWIDTH 10 0
BBX 9 10 1 0
BITMAP
3E00
6300
C100
8000
8000
8000
8000
C180
6300
3E00
ENDCHAR
STARTCHAR 03FA
ENCODING 1018
SWIDTH 864 0
DWIDTH 12 0
BBX 10 10 1 0
BITMAP
C0C0
E1C0
A3C0
92C0
9CC0
8CC0
80C0
80C0
80C0
80C0
ENDCHAR
STARTCHAR 03FB
ENCODING 1019
SWIDTH 720 0
DWIDTH 10 0
BBX 8 10 1 -3
BITMAP
C3
C5
A7
A7
AB
9B
9B
80
80
80
ENDCHAR
STARTCHAR 03FC
ENCODING 1020
SWIDTH 576 0
DWIDTH 8 0
BBX 7 10 0 -3
BITMAP
3C
66
42
42
42
62
5C
40
F0
40
ENDCHAR
STARTCHAR 03FD
ENCODING 1021
SWIDTH 720 0
DWIDTH 10 0
BBX 8 10 1 0
BITMAP
3C
C6
83
01
01
01
01
81
C2
7C
ENDCHAR
STARTCHAR 03FE
ENCODING 1022
SWIDTH 720 0
DWIDTH 10 0
BBX 9 10 1 0
BITMAP
3E00
6300
C100
8000
8000
8C00
8000
C180
6300
3E00
ENDCHAR
STARTCHAR 03FF
ENCODING 1023
SWIDTH 720 0
DWIDTH 10 0
BBX 8 10 1 0
BITMAP
3C
C6
83
01
01
19
01
81
C2
7C
ENDCHAR
STARTCHAR 0400
ENCODING 1024
SWIDTH 648 0
DWIDTH 9 0
BBX 8 13 1 0
BITMAP
30
10
00
FE
80
80
80
FE
80
80
80
80
FF
ENDCHAR
STARTCHAR 0401
ENCODING 1025
SWIDTH 648 0
DWIDTH 9 0
BBX 8 12 1 0
BITMAP
24
00
FE
80
80
80
FE
80
80
80
80
FF
ENDCHAR
STARTCHAR 0402
ENCODING 1026
SWIDTH 864 0
DWIDTH 12 0
BBX 11 10 0 0
BITMAP
FF00
0800
0800
0FC0
0860
0820
0820
0820
0820
09C0
ENDCHAR
STARTCHAR 0403
ENCODING 1027
SWIDTH 576 0
DWIDTH 8 0
BBX 6 13 1 0
BITMAP
08
10
00
FC
80
80
80
80
80
80
80
80
80
ENDCHAR
STARTCHAR 0404
ENCODING 1028
SWIDTH 720 0
DWIDTH 10 0
BBX 9 10 1 0
BITMAP
3E00
6300
C100
8000
FC00
8000
8000
C180
6300
3E00
ENDCHAR
STARTCHAR 0405
ENCODING 1029
SWIDTH 648 0
DWIDTH 9 0
BBX 8 10 1 0
BITMAP
7C
C2
80
C0
78
0E
03
03
82
7C
ENDCHAR
STARTCHAR 0406
ENCODING 1030
SWIDTH 288 0
DWIDTH 4 0
BBX 2 10 1 0
BITMAP
C0
C0
C0
C0
C0
C0
C0
C0
C0
C0
ENDCHAR
STARTCHAR 0407
ENCODING 1031
SWIDTH 288 0
DWIDTH 4 0
BBX 4 12 0 0
BITMAP
90
00
60
60
60
60
60
60
60
60
60
60
ENDCHAR
STARTCHAR 0408
ENCODING 1032
SWIDTH 504 0
DWIDTH 7 0
BBX 6 10 0 0
BITMAP
1C
04
04
04
04
04
04
C4
4C
78
ENDCHAR
STARTCHAR 0409
ENCODING 1033
SWIDTH 1080 0
DWIDTH 15 0
BBX 14 10 0 0
BITMAP
1F00
1100
3100
3100
21F8
210C
2104
2104
610C
C1F8
ENDCHAR
STARTCHAR 040A
ENCODING 1034
SWIDTH 1008 0
DWIDTH 14 0
BBX 12 10 1 0
BITMAP
8600
8600
8600
8600
FFE0
8630
8610
8610
8610
87E0
ENDCHAR
STARTCHAR 040B
ENCODING 1035
SWIDTH 864 0
DWIDTH 12 0
BBX 11 10 0 0
BITMAP
FF80
0800
0800
0FC0
0860
0820
0820
0820
0820
0820
ENDCHAR
STARTCHAR 040C
ENCODING 1036
SWIDTH 576 0
DWIDTH 8 0
BBX 7 13 1 0
BITMAP
08
10
00
84
8C
88
90
F0
90
88
8C
84
86
ENDCHAR
STARTCHAR 040D
ENCODING 1037
SWIDTH 720 0
DWIDTH 10 0
BBX 8 13 1 0
BITMAP
30
10
00
83
87
85
8D
89
91
B1
A1
E1
C1
ENDCHAR
STARTCHAR 040E
ENCODING 1038
SWIDTH 648 0
DWIDTH 9 0
BBX 8 13 1 0
BITMAP
44
78
00
83
C2
46
64
2C
18
18
10
30
E0
ENDCHAR
STARTCHAR 040F
ENCODING 1039
SWIDTH 720 0
DWIDTH 10 0
BBX 8 13 1 -3
BITMAP
81
81
81
81
81
81
81
81
81
FF
18
18
18
ENDCHAR
STARTCHAR 0410
ENCODING 1040
SWIDTH 648 0
DWIDTH 9 0
BBX 9 10 0 0
BITMAP
0C00
1C00
1400
1200
2200
2300
7F00
4100
4180
C080
ENDCHAR
STARTCHAR 0411
ENCODING 1041
SWIDTH 648 0
DWIDTH 9 0
BBX 7 10 1 0
BITMAP
FC
80
80
80
FC
82
82
82
82
FC
ENDCHAR
STARTCHAR 0412
ENCODING 1042
SWIDTH 648 0
DWIDTH 9 0
BBX 8 10 1 0
BITMAP
FC
86
82
86
FC
82
83
83
82
FC
ENDCHAR
STARTCHAR 0413
ENCODING 1043
SWIDTH 576 0
DWIDTH 8 0
BBX 6 10 1 0
BITMAP
FC
80
80
80
80
80
80
80
80
80
ENDCHAR
STARTCHAR 0414
ENCODING 1044
SWIDTH 648 0
DWIDTH 9 0
BBX 9 13 0 -3
BITMAP
1F00
1100
1100
1100
1100
3100
2100
2100
6100
FF80
8080
8080
8080
ENDCHAR
STARTCHAR 0415
ENCODING 1045
SWIDTH 648 0
DWIDTH 9 0
BBX 8 10 1 0
BITMAP
FE
80
80
80
FE
80
80
80
80
FF
ENDCHAR
STARTCHAR 0416
ENCODING 1046
SWIDTH 936 0
DWIDTH 13 0
BBX 12 10 0 0
BITMAP
4210
2220
3260
12C0
1F80
1240
3260
2220
6230
C210
ENDCHAR
STARTCHAR 0417
ENCODING 1047
SWIDTH 576 0
DWIDTH 8 0
BBX 7 10 1 0
BITMAP
78
84
04
04
38
04
06
06
84
78
ENDCHAR
STARTCHAR 0418
ENCODING 1048
SWIDTH 720 0
DWIDTH 10 0
BBX 8 10 1 0
BITMAP
83
87
85
8D
89
91
B1
A1
E1
C1
ENDCHAR
STARTCHAR 0419
ENCODING 1049
SWIDTH 720 0
DWIDTH 10 0
BBX 8 13 1 0
BITMAP
22
3C
00
83
87
85
8D
89
91
B1
A1
E1
C1
ENDCHAR
STARTCHAR 041A
ENCODING 1050
SWIDTH 576 0
DWIDTH 8 0
BBX 7 10 1 0
BITMAP
84
8C
88
90
F0
90
88
8C
84
86
ENDCHAR
STARTCHAR 041B
ENCODING 1051
SWIDTH 648 0
DWIDTH 9 0
BBX 8 10 0 0
BITMAP
1F
11
31
31
21
21
21
21
61
C1
ENDCHAR
STARTCHAR 041C
ENCODING 1052
SWIDTH 864 0
DWIDTH 12 0
BBX 10 10 1 0
BITMAP
C0C0
C1C0
A1C0
A1C0
B2C0
92C0
92C0
9CC0
8CC0
88C0
ENDCHAR
STARTCHAR 041D
ENCODING 1053
SWIDTH 720 0
DWIDTH 10 0
BBX 8 10 1 0
BITMAP
81
81
81
81
FF
81
81
81
81
81
ENDCHAR
STARTCHAR 041E
ENCODING 1054
SWIDTH 792 0
DWIDTH 11 0
BBX 9 10 1 0
BITMAP
3E00
6300
C180
8080
8080
8080
8080
C180
6300
3E00
ENDCHAR
STARTCHAR 041F
ENCODING 1055
SWIDTH 720 0
DWIDTH 10 0
BBX 8 10 1 0
BITMAP
FF
81
81
81
81
81
81
81
81
81
ENDCHAR
STARTCHAR 0420
ENCODING 1056
SWIDTH 648 0
DWIDTH 9 0
BBX 8 10 1 0
BITMAP
FC
82
83
83
82
FC
80
80
80
80
ENDCHAR
STARTCHAR 0421
ENCODING 1057
SWIDTH 720 0
DWIDTH 10 0
BBX 9 10 1 0
BITMAP
3E00
6300
C100
8000
8000
8000
8000
C180
6300
3E00
ENDCHAR
STARTCHAR 0422
ENCODING 1058
SWIDTH 648 0
DWIDTH 9 0
BBX 8 10 0 0
BITMAP
FF
08
08
08
08
08
08
08
08
08
ENDCHAR
STARTCHAR 0423
ENCODING 1059
SWIDTH 648 0
DWIDTH 9 0
BBX 8 10 1 0
BITMAP
83
C2
46
64
2C
18
18
10
30
E0
ENDCHAR
STARTCHAR 0424
ENCODING 1060
SWIDTH 792 0
DWIDTH 11 0
BBX 9 10 1 0
BITMAP
0800
7E00
C900
8980
8880
8980
C900
7E00
0800
0800
ENDCHAR
STARTCHAR 0425
ENCODING 1061
SWIDTH 648 0
DWIDTH 9 0
BBX 8 10 1 0
BITMAP
82
46
64
28
18
38
2C
44
C2
83
ENDCHAR
STARTCHAR 0426
ENCODING 1062
SWIDTH 720 0
DWIDTH 10 0
BBX 9 13 1 -3
BITMAP
8100
8100
8100
8100
8100
8100
8100
8100
8100
FF80
0080
0080
0080
ENDCHAR
STARTCHAR 0427
ENCODING 1063
SWIDTH 648 0
DWIDTH 9 0
BBX 7 10 1 0
BITMAP
82
82
82
82
82
C2
7E
02
02
02
ENDCHAR
STARTCHAR 0428
ENCODING 1064
SWIDTH 936 0
DWIDTH 13 0
BBX 11 10 1 0
BITMAP
8460
8460
8460
8460
8460
8460
8460
8460
8460
FFE0
ENDCHAR
STARTCHAR 0429
ENCODING 1065
SWIDTH 936 0
DWIDTH 13 0
BBX 12 13 1 -3
BITMAP
8440
8440
8440
8440
8440
8440
8440
8440
8440
FFF0
0030
0030
0030
ENDCHAR
STARTCHAR 042A
ENCODING 1066
SWIDTH 792 0
DWIDTH 11 0
BBX 10 10 0 0
BITMAP
F800
1800
1800
1800
1F80
18C0
1840
1840
18C0
1F80
ENDCHAR
STARTCHAR 042B
ENCODING 1067
SWIDTH 864 0
DWIDTH 12 0
BBX 10 10 1 0
BITMAP
8040
8040
8040
8040
FC40
8240
8240
8240
8240
FC40
ENDCHAR
STARTCHAR 042C
ENCODING 1068
SWIDTH 648 0
DWIDTH 9 0
BBX 7 10 1 0
BITMAP
80
80
80
80
FC
82
82
82
82
FC
ENDCHAR
STARTCHAR 042D
ENCODING 1069
SWIDTH 720 0
DWIDTH 10 0
BBX 9 10 1 0
BITMAP
3C00
C200
8100
0100
1F80
0180
0100
8300
C600
3C00
ENDCHAR
STARTCHAR 042E
ENCODING 1070
SWIDTH 1008 0
DWIDTH 14 0
BBX 12 10 1 0
BITMAP
83C0
8C20
8810
8810
F810
9810
8810
8810
8420
83C0
ENDCHAR
STARTCHAR 042F
ENCODING 1071
SWIDTH 720 0
DWIDTH 10 0
BBX 8 10 1 0
BITMAP
7F
C1
81
C1
7F
21
21
41
C1
81
ENDCHAR
STARTCHAR 0430
ENCODING 1072
SWIDTH 576 0
DWIDTH 8 0
BBX 7 7 1 0
BITMAP
78
8C
0C
7C
8C
8C
F6
ENDCHAR
STARTCHAR 0431
ENCODING 1073
SWIDTH 576 0
DWIDTH 8 0
BBX 6 10 1 0
BITMAP
1C
60
80
B8
C4
84
84
84
C4
78
ENDCHAR
STARTCHAR 0432
ENCODING 1074
SWIDTH 504 0
DWIDTH 7 0
BBX 6 7 1 0
BITMAP
F8
8C
88
F8
8C
8C
F8
ENDCHAR
STARTCHAR 0433
ENCODING 1075
SWIDTH 360 0
DWIDTH 5 0
BBX 4 7 1 0
BITMAP
F0
80
80
80
80
80
80
ENDCHAR
STARTCHAR 0434
ENCODING 1076
SWIDTH 576 0
DWIDTH 8 0
BBX 8 10 0 -3
BITMAP
3E
32
22
22
22
62
FF
81
81
81
ENDCHAR
STARTCHAR 0435
ENCODING 1077
SWIDTH 576 0
DWIDTH 8 0
BBX 6 7 1 0
BITMAP
78
8C
84
FC
80
84
78
ENDCHAR
STARTCHAR 0436
ENCODING 1078
SWIDTH 648 0
DWIDTH 9 0
BBX 9 7 0 0
BITMAP
C880
4900
2B00
3E00
2B00
4900
C880
ENDCHAR
STARTCHAR 0437
ENCODING 1079
SWIDTH 432 0
DWIDTH 6 0
BBX 6 7 0 0
BITMAP
78
4C
0C
30
0C
CC
78
ENDCHAR
STARTCHAR 0438
ENCODING 1080
SWIDTH 576 0
DWIDTH 8 0
BBX 6 7 1 0
BITMAP
8C
8C
94
A4
A4
C4
C4
ENDCHAR
STARTCHAR 0439
ENCODING 1081
SWIDTH 576 0
DWIDTH 8 0
BBX 6 10 1 0
BITMAP
44
78
00
8C
8C
94
A4
A4
C4
C4
ENDCHAR
STARTCHAR 043A
ENCODING 1082
SWIDTH 432 0
DWIDTH 6 0
BBX 5 7 1 0
BITMAP
88
90
A0
E0
B0
90
88
ENDCHAR
STARTCHAR 043B
ENCODING 1083
SWIDTH 576 0
DWIDTH 8 0
BBX 7 7 0 0
BITMAP
3E
22
22
22
22
62
C2
ENDCHAR
STARTCHAR 043C
ENCODING 1084
SWIDTH 720 0
DWIDTH 10 0
BBX 8 7 1 0
BITMAP
C3
C5
A7
A7
AB
9B
9B
ENDCHAR
STARTCHAR 043D
ENCODING 1085
SWIDTH 576 0
DWIDTH 8 0
BBX 6 7 1 0
BITMAP
84
84
84
FC
84
84
84
ENDCHAR
STARTCHAR 043E
ENCODING 1086
SWIDTH 576 0
DWIDTH 8 0
BBX 6 7 1 0
BITMAP
78
8C
84
84
84
8C
78
ENDCHAR
STARTCHAR 043F
ENCODING 1087
SWIDTH 576 0
DWIDTH 8 0
BBX 6 7 1 0
BITMAP
FC
8C
8C
8C
8C
8C
8C
ENDCHAR
STARTCHAR 0440
ENCODING 1088
SWIDTH 576 0
DWIDTH 8 0
BBX 6 10 1 -3
BITMAP
B8
CC
84
84
84
CC
B8
80
80
80
ENDCHAR
STARTCHAR 0441
ENCODING 1089
SWIDTH 504 0
DWIDTH 7 0
BBX 6 7 1 0
BITMAP
78
88
80
80
80
8C
78
ENDCHAR
STARTCHAR 0442
ENCODING 1090
SWIDTH 432 0
DWIDTH 6 0
BBX 6 7 0 0
BITMAP
FC
10
10
10
10
10
10
ENDCHAR
STARTCHAR 0443
ENCODING 1091
SWIDTH 504 0
DWIDTH 7 0
BBX 7 10 0 -3
BITMAP
C6
44
44
2C
28
38
10
10
20
E0
ENDCHAR
STARTCHAR 0444
ENCODING 1092
SWIDTH 864 0
DWIDTH 12 0
BBX 10 13 1 -3
BITMAP
0800
0800
0800
7B80
8CC0
8840
8840
8840
8CC0
7B80
0800
0800
0800
ENDCHAR
STARTCHAR 0445
ENCODING 1093
SWIDTH 504 0
DWIDTH 7 0
BBX 5 7 1 0
BITMAP
88
D8
50
20
50
D8
88
ENDCHAR
STARTCHAR 0446
ENCODING 1094
SWIDTH 576 0
DWIDTH 8 0
BBX 7 10 1 -3
BITMAP
8C
8C
8C
8C
8C
8C
FE
02
02
02
ENDCHAR
STARTCHAR 0447
ENCODING 1095
SWIDTH 504 0
DWIDTH 7 0
BBX 5 7 1 0
BITMAP
88
88
88
88
F8
08
08
ENDCHAR
STARTCHAR 0448
ENCODING 1096
SWIDTH 792 0
DWIDTH 11 0
BBX 9 7 1 0
BITMAP
8880
8880
8880
8880
8880
8880
FF80
ENDCHAR
STARTCHAR 0449
ENCODING 1097
SWIDTH 864 0
DWIDTH 12 0
BBX 10 10 1 -3
BITMAP
8880
8880
8880
8880
8880
8880
FFC0
0040
0040
0040
ENDCHAR
STARTCHAR 044A
ENCODING 1098
SWIDTH 648 0
DWIDTH 9 0
BBX 8 7 0 0
BITMAP
F0
10
10
1E
11
11
1E
ENDCHAR
STARTCHAR 044B
ENCODING 1099
SWIDTH 720 0
DWIDTH 10 0
BBX 8 7 1 0
BITMAP
81
81
81
F9
8D
8D
F9
ENDCHAR
STARTCHAR 044C
ENCODING 1100
SWIDTH 504 0
DWIDTH 7 0
BBX 6 7 1 0
BITMAP
80
80
80
F8
8C
8C
F8
ENDCHAR
STARTCHAR 044D
ENCODING 1101
SWIDTH 504 0
DWIDTH 7 0
BBX 7 7 0 0
BITMAP
78
44
04
3E
04
C4
78
ENDCHAR
STARTCHAR 044E
ENCODING 1102
SWIDTH 792 0
DWIDTH 11 0
BBX 9 7 1 0
BITMAP
8F00
9180
9080
F080
9080
9180
8F00
ENDCHAR
STARTCHAR 044F
ENCODING 1103
SWIDTH 576 0
DWIDTH 8 0
BBX 7 7 0 0
BITMAP
7E
46
46
3E
26
66
C6
ENDCHAR
STARTCHAR 0450
ENCODING 1104
SWIDTH 576 0
DWIDTH 8 0
BBX 6 10 1 0
BITMAP
60
20
00
78
8C
84
FC
80
84
78
ENDCHAR
STARTCHAR 0451
ENCODING 1105
SWIDTH 576 0
DWIDTH 8 0
BBX 6 9 1 0
BITMAP
48
00
78
8C
84
FC
80
84
78
ENDCHAR
STARTCHAR 0452
ENCODING 1106
SWIDTH 576 0
DWIDTH 8 0
BBX 7 13 0 -3
BITMAP
40
F0
40
5C
66
42
42
42
42
42
02
02
0E
ENDCHAR
STARTCHAR 0453
ENCODING 1107
SWIDTH 360 0
DWIDTH 5 0
BBX 4 10 1 0
BITMAP
20
40
00
F0
80
80
80
80
80
80
ENDCHAR
STARTCHAR 0454
ENCODING 1108
SWIDTH 504 0
DWIDTH 7 0
BBX 6 7 1 0
BITMAP
78
8C
80
F0
80
8C
78
ENDCHAR
STARTCHAR 0455
ENCODING 1109
SWIDTH 504 0
DWIDTH 7 0
BBX 5 7 1 0
BITMAP
F8
88
80
78
08
88
F8
ENDCHAR
STARTCHAR 0456
ENCODING 1110
SWIDTH 216 0
DWIDTH 3 0
BBX 1 10 1 0
BITMAP
80
00
00
80
80
80
80
80
80
80
ENDCHAR
STARTCHAR 0457
ENCODING 1111
SWIDTH 288 0
DWIDTH 4 0
BBX 4 9 0 0
BITMAP
90
00
60
60
60
60
60
60
60
ENDCHAR
STARTCHAR 0458
ENCODING 1112
SWIDTH 216 0
DWIDTH 3 0
BBX 2 13 0 -3
BITMAP
40
00
00
40
40
40
40
40
40
40
40
40
C0
ENDCHAR
STARTCHAR 0459
ENCODING 1113
SWIDTH 936 0
DWIDTH 13 0
BBX 12 7 0 0
BITMAP
3E00
2200
2200
23E0
2210
6210
C3E0
ENDCHAR
STARTCHAR 045A
ENCODING 1114
SWIDTH 792 0
DWIDTH 11 0
BBX 10 7 1 0
BITMAP
8800
8800
8800
FF80
88C0
88C0
8F80
ENDCHAR
STARTCHAR 045B
ENCODING 1115
SWIDTH 576 0
DWIDTH 8 0
BBX 7 10 0 0
BITMAP
40
F0
40
5C
66
42
42
42
42
42
ENDCHAR
STARTCHAR 045C
ENCODING 1116
SWIDTH 432 0
DWIDTH 6 0
BBX 5 10 1 0
BITMAP
10
20
00
88
90
A0
E0
B0
90
88
ENDCHAR
STARTCHAR 045D
ENCODING 1117
SWIDTH 576 0
DWIDTH 8 0
BBX 6 10 1 0
BITMAP
60
20
00
8C
8C
94
A4
A4
C4
C4
ENDCHAR
STARTCHAR 045E
ENCODING 1118
SWIDTH 504 0
DWIDTH 7 0
BBX 7 13 0 -3
BITMAP
44
78
00
C6
44
44
2C
28
38
10
10
20
E0
ENDCHAR
STARTCHAR 045F
ENCODING 1119
SWIDTH 576 0
DWIDTH 8 0
BBX 6 10 1 -3
BITMAP
84
84
84
84
84
84
FC
20
20
20
ENDCHAR
STARTCHAR 0460
ENCODING 1120
SWIDTH 1368 0
DWIDTH 19 0
BBX 17 10 1 0
BITMAP
3E3E00
622300
C00180
800180
800080
808080
808180
C08100
61C300
3E3C00
ENDCHAR
STARTCHAR 0461
ENCODING 1121
SWIDTH 648 0
DWIDTH 9 0
BBX 8 7 0 0
BITMAP
D9
49
49
49
2D
36
36
ENDCHAR
STARTCHAR 0462
ENCODING 1122
SWIDTH 792 0
DWIDTH 11 0
BBX 10 10 0 0
BITMAP
1000
1000
FE00
1000
1F80
10C0
1040
1040
10C0
1F80
ENDCHAR
STARTCHAR 0463
ENCODING 1123
SWIDTH 648 0
DWIDTH 9 0
BBX 8 10 0 0
BITMAP
20
20
20
F8
20
20
3E
21
21
3E
ENDCHAR
STARTCHAR 0464
ENCODING 1124
SWIDTH 936 0
DWIDTH 13 0
BBX 12 10 1 0
BITMAP
C7C0
CC60
D830
D000
FF80
D000
D800
C830
CC60
C7C0
ENDCHAR
STARTCHAR 0465
ENCODING 1125
SWIDTH 720 0
DWIDTH 10 0
BBX 8 7 1 0
BITMAP
8F
91
B0
FE
B0
91
8F
ENDCHAR
STARTCHAR 0466
ENCODING 1126
SWIDTH 648 0
DWIDTH 9 0
BBX 9 10 0 0
BITMAP
0C00
1C00
1400
1200
2200
3F00
6900
4900
4980
C880
ENDCHAR
STARTCHAR 0467
ENCODING 1127
SWIDTH 504 0
DWIDTH 7 0
BBX 7 7 0 0
BITMAP
10
28
28
6C
7C
54
92
ENDCHAR
STARTCHAR 0468
ENCODING 1128
SWIDTH 936 0
DWIDTH 13 0
BBX 11 10 1 0
BITMAP
C300
C300
C580
C480
CC80
FFC0
CA40
D260
D220
F220
ENDCHAR
STARTCHAR 0469
ENCODING 1129
SWIDTH 720 0
DWIDTH 10 0
BBX 8 7 1 0
BITMAP
8C
8C
8A
92
FF
B5
A5
ENDCHAR
STARTCHAR 046A
ENCODING 1130
SWIDTH 864 0
DWIDTH 12 0
BBX 10 10 1 0
BITMAP
7F80
6100
2300
1200
1C00
3F00
C880
88C0
8840
8840
ENDCHAR
STARTCHAR 046B
ENCODING 1131
SWIDTH 720 0
DWIDTH 10 0
BBX 8 7 1 0
BITMAP
7E
64
28
7E
92
91
91
ENDCHAR
STARTCHAR 046C
ENCODING 1132
SWIDTH 1080 0
DWIDTH 15 0
BBX 13 10 1 0
BITMAP
CFF0
CC20
C660
C240
C3C0
FFE0
C990
D188
D188
D188
ENDCHAR
STARTCHAR 046D
ENCODING 1133
SWIDTH 864 0
DWIDTH 12 0
BBX 10 7 1 0
BITMAP
9F80
8980
8500
FF80
9240
B240
B240
ENDCHAR
STARTCHAR 046E
ENCODING 1134
SWIDTH 576 0
DWIDTH 8 0
BBX 7 15 1 -3
BITMAP
4C
30
78
C4
84
04
38
04
06
06
04
78
80
9C
E4
ENDCHAR
STARTCHAR 046F
ENCODING 1135
SWIDTH 432 0
DWIDTH 6 0
BBX 6 12 0 -3
BITMAP
4C
30
78
4C
0C
30
0C
04
18
E0
8C
74
ENDCHAR
STARTCHAR 0470
ENCODING 1136
SWIDTH 792 0
DWIDTH 11 0
BBX 9 10 1 0
BITMAP
8880
8880
8880
C880
4880
6980
3F00
0800
0800
0800
ENDCHAR
STARTCHAR 0471
ENCODING 1137
SWIDTH 720 0
DWIDTH 10 0
BBX 8 10 1 -3
BITMAP
91
91
91
91
D1
53
7E
10
10
10
ENDCHAR
STARTCHAR 0472
ENCODING 1138
SWIDTH 792 0
DWIDTH 11 0
BBX 9 10 1 0
BITMAP
3E00
6300
C180
8080
F880
8F80
8080
C180
6300
3E00
ENDCHAR
STARTCHAR 0473
ENCODING 1139
SWIDTH 576 0
DWIDTH 8 0
BBX 6 7 1 0
BITMAP
78
8C
84
FC
84
8C
78
ENDCHAR
STARTCHAR 0474
ENCODING 1140
SWIDTH 792 0
DWIDTH 11 0
BBX 11 10 0 0
BITMAP
C0E0
41A0
4100
6100
2200
3200
1600
1400
1C00
0C00
ENDCHAR
STARTCHAR 0475
ENCODING 1141
SWIDTH 648 0
DWIDTH 9 0
BBX 8 7 0 0
BITMAP
C3
44
44
6C
28
28
10
ENDCHAR
STARTCHAR 0476
ENCODING 1142
SWIDTH 792 0
DWIDTH 11 0
BBX 11 13 0 0
BITMAP
2C00
1400
0000
C0E0
41A0
4100
6100
2200
3200
1600
1400
1C00
0C00
ENDCHAR
STARTCHAR 0477
ENCODING 1143
SWIDTH 648 0
DWIDTH 9 0
BBX 8 10 0 0
BITMAP
58
28
00
C3
44
44
6C
28
28
10
ENDCHAR
STARTCHAR 0478
ENCODING 1144
SWIDTH 1080 0
DWIDTH 15 0
BBX 14 13 1 -3
BITMAP
7800
C400
8600
838C
8288
82C8
8258
8650
4470
7830
0020
0060
00C0
ENDCHAR
STARTCHAR 0479
ENCODING 1145
SWIDTH 936 0
DWIDTH 13 0
BBX 11 10 1 -3
BITMAP
7420
9E20
8A60
8A40
8940
9980
7180
0180
0100
0600
ENDCHAR
STARTCHAR 047A
ENCODING 1146
SWIDTH 864 0
DWIDTH 12 0
BBX 11 12 0 -1
BITMAP
0400
1F80
26C0
4060
4020
C020
C020
4020
4060
26C0
1F80
0400
ENDCHAR
STARTCHAR 047B
ENCODING 1147
SWIDTH 648 0
DWIDTH 9 0
BBX 8 9 0 -1
BITMAP
08
3E
43
C1
C1
C1
43
3E
08
ENDCHAR
STARTCHAR 047C
ENCODING 1148
SWIDTH 1224 0
DWIDTH 17 0
BBX 15 14 1 0
BITMAP
03C0
0530
0100
0100
3CF8
600C
C004
8006
8002
8002
8006
C004
610C
3EF8
ENDCHAR
STARTCHAR 047D
ENCODING 1149
SWIDTH 864 0
DWIDTH 12 0
BBX 10 12 1 0
BITMAP
1E00
1100
2CC0
0400
0000
6180
80C0
8040
8040
8040
80C0
7F80
ENDCHAR
STARTCHAR 047E
ENCODING 1150
SWIDTH 1368 0
DWIDTH 19 0
BBX 17 13 1 0
BITMAP
07E000
052000
000000
3E3E00
622300
C00180
800180
800080
808080
808180
C08100
61C300
3E3C00
ENDCHAR
STARTCHAR 047F
ENCODING 1151
SWIDTH 648 0
DWIDTH 9 0
BBX 8 10 0 0
BITMAP
7E
52
00
D9
49
49
49
2D
36
36
ENDCHAR
STARTCHAR 0480
ENCODING 1152
SWIDTH 720 0
DWIDTH 10 0
BBX 8 13 1 -3
BITMAP
3E
63
C1
80
80
80
80
C0
60
38
08
08
08
ENDCHAR
STARTCHAR 0481
ENCODING 1153
SWIDTH 504 0
DWIDTH 7 0
BBX 6 10 1 -3
BITMAP
78
8C
80
80
80
80
70
30
30
30
ENDCHAR
STARTCHAR 0482
ENCODING 1154
SWIDTH 504 0
DWIDTH 7 0
BBX 7 10 0 0
BITMAP
08
08
48
78
16
D0
38
24
20
20
ENDCHAR
STARTCHAR 0483
ENCODING 1155
SWIDTH 0 0
DWIDTH 0 0
BBX 4 3 -2 8
BITMAP
10
F0
80
ENDCHAR
STARTCHAR 0484
ENCODING 1156
SWIDTH 0 0
DWIDTH 0 0
BBX 4 2 -2 8
BITMAP
30
D0
ENDCHAR
STARTCHAR 0485
ENCODING 1157
SWIDTH 0 0
DWIDTH 0 0
BBX 2 3 -1 8
BITMAP
C0
80
80
ENDCHAR
STARTCHAR 0486
ENCODING 1158
SWIDTH 0 0
DWIDTH 0 0
BBX 2 3 -1 8
BITMAP
C0
40
40
ENDCHAR
STARTCHAR 0487
ENCODING 1159
SWIDTH 0 0
DWIDTH 0 0
BBX 8 2 -4 9
BITMAP
78
87
ENDCHAR
STARTCHAR 0488
ENCODING 1160
SWIDTH 0 0
DWIDTH 0 0
BBX 14 12 -7 -2
BITMAP
0300
0480
7038
0000
0000
6018
A014
0000
0000
7038
0300
0480
ENDCHAR
STARTCHAR 0489
ENCODING 1161
SWIDTH 0 0
DWIDTH 0 0
BBX 12 12 -6 -2
BITMAP
0400
0420
6040
2000
0000
4030
C000
0000
0000
2060
4420
0200
ENDCHAR
STARTCHAR 048A
ENCODING 1162
SWIDTH 720 0
DWIDTH 10 0
BBX 9 16 1 -3
BITMAP
2600
3C00
0000
8300
8700
8500
8D00
8900
9100
B100
A100
E100
C180
0080
0100
0100
ENDCHAR
STARTCHAR 048B
ENCODING 1163
SWIDTH 576 0
DWIDTH 8 0
BBX 7 12 1 -2
BITMAP
C8
78
00
8C
8C
94
A4
A4
C4
C6
04
04
ENDCHAR
STARTCHAR 048C
ENCODING 1164
SWIDTH 648 0
DWIDTH 9 0
BBX 9 10 0 0
BITMAP
4000
4000
F000
4000
7E00
4100
4180
4180
4100
7E00
ENDCHAR
STARTCHAR 048D
ENCODING 1165
SWIDTH 504 0
DWIDTH 7 0
BBX 7 10 0 0
BITMAP
40
E0
40
40
40
40
7C
46
46
7C
ENDCHAR
STARTCHAR 048E
ENCODING 1166
SWIDTH 648 0
DWIDTH 9 0
BBX 8 10 1 0
BITMAP
FC
82
83
87
86
FF
80
80
80
80
ENDCHAR
STARTCHAR 048F
ENCODING 1167
SWIDTH 576 0
DWIDTH 8 0
BBX 6 10 1 -3
BITMAP
B8
CC
84
84
84
CC
BC
80
80
80
ENDCHAR
STARTCHAR 0490
ENCODING 1168
SWIDTH 504 0
DWIDTH 7 0
BBX 6 12 1 0
BITMAP
0C
0C
FC
80
80
80
80
80
80
80
80
80
ENDCHAR
STARTCHAR 0491
ENCODING 1169
SWIDTH 432 0
DWIDTH 6 0
BBX 4 10 1 0
BITMAP
10
10
10
F0
80
80
80
80
80
80
ENDCHAR
STARTCHAR 0492
ENCODING 1170
SWIDTH 576 0
DWIDTH 8 0
BBX 7 10 0 0
BITMAP
7E
40
40
40
F8
40
40
40
40
40
ENDCHAR
STARTCHAR 0493
ENCODING 1171
SWIDTH 360 0
DWIDTH 5 0
BBX 5 7 0 0
BITMAP
78
40
40
F0
40
40
40
ENDCHAR
STARTCHAR 0494
ENCODING 1172
SWIDTH 648 0
DWIDTH 9 0
BBX 8 13 1 -3
BITMAP
FC
80
80
BC
C6
82
83
83
83
83
02
46
3C
ENDCHAR
STARTCHAR 0495
ENCODING 1173
SWIDTH 576 0
DWIDTH 8 0
BBX 6 10 1 -3
BITMAP
F0
80
80
F8
8C
84
84
04
CC
78
ENDCHAR
STARTCHAR 0496
ENCODING 1174
SWIDTH 936 0
DWIDTH 13 0
BBX 13 13 0 -3
BITMAP
4210
2220
3260
12C0
1FC0
1240
3260
2220
6230
C218
0008
0008
0008
ENDCHAR
STARTCHAR 0497
ENCODING 1175
SWIDTH 648 0
DWIDTH 9 0
BBX 9 10 0 -3
BITMAP
C880
4900
2A00
3E00
2B00
4900
C880
0080
0080
0080
ENDCHAR
STARTCHAR 0498
ENCODING 1176
SWIDTH 576 0
DWIDTH 8 0
BBX 7 13 1 -3
BITMAP
78
C4
84
04
38
04
06
86
C4
78
10
10
70
ENDCHAR
STARTCHAR 0499
ENCODING 1177
SWIDTH 432 0
DWIDTH 6 0
BBX 6 10 0 -3
BITMAP
78
4C
0C
30
0C
CC
78
10
10
70
ENDCHAR
STARTCHAR 049A
ENCODING 1178
SWIDTH 576 0
DWIDTH 8 0
BBX 7 13 1 -3
BITMAP
84
8C
88
90
F0
90
88
88
84
86
02
02
02
ENDCHAR
STARTCHAR 049B
ENCODING 1179
SWIDTH 432 0
DWIDTH 6 0
BBX 5 10 1 -3
BITMAP
88
90
A0
E0
B0
90
88
08
08
08
ENDCHAR
STARTCHAR 049C
ENCODING 1180
SWIDTH 576 0
DWIDTH 8 0
BBX 7 10 1 0
BITMAP
84
AC
A8
B0
F0
B0
A8
AC
84
86
ENDCHAR
STARTCHAR 049D
ENCODING 1181
SWIDTH 432 0
DWIDTH 6 0
BBX 5 7 1 0
BITMAP
88
D0
A0
E0
B0
D0
88
ENDCHAR
STARTCHAR 049E
ENCODING 1182
SWIDTH 576 0
DWIDTH 8 0
BBX 8 10 0 0
BITMAP
42
46
F4
48
78
48
44
46
42
43
ENDCHAR
STARTCHAR 049F
ENCODING 1183
SWIDTH 432 0
DWIDTH 6 0
BBX 6 10 0 0
BITMAP
40
F0
40
44
48
50
70
58
48
44
ENDCHAR
STARTCHAR 04A0
ENCODING 1184
SWIDTH 720 0
DWIDTH 10 0
BBX 10 10 0 0
BITMAP
F8C0
1880
1900
1A00
1E00
1B00
1900
1980
1880
18C0
ENDCHAR
STARTCHAR 04A1
ENCODING 1185
SWIDTH 576 0
DWIDTH 8 0
BBX 7 7 0 0
BITMAP
F2
34
3C
38
34
36
32
ENDCHAR
STARTCHAR 04A2
ENCODING 1186
SWIDTH 720 0
DWIDTH 10 0
BBX 9 13 1 -3
BITMAP
8100
8100
8100
8100
FF00
8100
8100
8100
8100
8180
0080
0080
0080
ENDCHAR
STARTCHAR 04A3
ENCODING 1187
SWIDTH 576 0
DWIDTH 8 0
BBX 7 10 1 -3
BITMAP
84
84
84
FC
84
84
86
06
06
06
ENDCHAR
STARTCHAR 04A4
ENCODING 1188
SWIDTH 864 0
DWIDTH 12 0
BBX 11 10 1 0
BITMAP
81E0
8100
8100
8100
FF00
8100
8100
8100
8100
8100
ENDCHAR
STARTCHAR 04A5
ENCODING 1189
SWIDTH 648 0
DWIDTH 9 0
BBX 8 7 1 0
BITMAP
87
84
84
FC
84
84
84
ENDCHAR
STARTCHAR 04A6
ENCODING 1190
SWIDTH 1152 0
DWIDTH 16 0
BBX 14 13 1 -3
BITMAP
FF00
8100
8100
81F8
810C
8104
8104
8104
8104
8104
0004
0188
00F0
ENDCHAR
STARTCHAR 04A7
ENCODING 1191
SWIDTH 864 0
DWIDTH 12 0
BBX 11 10 1 -3
BITMAP
FC00
8C00
8C00
8F80
8C40
8C60
8C60
0060
0440
0780
ENDCHAR
STARTCHAR 04A8
ENCODING 1192
SWIDTH 792 0
DWIDTH 11 0
BBX 10 10 0 0
BITMAP
3800
6700
4580
4C80
C880
CC80
4480
4580
6700
3FC0
ENDCHAR
STARTCHAR 04A9
ENCODING 1193
SWIDTH 504 0
DWIDTH 7 0
BBX 7 7 0 0
BITMAP
70
4C
D4
96
D4
5C
3E
ENDCHAR
STARTCHAR 04AA
ENCODING 1194
SWIDTH 720 0
DWIDTH 10 0
BBX 9 13 1 -3
BITMAP
3E00
6300
C100
8000
8000
8000
8000
C180
6300
3E00
0800
0800
3800
ENDCHAR
STARTCHAR 04AB
ENCODING 1195
SWIDTH 504 0
DWIDTH 7 0
BBX 6 10 1 -3
BITMAP
78
88
80
80
80
8C
78
10
10
60
ENDCHAR
STARTCHAR 04AC
ENCODING 1196
SWIDTH 648 0
DWIDTH 9 0
BBX 8 13 0 -3
BITMAP
FF
08
08
08
08
08
08
08
08
0C
04
04
04
ENDCHAR
STARTCHAR 04AD
ENCODING 1197
SWIDTH 432 0
DWIDTH 6 0
BBX 6 10 0 -3
BITMAP
FC
10
10
10
10
10
18
18
18
18
ENDCHAR
STARTCHAR 04AE
ENCODING 1198
SWIDTH 576 0
DWIDTH 8 0
BBX 7 10 0 0
BITMAP
C2
46
64
2C
18
18
18
18
18
18
ENDCHAR
STARTCHAR 04AF
ENCODING 1199
SWIDTH 504 0
DWIDTH 7 0
BBX 7 10 0 -3
BITMAP
C6
44
44
6C
28
28
10
10
10
10
ENDCHAR
STARTCHAR 04B0
ENCODING 1200
SWIDTH 576 0
DWIDTH 8 0
BBX 7 10 0 0
BITMAP
C2
42
64
24
38
FE
18
18
18
18
ENDCHAR
STARTCHAR 04B1
ENCODING 1201
SWIDTH 504 0
DWIDTH 7 0
BBX 7 10 0 -3
BITMAP
C6
44
44
6C
28
28
10
7C
10
10
ENDCHAR
STARTCHAR 04B2
ENCODING 1202
SWIDTH 648 0
DWIDTH 9 0
BBX 8 13 1 -3
BITMAP
82
46
64
28
18
38
2C
44
C2
83
01
01
01
ENDCHAR
STARTCHAR 04B3
ENCODING 1203
SWIDTH 504 0
DWIDTH 7 0
BBX 6 10 1 -3
BITMAP
88
D8
50
20
50
D8
8C
04
04
04
ENDCHAR
STARTCHAR 04B4
ENCODING 1204
SWIDTH 936 0
DWIDTH 13 0
BBX 13 13 0 -3
BITMAP
FF20
0820
0820
0820
0820
0820
0820
0820
0820
0FF8
0018
0018
0018
ENDCHAR
STARTCHAR 04B5
ENCODING 1205
SWIDTH 720 0
DWIDTH 10 0
BBX 9 10 0 -3
BITMAP
FD00
1100
1100
1100
1100
1100
1F80
0080
0080
0080
ENDCHAR
STARTCHAR 04B6
ENCODING 1206
SWIDTH 648 0
DWIDTH 9 0
BBX 8 13 1 -3
BITMAP
82
82
82
82
82
C2
7E
02
02
03
01
01
01
ENDCHAR
STARTCHAR 04B7
ENCODING 1207
SWIDTH 504 0
DWIDTH 7 0
BBX 7 9 0 -2
BITMAP
C4
C4
C4
44
7C
04
06
02
02
ENDCHAR
STARTCHAR 04B8
ENCODING 1208
SWIDTH 648 0
DWIDTH 9 0
BBX 7 10 1 0
BITMAP
82
82
92
92
92
D2
7E
12
12
02
ENDCHAR
STARTCHAR 04B9
ENCODING 1209
SWIDTH 504 0
DWIDTH 7 0
BBX 5 7 1 0
BITMAP
88
88
A8
A8
F8
28
08
ENDCHAR
STARTCHAR 04BA
ENCODING 1210
SWIDTH 648 0
DWIDTH 9 0
BBX 7 10 1 0
BITMAP
80
80
80
FC
82
82
82
82
82
82
ENDCHAR
STARTCHAR 04BB
ENCODING 1211
SWIDTH 576 0
DWIDTH 8 0
BBX 6 10 1 0
BITMAP
80
80
80
B8
CC
84
84
84
84
84
ENDCHAR
STARTCHAR 04BC
ENCODING 1212
SWIDTH 864 0
DWIDTH 12 0
BBX 11 10 0 0
BITMAP
0780
1840
1020
B020
FFE0
3000
3000
1020
1840
0780
ENDCHAR
STARTCHAR 04BD
ENCODING 1213
SWIDTH 648 0
DWIDTH 9 0
BBX 9 7 0 0
BITMAP
0E00
9100
B180
7F80
2000
1100
1F00
ENDCHAR
STARTCHAR 04BE
ENCODING 1214
SWIDTH 864 0
DWIDTH 12 0
BBX 11 12 0 -2
BITMAP
0780
1840
1020
B020
FFE0
3000
3000
1020
1840
0780
0200
0200
ENDCHAR
STARTCHAR 04BF
ENCODING 1215
SWIDTH 648 0
DWIDTH 9 0
BBX 9 9 0 -2
BITMAP
0E00
9100
B180
7F80
2000
1100
1F00
0400
0400
ENDCHAR
STARTCHAR 04C0
ENCODING 1216
SWIDTH 288 0
DWIDTH 4 0
BBX 2 10 1 0
BITMAP
C0
C0
C0
C0
C0
C0
C0
C0
C0
C0
ENDCHAR
STARTCHAR 04C1
ENCODING 1217
SWIDTH 936 0
DWIDTH 13 0
BBX 12 13 0 0
BITMAP
0880
0F00
0000
4210
2220
3260
12C0
1F80
1240
3260
2220
6230
C210
ENDCHAR
STARTCHAR 04C2
ENCODING 1218
SWIDTH 648 0
DWIDTH 9 0
BBX 9 10 0 0
BITMAP
2200
3C00
0000
C880
4900
2B00
3E00
2B00
4900
C880
ENDCHAR
STARTCHAR 04C3
ENCODING 1219
SWIDTH 648 0
DWIDTH 9 0
BBX 8 13 1 -3
BITMAP
84
8C
88
90
FC
86
82
83
83
83
02
46
3C
ENDCHAR
STARTCHAR 04C4
ENCODING 1220
SWIDTH 576 0
DWIDTH 8 0
BBX 6 10 1 -3
BITMAP
88
90
A0
F0
8C
84
84
04
CC
78
ENDCHAR
STARTCHAR 04C5
ENCODING 1221
SWIDTH 648 0
DWIDTH 9 0
BBX 9 13 0 -3
BITMAP
1F00
1100
3100
3100
2100
2100
2100
2100
6100
C180
0080
0100
0100
ENDCHAR
STARTCHAR 04C6
ENCODING 1222
SWIDTH 576 0
DWIDTH 8 0
BBX 8 9 0 -2
BITMAP
3E
22
22
22
22
62
C3
01
02
ENDCHAR
STARTCHAR 04C7
ENCODING 1223
SWIDTH 720 0
DWIDTH 10 0
BBX 8 13 1 -3
BITMAP
81
81
81
81
FF
81
81
81
81
81
03
42
3C
ENDCHAR
STARTCHAR 04C8
ENCODING 1224
SWIDTH 576 0
DWIDTH 8 0
BBX 6 10 1 -3
BITMAP
84
84
84
FC
84
84
84
0C
88
78
ENDCHAR
STARTCHAR 04C9
ENCODING 1225
SWIDTH 720 0
DWIDTH 10 0
BBX 9 13 1 -3
BITMAP
8100
8100
8100
8100
FF00
8100
8100
8100
8100
8180
0080
0100
0100
ENDCHAR
STARTCHAR 04CA
ENCODING 1226
SWIDTH 576 0
DWIDTH 8 0
BBX 7 9 1 -2
BITMAP
84
84
84
FC
84
84
86
04
04
ENDCHAR
STARTCHAR 04CB
ENCODING 1227
SWIDTH 648 0
DWIDTH 9 0
BBX 7 13 1 -3
BITMAP
82
82
82
82
82
C2
7E
02
02
06
04
04
04
ENDCHAR
STARTCHAR 04CC
ENCODING 1228
SWIDTH 504 0
DWIDTH 7 0
BBX 5 10 1 -3
BITMAP
88
88
88
88
F8
08
18
10
10
10
ENDCHAR
STARTCHAR 04CD
ENCODING 1229
SWIDTH 864 0
DWIDTH 12 0
BBX 11 13 1 -3
BITMAP
C0C0
C1C0
A1C0
A1C0
B2C0
92C0
96C0
9CC0
8CC0
88E0
0040
0040
0040
ENDCHAR
STARTCHAR 04CE
ENCODING 1230
SWIDTH 720 0
DWIDTH 10 0
BBX 9 9 1 -2
BITMAP
C300
C500
A700
A700
AB00
9B00
9B80
0100
0100
ENDCHAR
STARTCHAR 04CF
ENCODING 1231
SWIDTH 216 0
DWIDTH 3 0
BBX 1 10 1 0
BITMAP
80
80
80
80
80
80
80
80
80
80
ENDCHAR
STARTCHAR 04D0
ENCODING 1232
SWIDTH 648 0
DWIDTH 9 0
BBX 9 13 0 0
BITMAP
1200
0E00
0000
0C00
1C00
1400
1200
2200
2300
7F00
4100
4180
C080
ENDCHAR
STARTCHAR 04D1
ENCODING 1233
SWIDTH 576 0
DWIDTH 8 0
BBX 7 10 1 0
BITMAP
48
38
00
78
8C
0C
7C
8C
8C
F6
ENDCHAR
STARTCHAR 04D2
ENCODING 1234
SWIDTH 648 0
DWIDTH 9 0
BBX 9 12 0 0
BITMAP
1200
0000
0C00
1C00
1400
1200
2200
2300
7F00
4100
4180
C080
ENDCHAR
STARTCHAR 04D3
ENCODING 1235
SWIDTH 576 0
DWIDTH 8 0
BBX 7 9 1 0
BITMAP
48
00
78
8C
0C
7C
8C
8C
F6
ENDCHAR
STARTCHAR 04D4
ENCODING 1236
SWIDTH 1008 0
DWIDTH 14 0
BBX 13 10 0 0
BITMAP
07F8
0900
0900
1100
11F8
3100
3F00
6100
4100
C1F8
ENDCHAR
STARTCHAR 04D5
ENCODING 1237
SWIDTH 864 0
DWIDTH 12 0
BBX 12 7 0 0
BITMAP
3DE0
4620
0630
7FF0
4600
C630
79E0
ENDCHAR
STARTCHAR 04D6
ENCODING 1238
SWIDTH 648 0
DWIDTH 9 0
BBX 8 13 1 0
BITMAP
24
1C
00
FE
80
80
80
FE
80
80
80
80
FF
ENDCHAR
STARTCHAR 04D7
ENCODING 1239
SWIDTH 576 0
DWIDTH 8 0
BBX 6 10 1 0
BITMAP
48
38
00
78
8C
84
FC
80
84
78
ENDCHAR
STARTCHAR 04D8
ENCODING 1240
SWIDTH 792 0
DWIDTH 11 0
BBX 9 10 1 0
BITMAP
3E00
6300
C100
0180
FF80
8080
8180
C100
4300
3E00
ENDCHAR
STARTCHAR 04D9
ENCODING 1241
SWIDTH 576 0
DWIDTH 8 0
BBX 6 7 1 0
BITMAP
78
8C
04
FC
84
8C
78
ENDCHAR
STARTCHAR 04DA
ENCODING 1242
SWIDTH 792 0
DWIDTH 11 0
BBX 9 12 1 0
BITMAP
2400
0000
3E00
6300
C100
0180
FF80
8080
8180
C100
4300
3E00
ENDCHAR
STARTCHAR 04DB
ENCODING 1243
SWIDTH 576 0
DWIDTH 8 0
BBX 6 9 1 0
BITMAP
48
00
78
8C
04
FC
84
8C
78
ENDCHAR
STARTCHAR 04DC
ENCODING 1244
SWIDTH 936 0
DWIDTH 13 0
BBX 12 12 0 0
BITMAP
0900
0000
4210
2220
3260
12C0
1F80
1240
3260
2220
6230
C210
ENDCHAR
STARTCHAR 04DD
ENCODING 1245
SWIDTH 648 0
DWIDTH 9 0
BBX 9 9 0 0
BITMAP
2400
0000
C880
4900
2B00
3E00
2B00
4900
C880
ENDCHAR
STARTCHAR 04DE
ENCODING 1246
SWIDTH 576 0
DWIDTH 8 0
BBX 7 12 1 0
BITMAP
48
00
78
84
04
04
38
04
06
06
84
78
ENDCHAR
STARTCHAR 04DF
ENCODING 1247
SWIDTH 432 0
DWIDTH 6 0
BBX 6 9 0 0
BITMAP
48
00
78
4C
0C
30
0C
CC
78
ENDCHAR
STARTCHAR 04E0
ENCODING 1248
SWIDTH 576 0
DWIDTH 8 0
BBX 7 10 1 0
BITMAP
FE
06
08
10
3C
06
06
86
C4
78
ENDCHAR
STARTCHAR 04E1
ENCODING 1249
SWIDTH 576 0
DWIDTH 8 0
BBX 6 10 1 -3
BITMAP
FC
0C
18
30
38
0C
04
84
8C
78
ENDCHAR
STARTCHAR 04E2
ENCODING 1250
SWIDTH 720 0
DWIDTH 10 0
BBX 8 12 1 0
BITMAP
3C
00
83
87
85
8D
89
91
B1
A1
E1
C1
ENDCHAR
STARTCHAR 04E3
ENCODING 1251
SWIDTH 576 0
DWIDTH 8 0
BBX 6 9 1 0
BITMAP
78
00
8C
8C
94
A4
A4
C4
C4
ENDCHAR
STARTCHAR 04E4
ENCODING 1252
SWIDTH 720 0
DWIDTH 10 0
BBX 8 12 1 0
BITMAP
24
00
83
87
85
8D
89
91
B1
A1
E1
C1
ENDCHAR
STARTCHAR 04E5
ENCODING 1253
SWIDTH 576 0
DWIDTH 8 0
BBX 6 9 1 0
BITMAP
48
00
8C
8C
94
A4
A4
C4
C4
ENDCHAR
STARTCHAR 04E6
ENCODING 1254
SWIDTH 792 0
DWIDTH 11 0
BBX 9 12 1 0
BITMAP
2400
0000
3E00
6300
C180
8080
8080
8080
8080
C180
6300
3E00
ENDCHAR
STARTCHAR 04E7
ENCODING 1255
SWIDTH 576 0
DWIDTH 8 0
BBX 6 9 1 0
BITMAP
48
00
78
8C
84
84
84
8C
78
ENDCHAR
STARTCHAR 04E8
ENCODING 1256
SWIDTH 792 0
DWIDTH 11 0
BBX 9 10 1 0
BITMAP
3E00
6300
C180
8080
FF80
8080
8080
C180
6300
3E00
ENDCHAR
STARTCHAR 04E9
ENCODING 1257
SWIDTH 576 0
DWIDTH 8 0
BBX 6 7 1 0
BITMAP
78
8C
84
FC
84
8C
78
ENDCHAR
STARTCHAR 04EA
ENCODING 1258
SWIDTH 792 0
DWIDTH 11 0
BBX 9 12 1 0
BITMAP
2400
0000
3E00
6300
C180
8080
FF80
8080
8080
C180
6300
3E00
ENDCHAR
STARTCHAR 04EB
ENCODING 1259
SWIDTH 576 0
DWIDTH 8 0
BBX 6 9 1 0
BITMAP
48
00
78
8C
84
FC
84
8C
78
ENDCHAR
STARTCHAR 04EC
ENCODING 1260
SWIDTH 720 0
DWIDTH 10 0
BBX 9 12 1 0
BITMAP
2400
0000
3C00
C200
8100
0100
1F80
0180
0100
8300
C600
3C00
ENDCHAR
STARTCHAR 04ED
ENCODING 1261
SWIDTH 504 0
DWIDTH 7 0
BBX 7 9 0 0
BITMAP
48
00
78
44
04
3E
04
C4
78
ENDCHAR
STARTCHAR 04EE
ENCODING 1262
SWIDTH 648 0
DWIDTH 9 0
BBX 8 12 1 0
BITMAP
3C
00
83
C2
46
64
2C
18
18
10
30
E0
ENDCHAR
STARTCHAR 04EF
ENCODING 1263
SWIDTH 504 0
DWIDTH 7 0
BBX 7 12 0 -3
BITMAP
78
00
C6
44
44
2C
28
38
10
10
20
E0
ENDCHAR
STARTCHAR 04F0
ENCODING 1264
SWIDTH 648 0
DWIDTH 9 0
BBX 8 12 1 0
BITMAP
24
00
83
C2
46
64
2C
18
18
10
30
E0
ENDCHAR
STARTCHAR 04F1
ENCODING 1265
SWIDTH 504 0
DWIDTH 7 0
BBX 7 12 0 -3
BITMAP
48
00
C6
44
44
2C
28
38
10
10
20
E0
ENDCHAR
STARTCHAR 04F2
ENCODING 1266
SWIDTH 648 0
DWIDTH 9 0
BBX 8 13 1 0
BITMAP
1A
24
00
83
C2
46
64
2C
18
18
10
30
E0
ENDCHAR
STARTCHAR 04F3
ENCODING 1267
SWIDTH 504 0
DWIDTH 7 0
BBX 7 13 0 -3
BITMAP
34
48
00
C6
44
44
2C
28
38
10
10
20
E0
ENDCHAR
STARTCHAR 04F4
ENCODING 1268
SWIDTH 648 0
DWIDTH 9 0
BBX 7 12 1 0
BITMAP
24
00
82
82
82
82
82
C2
7E
02
02
02
ENDCHAR
STARTCHAR 04F5
ENCODING 1269
SWIDTH 504 0
DWIDTH 7 0
BBX 5 9 1 0
BITMAP
90
00
88
88
88
88
F8
08
08
ENDCHAR
STARTCHAR 04F6
ENCODING 1270
SWIDTH 576 0
DWIDTH 8 0
BBX 6 13 1 -3
BITMAP
FC
80
80
80
80
80
80
80
80
C0
40
40
40
ENDCHAR
STARTCHAR 04F7
ENCODING 1271
SWIDTH 360 0
DWIDTH 5 0
BBX 4 10 1 -3
BITMAP
F0
80
80
80
80
80
C0
40
40
40
ENDCHAR
STARTCHAR 04F8
ENCODING 1272
SWIDTH 864 0
DWIDTH 12 0
BBX 10 12 1 0
BITMAP
1200
0000
8040
8040
8040
8040
FC40
8240
8240
8240
8240
FC40
ENDCHAR
STARTCHAR 04F9
ENCODING 1273
SWIDTH 720 0
DWIDTH 10 0
BBX 8 9 1 0
BITMAP
24
00
81
81
81
F9
8D
8D
F9
ENDCHAR
STARTCHAR 04FA
ENCODING 1274
SWIDTH 576 0
DWIDTH 8 0
BBX 7 13 0 -3
BITMAP
7E
40
40
40
F8
40
40
40
40
60
20
20
E0
ENDCHAR
STARTCHAR 04FB
ENCODING 1275
SWIDTH 360 0
DWIDTH 5 0
BBX 5 10 0 -3
BITMAP
78
40
40
F0
40
40
60
20
20
C0
ENDCHAR
STARTCHAR 04FC
ENCODING 1276
SWIDTH 648 0
DWIDTH 9 0
BBX 8 13 1 -3
BITMAP
82
46
64
28
18
38
2C
44
C2
83
01
01
07
ENDCHAR
STARTCHAR 04FD
ENCODING 1277
SWIDTH 504 0
DWIDTH 7 0
BBX 6 10 1 -3
BITMAP
88
D8
50
20
50
D8
88
04
04
18
ENDCHAR
STARTCHAR 04FE
ENCODING 1278
SWIDTH 648 0
DWIDTH 9 0
BBX 8 10 1 0
BITMAP
82
46
64
38
FE
38
2C
44
C2
83
ENDCHAR
STARTCHAR 04FF
ENCODING 1279
SWIDTH 504 0
DWIDTH 7 0
BBX 7 7 0 0
BITMAP
44
6C
28
FE
28
6C
44
ENDCHAR
STARTCHAR 0500
ENCODING 1280
SWIDTH 648 0
DWIDTH 9 0
BBX 7 10 1 0
BITMAP
02
02
02
02
7E
C2
82
82
C2
7E
ENDCHAR
STARTCHAR 0501
ENCODING 1281
SWIDTH 576 0
DWIDTH 8 0
BBX 6 10 1 0
BITMAP
04
04
04
74
8C
84
84
84
8C
74
ENDCHAR
STARTCHAR 0502
ENCODING 1282
SWIDTH 1008 0
DWIDTH 14 0
BBX 12 10 1 0
BITMAP
0200
0200
0200
0200
7E30
C230
8230
8230
8720
79E0
ENDCHAR
STARTCHAR 0503
ENCODING 1283
SWIDTH 864 0
DWIDTH 12 0
BBX 10 10 1 0
BITMAP
0400
0400
0400
7400
8C00
8400
8440
8440
8C40
7380
ENDCHAR
STARTCHAR 0504
ENCODING 1284
SWIDTH 936 0
DWIDTH 13 0
BBX 11 10 1 0
BITMAP
7800
C400
8400
0400
3820
0420
0220
0220
0220
01C0
ENDCHAR
STARTCHAR 0505
ENCODING 1285
SWIDTH 792 0
DWIDTH 11 0
BBX 10 7 1 0
BITMAP
F000
9800
1800
60C0
1880
0880
0700
ENDCHAR
STARTCHAR 0506
ENCODING 1286
SWIDTH 648 0
DWIDTH 9 0
BBX 8 13 1 -3
BITMAP
78
C4
84
04
38
04
06
02
02
03
01
01
01
ENDCHAR
STARTCHAR 0507
ENCODING 1287
SWIDTH 504 0
DWIDTH 7 0
BBX 6 10 1 -3
BITMAP
F0
98
18
60
18
08
0C
04
04
04
ENDCHAR
STARTCHAR 0508
ENCODING 1288
SWIDTH 1008 0
DWIDTH 14 0
BBX 13 10 0 0
BITMAP
1F00
1100
3100
3100
2118
2118
2118
2118
6110
C0F0
ENDCHAR
STARTCHAR 0509
ENCODING 1289
SWIDTH 936 0
DWIDTH 13 0
BBX 12 7 0 0
BITMAP
3E00
2200
2200
2210
2210
6330
C1E0
ENDCHAR
STARTCHAR 050A
ENCODING 1290
SWIDTH 1008 0
DWIDTH 14 0
BBX 13 10 1 0
BITMAP
8100
8100
8100
8100
FF18
8118
8118
8118
8110
80E0
ENDCHAR
STARTCHAR 050B
ENCODING 1291
SWIDTH 864 0
DWIDTH 12 0
BBX 10 7 1 0
BITMAP
8400
8400
8400
FC40
8440
8440
8380
ENDCHAR
STARTCHAR 050C
ENCODING 1292
SWIDTH 792 0
DWIDTH 11 0
BBX 9 10 1 0
BITMAP
3E00
6300
C180
8000
8000
8780
8080
C080
6180
3E00
ENDCHAR
STARTCHAR 050D
ENCODING 1293
SWIDTH 576 0
DWIDTH 8 0
BBX 6 7 1 0
BITMAP
78
8C
80
9C
84
84
78
ENDCHAR
STARTCHAR 050E
ENCODING 1294
SWIDTH 720 0
DWIDTH 10 0
BBX 10 10 0 0
BITMAP
FF00
0800
0800
0800
08C0
08C0
08C0
08C0
0880
0700
ENDCHAR
STARTCHAR 050F
ENCODING 1295
SWIDTH 648 0
DWIDTH 9 0
BBX 8 7 0 0
BITMAP
FC
10
10
11
11
11
0E
ENDCHAR
STARTCHAR 0510
ENCODING 1296
SWIDTH 576 0
DWIDTH 8 0
BBX 7 10 1 0
BITMAP
78
C4
86
C0
70
80
80
86
C4
78
ENDCHAR
STARTCHAR 0511
ENCODING 1297
SWIDTH 432 0
DWIDTH 6 0
BBX 5 7 1 0
BITMAP
F0
88
80
60
80
88
F0
ENDCHAR
STARTCHAR 0512
ENCODING 1298
SWIDTH 648 0
DWIDTH 9 0
BBX 8 13 0 -3
BITMAP
1F
11
31
31
21
21
21
21
61
C1
01
01
06
ENDCHAR
STARTCHAR 0513
ENCODING 1299
SWIDTH 576 0
DWIDTH 8 0
BBX 7 10 0 -3
BITMAP
3E
22
22
22
22
62
C2
02
02
0E
ENDCHAR
STARTCHAR 051A
ENCODING 1306
SWIDTH 792 0
DWIDTH 11 0
BBX 9 13 1 -3
BITMAP
3E00
6300
C180
8080
8080
8080
8080
C180
6300
3E00
0C00
0400
0700
ENDCHAR
STARTCHAR 051B
ENCODING 1307
SWIDTH 576 0
DWIDTH 8 0
BBX 6 10 1 -3
BITMAP
74
8C
84
84
84
8C
74
04
04
04
ENDCHAR
STARTCHAR 051C
ENCODING 1308
SWIDTH 936 0
DWIDTH 13 0
BBX 13 10 0 0
BITMAP
C208
C318
4510
4510
6510
24B0
28A0
28A0
38A0
1840
ENDCHAR
STARTCHAR 051D
ENCODING 1309
SWIDTH 720 0
DWIDTH 10 0
BBX 10 7 0 0
BITMAP
8C40
CC40
4C80
5280
5280
3300
3300
ENDCHAR
STARTCHAR 0591
ENCODING 1425
SWIDTH 0 0
DWIDTH 0 0
BBX 2 3 -1 -3
BITMAP
80
C0
C0
ENDCHAR
STARTCHAR 0592
ENCODING 1426
SWIDTH 0 0
DWIDTH 0 0
BBX 3 3 0 9
BITMAP
A0
00
40
ENDCHAR
STARTCHAR 0593
ENCODING 1427
SWIDTH 0 0
DWIDTH 0 0
BBX 2 3 -1 9
BITMAP
80
C0
40
ENDCHAR
STARTCHAR 0594
ENCODING 1428
SWIDTH 0 0
DWIDTH 0 0
BBX 1 3 1 9
BITMAP
80
00
80
ENDCHAR
STARTCHAR 0595
ENCODING 1429
SWIDTH 0 0
DWIDTH 0 0
BBX 2 3 1 9
BITMAP
C0
80
C0
ENDCHAR
STARTCHAR 0596
ENCODING 1430
SWIDTH 0 0
DWIDTH 0 0
BBX 2 2 -1 -3
BITMAP
80
C0
ENDCHAR
STARTCHAR 0597
ENCODING 1431
SWIDTH 0 0
DWIDTH 0 0
BBX 2 2 -1 9
BITMAP
C0
C0
ENDCHAR
STARTCHAR 0598
ENCODING 1432
SWIDTH 0 0
DWIDTH 0 0
BBX 4 2 -2 9
BITMAP
D0
B0
ENDCHAR
STARTCHAR 0599
ENCODING 1433
SWIDTH 0 0
DWIDTH 0 0
BBX 2 2 -2 9
BITMAP
80
40
ENDCHAR
STARTCHAR 059A
ENCODING 1434
SWIDTH 0 0
DWIDTH 0 0
BBX 2 2 0 -2
BITMAP
40
C0
ENDCHAR
STARTCHAR 059B
ENCODING 1435
SWIDTH 0 0
DWIDTH 0 0
BBX 2 3 -1 -3
BITMAP
80
40
80
ENDCHAR
STARTCHAR 059C
ENCODING 1436
SWIDTH 0 0
DWIDTH 0 0
BBX 2 2 0 9
BITMAP
40
80
ENDCHAR
STARTCHAR 059D
ENCODING 1437
SWIDTH 0 0
DWIDTH 0 0
BBX 2 2 0 9
BITMAP
40
80
ENDCHAR
STARTCHAR 059E
ENCODING 1438
SWIDTH 0 0
DWIDTH 0 0
BBX 4 2 -2 9
BITMAP
D0
A0
ENDCHAR
STARTCHAR 059F
ENCODING 1439
SWIDTH 0 0
DWIDTH 0 0
BBX 8 3 -4 9
BITMAP
66
A5
66
ENDCHAR
STARTCHAR 05A0
ENCODING 1440
SWIDTH 0 0
DWIDTH 0 0
BBX 3 3 0 9
BITMAP
60
A0
E0
ENDCHAR
STARTCHAR 05A1
ENCODING 1441
SWIDTH 0 0
DWIDTH 0 0
BBX 2 2 -1 9
BITMAP
C0
80
ENDCHAR
STARTCHAR 05A2
ENCODING 1442
SWIDTH 0 0
DWIDTH 0 0
BBX 2 3 -1 -3
BITMAP
C0
C0
80
ENDCHAR
STARTCHAR 05A3
ENCODING 1443
SWIDTH 0 0
DWIDTH 0 0
BBX 2 2 -1 -2
BITMAP
40
C0
ENDCHAR
STARTCHAR 05A4
ENCODING 1444
SWIDTH 0 0
DWIDTH 0 0
BBX 1 2 -1 -2
BITMAP
80
80
ENDCHAR
STARTCHAR 05A5
ENCODING 1445
SWIDTH 0 0
DWIDTH 0 0
BBX 2 2 -1 -3
BITMAP
40
C0
ENDCHAR
STARTCHAR 05A6
ENCODING 1446
SWIDTH 0 0
DWIDTH 0 0
BBX 4 2 -2 -3
BITMAP
50
B0
ENDCHAR
STARTCHAR 05A7
ENCODING 1447
SWIDTH 0 0
DWIDTH 0 0
BBX 2 3 -1 -3
BITMAP
C0
80
C0
ENDCHAR
STARTCHAR 05A8
ENCODING 1448
SWIDTH 0 0
DWIDTH 0 0
BBX 2 2 -1 9
BITMAP
80
40
ENDCHAR
STARTCHAR 05A9
ENCODING 1449
SWIDTH 0 0
DWIDTH 0 0
BBX 3 3 -3 9
BITMAP
C0
A0
E0
ENDCHAR
STARTCHAR 05AA
ENCODING 1450
SWIDTH 0 0
DWIDTH 0 0
BBX 2 3 -1 -3
BITMAP
C0
C0
80
ENDCHAR
STARTCHAR 05AB
ENCODING 1451
SWIDTH 0 0
DWIDTH 0 0
BBX 1 2 -1 9
BITMAP
80
80
ENDCHAR
STARTCHAR 05AC
ENCODING 1452
SWIDTH 0 0
DWIDTH 0 0
BBX 2 2 -1 9
BITMAP
40
C0
ENDCHAR
STARTCHAR 05AD
ENCODING 1453
SWIDTH 0 0
DWIDTH 0 0
BBX 2 2 0 -3
BITMAP
80
C0
ENDCHAR
STARTCHAR 05AE
ENCODING 1454
SWIDTH 0 0
DWIDTH 0 0
BBX 4 2 -4 9
BITMAP
D0
B0
ENDCHAR
STARTCHAR 05AF
ENCODING 1455
SWIDTH 0 0
DWIDTH 0 0
BBX 2 3 -1 10
BITMAP
C0
C0
C0
ENDCHAR
STARTCHAR 05B0
ENCODING 1456
SWIDTH 0 0
DWIDTH 0 0
BBX 2 3 -1 -3
BITMAP
C0
00
C0
ENDCHAR
STARTCHAR 05B1
ENCODING 1457
SWIDTH 0 0
DWIDTH 0 0
BBX 4 3 -2 -3
BITMAP
B0
00
50
ENDCHAR
STARTCHAR 05B2
ENCODING 1458
SWIDTH 0 0
DWIDTH 0 0
BBX 4 3 -2 -3
BITMAP
D0
00
10
ENDCHAR
STARTCHAR 05B3
ENCODING 1459
SWIDTH 0 0
DWIDTH 0 0
BBX 4 3 -2 -3
BITMAP
D0
40
10
ENDCHAR
STARTCHAR 05B4
ENCODING 1460
SWIDTH 0 0
DWIDTH 0 0
BBX 2 1 -1 -2
BITMAP
C0
ENDCHAR
STARTCHAR 05B5
ENCODING 1461
SWIDTH 0 0
DWIDTH 0 0
BBX 2 1 -1 -2
BITMAP
C0
ENDCHAR
STARTCHAR 05B6
ENCODING 1462
SWIDTH 0 0
DWIDTH 0 0
BBX 2 3 -1 -3
BITMAP
C0
00
C0
ENDCHAR
STARTCHAR 05B7
ENCODING 1463
SWIDTH 0 0
DWIDTH 0 0
BBX 2 1 -1 -2
BITMAP
C0
ENDCHAR
STARTCHAR 05B8
ENCODING 1464
SWIDTH 0 0
DWIDTH 0 0
BBX 2 1 -1 -3
BITMAP
C0
ENDCHAR
STARTCHAR 05B9
ENCODING 1465
SWIDTH 0 0
DWIDTH 0 0
BBX 2 1 -1 10
BITMAP
C0
ENDCHAR
STARTCHAR 05BA
ENCODING 1466
SWIDTH 0 0
DWIDTH 0 0
BBX 2 1 -1 10
BITMAP
C0
ENDCHAR
STARTCHAR 05BB
ENCODING 1467
SWIDTH 0 0
DWIDTH 0 0
BBX 4 3 -2 -3
BITMAP
80
60
10
ENDCHAR
STARTCHAR 05BC
ENCODING 1468
SWIDTH 0 0
DWIDTH 0 0
BBX 2 1 -1 4
BITMAP
C0
ENDCHAR
STARTCHAR 05BD
ENCODING 1469
SWIDTH 0 0
DWIDTH 0 0
BBX 1 1 -1 -3
BITMAP
80
ENDCHAR
STARTCHAR 05BE
ENCODING 1470
SWIDTH 360 0
DWIDTH 5 0
BBX 4 1 1 8
BITMAP
F0
ENDCHAR
STARTCHAR 05BF
ENCODING 1471
SWIDTH 0 0
DWIDTH 0 0
BBX 2 1 -1 10
BITMAP
C0
ENDCHAR
STARTCHAR 05C0
ENCODING 1472
SWIDTH 576 0
DWIDTH 8 0
BBX 1 17 3 -3
BITMAP
80
80
80
80
80
80
80
80
80
80
80
80
80
80
80
80
80
ENDCHAR
STARTCHAR 05C1
ENCODING 1473
SWIDTH 0 0
DWIDTH 0 0
BBX 2 1 -1 10
BITMAP
C0
ENDCHAR
STARTCHAR 05C2
ENCODING 1474
SWIDTH 0 0
DWIDTH 0 0
BBX 2 1 -1 10
BITMAP
C0
ENDCHAR
STARTCHAR 05C3
ENCODING 1475
SWIDTH 288 0
DWIDTH 4 0
BBX 2 7 1 0
BITMAP
C0
00
00
00
00
00
C0
ENDCHAR
STARTCHAR 05C4
ENCODING 1476
SWIDTH 0 0
DWIDTH 0 0
BBX 2 1 -1 11
BITMAP
C0
ENDCHAR
STARTCHAR 05C5
ENCODING 1477
SWIDTH 0 0
DWIDTH 0 0
BBX 2 1 -1 -3
BITMAP
C0
ENDCHAR
STARTCHAR 05C6
ENCODING 1478
SWIDTH 360 0
DWIDTH 5 0
BBX 4 8 1 0
BITMAP
60
C0
80
80
80
80
80
F0
ENDCHAR
STARTCHAR 05C7
ENCODING 1479
SWIDTH 0 0
DWIDTH 0 0
BBX 3 2 0 -2
BITMAP
E0
40
ENDCHAR
STARTCHAR 05D0
ENCODING 1488
SWIDTH 648 0
DWIDTH 9 0
BBX 7 8 1 0
BITMAP
C2
62
26
54
DC
8C
84
82
ENDCHAR
STARTCHAR 05D1
ENCODING 1489
SWIDTH 576 0
DWIDTH 8 0
BBX 7 8 1 0
BITMAP
F8
0C
04
04
04
04
04
FE
ENDCHAR
STARTCHAR 05D2
ENCODING 1490
SWIDTH 432 0
DWIDTH 6 0
BBX 4 8 1 0
BITMAP
C0
20
20
20
70
90
90
90
ENDCHAR
STARTCHAR 05D3
ENCODING 1491
SWIDTH 576 0
DWIDTH 8 0
BBX 7 8 0 0
BITMAP
FE
04
04
04
04
04
04
04
ENDCHAR
STARTCHAR 05D4
ENCODING 1492
SWIDTH 648 0
DWIDTH 9 0
BBX 7 8 1 0
BITMAP
FC
04
06
86
86
86
86
86
ENDCHAR
STARTCHAR 05D5
ENCODING 1493
SWIDTH 288 0
DWIDTH 4 0
BBX 1 8 1 0
BITMAP
80
80
80
80
80
80
80
80
ENDCHAR
STARTCHAR 05D6
ENCODING 1494
SWIDTH 360 0
DWIDTH 5 0
BBX 4 8 0 0
BITMAP
E0
30
20
60
60
60
60
60
ENDCHAR
STARTCHAR 05D7
ENCODING 1495
SWIDTH 648 0
DWIDTH 9 0
BBX 7 8 1 0
BITMAP
FC
86
82
82
82
82
82
82
ENDCHAR
STARTCHAR 05D8
ENCODING 1496
SWIDTH 648 0
DWIDTH 9 0
BBX 7 8 1 0
BITMAP
9C
92
82
82
82
82
C6
7C
ENDCHAR
STARTCHAR 05D9
ENCODING 1497
SWIDTH 288 0
DWIDTH 4 0
BBX 1 4 1 4
BITMAP
80
80
80
80
ENDCHAR
STARTCHAR 05DA
ENCODING 1498
SWIDTH 504 0
DWIDTH 7 0
BBX 6 11 0 -3
BITMAP
F8
0C
04
04
04
04
04
04
04
04
04
ENDCHAR
STARTCHAR 05DB
ENCODING 1499
SWIDTH 504 0
DWIDTH 7 0
BBX 6 8 1 0
BITMAP
F0
18
08
0C
0C
08
18
F0
ENDCHAR
STARTCHAR 05DC
ENCODING 1500
SWIDTH 504 0
DWIDTH 7 0
BBX 7 11 0 0
BITMAP
C0
C0
C0
FC
06
06
06
04
08
30
60
ENDCHAR
STARTCHAR 05DD
ENCODING 1501
SWIDTH 720 0
DWIDTH 10 0
BBX 7 8 1 0
BITMAP
FC
86
82
82
82
82
82
FE
ENDCHAR
STARTCHAR 05DE
ENCODING 1502
SWIDTH 720 0
DWIDTH 10 0
BBX 8 8 1 0
BITMAP
9C
E6
42
42
C3
C3
83
9F
ENDCHAR
STARTCHAR 05DF
ENCODING 1503
SWIDTH 288 0
DWIDTH 4 0
BBX 1 11 1 -3
BITMAP
80
80
80
80
80
80
80
80
80
80
80
ENDCHAR
STARTCHAR 05E0
ENCODING 1504
SWIDTH 360 0
DWIDTH 5 0
BBX 3 8 1 0
BITMAP
E0
20
20
20
20
20
20
E0
ENDCHAR
STARTCHAR 05E1
ENCODING 1505
SWIDTH 648 0
DWIDTH 9 0
BBX 8 8 0 0
BITMAP
FE
63
41
41
41
41
63
3E
ENDCHAR
STARTCHAR 05E2
ENCODING 1506
SWIDTH 576 0
DWIDTH 8 0
BBX 7 8 0 0
BITMAP
42
62
22
22
16
14
18
E0
ENDCHAR
STARTCHAR 05E3
ENCODING 1507
SWIDTH 648 0
DWIDTH 9 0
BBX 7 11 1 -3
BITMAP
F8
84
86
86
E6
06
06
06
06
06
06
ENDCHAR
STARTCHAR 05E4
ENCODING 1508
SWIDTH 648 0
DWIDTH 9 0
BBX 7 8 1 0
BITMAP
F8
84
86
E6
06
06
0C
F8
ENDCHAR
STARTCHAR 05E5
ENCODING 1509
SWIDTH 504 0
DWIDTH 7 0
BBX 7 11 0 -3
BITMAP
C6
66
24
24
38
30
30
30
30
30
30
ENDCHAR
STARTCHAR 05E6
ENCODING 1510
SWIDTH 576 0
DWIDTH 8 0
BBX 7 8 0 0
BITMAP
C6
66
34
1C
08
0C
06
7E
ENDCHAR
STARTCHAR 05E7
ENCODING 1511
SWIDTH 576 0
DWIDTH 8 0
BBX 6 11 1 -3
BITMAP
FC
04
04
84
84
8C
B8
A0
80
80
80
ENDCHAR
STARTCHAR 05E8
ENCODING 1512
SWIDTH 504 0
DWIDTH 7 0
BBX 6 8 0 0
BITMAP
F8
0C
04
04
04
04
04
04
ENDCHAR
STARTCHAR 05E9
ENCODING 1513
SWIDTH 720 0
DWIDTH 10 0
BBX 10 8 0 0
BITMAP
C4C0
4C80
4C80
4880
7880
6180
2300
3E00
ENDCHAR
STARTCHAR 05EA
ENCODING 1514
SWIDTH 720 0
DWIDTH 10 0
BBX 9 8 0 0
BITMAP
FE00
2100
2100
2180
2180
2180
6180
C180
ENDCHAR
STARTCHAR 05F0
ENCODING 1520
SWIDTH 504 0
DWIDTH 7 0
BBX 4 8 1 0
BITMAP
90
90
90
90
90
90
90
90
ENDCHAR
STARTCHAR 05F1
ENCODING 1521
SWIDTH 504 0
DWIDTH 7 0
BBX 4 8 1 0
BITMAP
90
90
90
90
10
10
10
10
ENDCHAR
STARTCHAR 05F2
ENCODING 1522
SWIDTH 504 0
DWIDTH 7 0
BBX 4 4 1 4
BITMAP
90
90
90
90
ENDCHAR
STARTCHAR 05F3
ENCODING 1523
SWIDTH 360 0
DWIDTH 5 0
BBX 2 4 2 7
BITMAP
C0
80
80
80
ENDCHAR
STARTCHAR 05F4
ENCODING 1524
SWIDTH 576 0
DWIDTH 8 0
BBX 5 4 2 7
BITMAP
D8
90
90
90
ENDCHAR
STARTCHAR 1D00
ENCODING 7424
SWIDTH 504 0
DWIDTH 7 0
BBX 7 7 0 0
BITMAP
10
28
28
28
7C
44
C6
ENDCHAR
STARTCHAR 1D01
ENCODING 7425
SWIDTH 720 0
DWIDTH 10 0
BBX 10 7 0 0
BITMAP
0FC0
1400
1400
27C0
7C00
4400
C7C0
ENDCHAR
STARTCHAR 1D02
ENCODING 7426
SWIDTH 864 0
DWIDTH 12 0
BBX 12 7 0 0
BITMAP
3DE0
4630
0230
FFE0
4200
4620
3DE0
ENDCHAR
STARTCHAR 1D03
ENCODING 7427
SWIDTH 504 0
DWIDTH 7 0
BBX 7 7 0 0
BITMAP
7C
46
46
FE
46
46
7C
ENDCHAR
STARTCHAR 1D04
ENCODING 7428
SWIDTH 504 0
DWIDTH 7 0
BBX 6 7 1 0
BITMAP
78
88
80
80
80
8C
78
ENDCHAR
STARTCHAR 1D05
ENCODING 7429
SWIDTH 576 0
DWIDTH 8 0
BBX 6 7 1 0
BITMAP
F8
8C
84
84
84
8C
F8
ENDCHAR
STARTCHAR 1D06
ENCODING 7430
SWIDTH 576 0
DWIDTH 8 0
BBX 7 7 0 0
BITMAP
7C
46
42
F2
42
46
7C
ENDCHAR
STARTCHAR 1D07
ENCODING 7431
SWIDTH 504 0
DWIDTH 7 0
BBX 5 7 1 0
BITMAP
F8
80
80
F8
80
80
F8
ENDCHAR
STARTCHAR 1D08
ENCODING 7432
SWIDTH 432 0
DWIDTH 6 0
BBX 6 7 0 0
BITMAP
78
4C
0C
30
0C
CC
78
ENDCHAR
STARTCHAR 1D09
ENCODING 7433
SWIDTH 216 0
DWIDTH 3 0
BBX 1 10 1 -3
BITMAP
80
80
80
80
80
80
80
00
00
80
ENDCHAR
STARTCHAR 1D0A
ENCODING 7434
SWIDTH 432 0
DWIDTH 6 0
BBX 5 7 0 0
BITMAP
38
08
08
08
08
C8
70
ENDCHAR
STARTCHAR 1D0B
ENCODING 7435
SWIDTH 504 0
DWIDTH 7 0
BBX 6 7 1 0
BITMAP
88
90
A0
E0
90
98
8C
ENDCHAR
STARTCHAR 1D0C
ENCODING 7436
SWIDTH 432 0
DWIDTH 6 0
BBX 5 7 0 0
BITMAP
40
40
50
60
C0
40
78
ENDCHAR
STARTCHAR 1D0D
ENCODING 7437
SWIDTH 720 0
DWIDTH 10 0
BBX 8 7 1 0
BITMAP
C3
C5
A7
A7
AB
9B
9B
ENDCHAR
STARTCHAR 1D0E
ENCODING 7438
SWIDTH 576 0
DWIDTH 8 0
BBX 6 7 1 0
BITMAP
8C
8C
94
A4
A4
C4
C4
ENDCHAR
STARTCHAR 1D0F
ENCODING 7439
SWIDTH 576 0
DWIDTH 8 0
BBX 6 7 1 0
BITMAP
78
8C
84
84
84
8C
78
ENDCHAR
STARTCHAR 1D10
ENCODING 7440
SWIDTH 504 0
DWIDTH 7 0
BBX 5 7 1 0
BITMAP
F0
88
08
08
08
88
F0
ENDCHAR
STARTCHAR 1D11
ENCODING 7441
SWIDTH 648 0
DWIDTH 9 0
BBX 8 7 0 0
BITMAP
3E
63
81
81
41
63
3E
ENDCHAR
STARTCHAR 1D12
ENCODING 7442
SWIDTH 648 0
DWIDTH 9 0
BBX 8 6 0 1
BITMAP
3E
63
C1
81
43
62
ENDCHAR
STARTCHAR 1D13
ENCODING 7443
SWIDTH 648 0
DWIDTH 9 0
BBX 8 8 0 -1
BITMAP
80
FE
63
51
89
45
63
3F
ENDCHAR
STARTCHAR 1D14
ENCODING 7444
SWIDTH 936 0
DWIDTH 13 0
BBX 12 7 1 0
BITMAP
7BC0
8E20
0430
FC30
8430
8E20
7BC0
ENDCHAR
STARTCHAR 1D15
ENCODING 7445
SWIDTH 432 0
DWIDTH 6 0
BBX 6 7 0 0
BITMAP
4C
48
30
4C
C4
44
78
ENDCHAR
STARTCHAR 1D16
ENCODING 7446
SWIDTH 576 0
DWIDTH 8 0
BBX 6 4 1 3
BITMAP
78
8C
84
84
ENDCHAR
STARTCHAR 1D17
ENCODING 7447
SWIDTH 576 0
DWIDTH 8 0
BBX 6 4 1 0
BITMAP
84
84
8C
78
ENDCHAR
STARTCHAR 1D18
ENCODING 7448
SWIDTH 504 0
DWIDTH 7 0
BBX 6 7 1 0
BITMAP
F8
8C
8C
F8
80
80
80
ENDCHAR
STARTCHAR 1D19
ENCODING 7449
SWIDTH 576 0
DWIDTH 8 0
BBX 7 7 0 0
BITMAP
7E
46
46
3E
26
66
C6
ENDCHAR
STARTCHAR 1D1A
ENCODING 7450
SWIDTH 576 0
DWIDTH 8 0
BBX 7 7 0 0
BITMAP
C6
66
26
7E
46
46
7E
ENDCHAR
STARTCHAR 1D1B
ENCODING 7451
SWIDTH 432 0
DWIDTH 6 0
BBX 6 7 0 0
BITMAP
FC
10
10
10
10
10
10
ENDCHAR
STARTCHAR 1D1C
ENCODING 7452
SWIDTH 576 0
DWIDTH 8 0
BBX 6 7 1 0
BITMAP
88
8C
84
84
84
8C
78
ENDCHAR
STARTCHAR 1D1D
ENCODING 7453
SWIDTH 576 0
DWIDTH 8 0
BBX 8 6 0 1
BITMAP
FF
02
01
01
01
FE
ENDCHAR
STARTCHAR 1D1E
ENCODING 7454
SWIDTH 720 0
DWIDTH 10 0
BBX 10 6 0 1
BITMAP
3FC0
C080
0040
0040
C040
3F80
ENDCHAR
STARTCHAR 1D1F
ENCODING 7455
SWIDTH 576 0
DWIDTH 8 0
BBX 8 10 0 -1
BITMAP
FF
02
01
01
FF
02
01
01
01
FE
ENDCHAR
STARTCHAR 1D20
ENCODING 7456
SWIDTH 504 0
DWIDTH 7 0
BBX 7 7 0 0
BITMAP
C6
44
44
6C
28
28
10
ENDCHAR
STARTCHAR 1D21
ENCODING 7457
SWIDTH 720 0
DWIDTH 10 0
BBX 10 7 0 0
BITMAP
8C40
CC40
4C80
5280
5280
3300
3300
ENDCHAR
STARTCHAR 1D22
ENCODING 7458
SWIDTH 504 0
DWIDTH 7 0
BBX 5 7 1 0
BITMAP
F8
18
30
20
40
80
F8
ENDCHAR
STARTCHAR 1D23
ENCODING 7459
SWIDTH 432 0
DWIDTH 6 0
BBX 6 7 0 0
BITMAP
7C
08
10
38
04
C4
78
ENDCHAR
STARTCHAR 1D24
ENCODING 7460
SWIDTH 432 0
DWIDTH 6 0
BBX 6 7 0 0
BITMAP
78
4C
08
30
40
C8
78
ENDCHAR
STARTCHAR 1D25
ENCODING 7461
SWIDTH 648 0
DWIDTH 9 0
BBX 7 7 1 0
BITMAP
78
7C
7C
78
30
38
CE
ENDCHAR
STARTCHAR 1D26
ENCODING 7462
SWIDTH 360 0
DWIDTH 5 0
BBX 4 7 1 0
BITMAP
F0
80
80
80
80
80
80
ENDCHAR
STARTCHAR 1D27
ENCODING 7463
SWIDTH 504 0
DWIDTH 7 0
BBX 7 7 0 0
BITMAP
10
28
28
6C
44
44
C6
ENDCHAR
STARTCHAR 1D28
ENCODING 7464
SWIDTH 576 0
DWIDTH 8 0
BBX 6 7 1 0
BITMAP
FC
8C
8C
8C
8C
8C
8C
ENDCHAR
STARTCHAR 1D29
ENCODING 7465
SWIDTH 504 0
DWIDTH 7 0
BBX 6 7 1 0
BITMAP
F8
8C
8C
F8
80
80
80
ENDCHAR
STARTCHAR 1D2A
ENCODING 7466
SWIDTH 720 0
DWIDTH 10 0
BBX 8 7 1 0
BITMAP
99
99
99
DB
7E
18
18
ENDCHAR
STARTCHAR 1D2B
ENCODING 7467
SWIDTH 576 0
DWIDTH 8 0
BBX 7 7 0 0
BITMAP
3E
22
22
22
22
62
C2
ENDCHAR
STARTCHAR 1D2C
ENCODING 7468
SWIDTH 432 0
DWIDTH 6 0
BBX 6 7 0 3
BITMAP
30
30
28
48
78
44
84
ENDCHAR
STARTCHAR 1D2D
ENCODING 7469
SWIDTH 648 0
DWIDTH 9 0
BBX 9 7 0 3
BITMAP
1F80
1800
2800
2F80
7800
4800
8F80
ENDCHAR
STARTCHAR 1D2E
ENCODING 7470
SWIDTH 432 0
DWIDTH 6 0
BBX 5 7 0 3
BITMAP
F8
88
88
F8
88
88
F8
ENDCHAR
STARTCHAR 1D2F
ENCODING 7471
SWIDTH 432 0
DWIDTH 6 0
BBX 6 7 0 3
BITMAP
F8
88
88
FC
88
88
F8
ENDCHAR
STARTCHAR 1D30
ENCODING 7472
SWIDTH 432 0
DWIDTH 6 0
BBX 6 7 0 3
BITMAP
F8
8C
84
84
84
8C
F8
ENDCHAR
STARTCHAR 1D31
ENCODING 7473
SWIDTH 432 0
DWIDTH 6 0
BBX 6 7 0 3
BITMAP
F8
80
80
F8
80
80
FC
ENDCHAR
STARTCHAR 1D32
ENCODING 7474
SWIDTH 432 0
DWIDTH 6 0
BBX 5 7 0 3
BITMAP
F8
08
08
78
08
08
F8
ENDCHAR
STARTCHAR 1D33
ENCODING 7475
SWIDTH 504 0
DWIDTH 7 0
BBX 7 7 0 3
BITMAP
3C
44
80
8E
82
42
3C
ENDCHAR
STARTCHAR 1D34
ENCODING 7476
SWIDTH 432 0
DWIDTH 6 0
BBX 6 7 0 3
BITMAP
84
84
84
FC
84
84
84
ENDCHAR
STARTCHAR 1D35
ENCODING 7477
SWIDTH 144 0
DWIDTH 2 0
BBX 1 7 1 3
BITMAP
80
80
80
80
80
80
80
ENDCHAR
STARTCHAR 1D36
ENCODING 7478
SWIDTH 288 0
DWIDTH 4 0
BBX 4 7 0 3
BITMAP
30
10
10
10
10
90
60
ENDCHAR
STARTCHAR 1D37
ENCODING 7479
SWIDTH 432 0
DWIDTH 6 0
BBX 5 7 0 3
BITMAP
88
90
A0
E0
90
88
88
ENDCHAR
STARTCHAR 1D38
ENCODING 7480
SWIDTH 360 0
DWIDTH 5 0
BBX 5 7 0 3
BITMAP
80
80
80
80
80
80
F8
ENDCHAR
STARTCHAR 1D39
ENCODING 7481
SWIDTH 504 0
DWIDTH 7 0
BBX 7 7 0 3
BITMAP
C6
C6
A6
AA
AA
92
92
ENDCHAR
STARTCHAR 1D3A
ENCODING 7482
SWIDTH 432 0
DWIDTH 6 0
BBX 6 7 0 3
BITMAP
C4
C4
A4
A4
94
8C
8C
ENDCHAR
STARTCHAR 1D3B
ENCODING 7483
SWIDTH 432 0
DWIDTH 6 0
BBX 6 7 0 3
BITMAP
8C
8C
94
94
A4
C4
C4
ENDCHAR
STARTCHAR 1D3C
ENCODING 7484
SWIDTH 504 0
DWIDTH 7 0
BBX 7 7 0 3
BITMAP
38
44
82
82
82
44
38
ENDCHAR
STARTCHAR 1D3D
ENCODING 7485
SWIDTH 360 0
DWIDTH 5 0
BBX 5 7 0 3
BITMAP
48
48
70
88
88
88
70
ENDCHAR
STARTCHAR 1D3E
ENCODING 7486
SWIDTH 432 0
DWIDTH 6 0
BBX 5 7 0 3
BITMAP
F8
88
88
F0
80
80
80
ENDCHAR
STARTCHAR 1D3F
ENCODING 7487
SWIDTH 432 0
DWIDTH 6 0
BBX 6 7 0 3
BITMAP
F8
84
84
F8
88
88
84
ENDCHAR
STARTCHAR 1D40
ENCODING 7488
SWIDTH 432 0
DWIDTH 6 0
BBX 6 7 0 3
BITMAP
FC
10
10
10
10
10
10
ENDCHAR
STARTCHAR 1D41
ENCODING 7489
SWIDTH 432 0
DWIDTH 6 0
BBX 6 7 0 3
BITMAP
84
84
84
84
84
CC
78
ENDCHAR
STARTCHAR 1D42
ENCODING 7490
SWIDTH 648 0
DWIDTH 9 0
BBX 9 7 0 3
BITMAP
8880
8900
5500
5500
5500
6600
2200
ENDCHAR
STARTCHAR 1D43
ENCODING 7491
SWIDTH 360 0
DWIDTH 5 0
BBX 5 6 0 3
BITMAP
70
08
78
88
98
68
ENDCHAR
STARTCHAR 1D44
ENCODING 7492
SWIDTH 360 0
DWIDTH 5 0
BBX 5 6 0 3
BITMAP
B0
48
48
70
40
70
ENDCHAR
STARTCHAR 1D45
ENCODING 7493
SWIDTH 360 0
DWIDTH 5 0
BBX 5 6 0 3
BITMAP
78
48
88
88
88
78
ENDCHAR
STARTCHAR 1D46
ENCODING 7494
SWIDTH 576 0
DWIDTH 8 0
BBX 8 6 0 3
BITMAP
77
09
09
FE
88
7F
ENDCHAR
STARTCHAR 1D47
ENCODING 7495
SWIDTH 360 0
DWIDTH 5 0
BBX 4 7 1 3
BITMAP
80
E0
90
90
90
90
60
ENDCHAR
STARTCHAR 1D48
ENCODING 7496
SWIDTH 360 0
DWIDTH 5 0
BBX 5 7 0 3
BITMAP
08
78
48
88
88
88
78
ENDCHAR
STARTCHAR 1D49
ENCODING 7497
SWIDTH 360 0
DWIDTH 5 0
BBX 5 6 0 3
BITMAP
70
88
F8
80
48
70
ENDCHAR
STARTCHAR 1D4A
ENCODING 7498
SWIDTH 360 0
DWIDTH 5 0
BBX 5 6 0 3
BITMAP
70
48
08
F8
48
70
ENDCHAR
STARTCHAR 1D4B
ENCODING 7499
SWIDTH 288 0
DWIDTH 4 0
BBX 4 6 0 3
BITMAP
70
80
60
80
90
70
ENDCHAR
STARTCHAR 1D4C
ENCODING 7500
SWIDTH 288 0
DWIDTH 4 0
BBX 4 6 0 3
BITMAP
70
10
20
10
90
70
ENDCHAR
STARTCHAR 1D4D
ENCODING 7501
SWIDTH 360 0
DWIDTH 5 0
BBX 5 8 0 1
BITMAP
78
48
88
88
88
78
08
70
ENDCHAR
STARTCHAR 1D4E
ENCODING 7502
SWIDTH 144 0
DWIDTH 2 0
BBX 1 6 1 1
BITMAP
80
80
80
80
80
80
ENDCHAR
STARTCHAR 1D4F
ENCODING 7503
SWIDTH 360 0
DWIDTH 5 0
BBX 3 7 1 3
BITMAP
80
A0
A0
C0
C0
A0
A0
ENDCHAR
STARTCHAR 1D50
ENCODING 7504
SWIDTH 576 0
DWIDTH 8 0
BBX 6 6 1 3
BITMAP
EC
94
A4
A4
A4
A4
ENDCHAR
STARTCHAR 1D51
ENCODING 7505
SWIDTH 360 0
DWIDTH 5 0
BBX 4 8 1 1
BITMAP
E0
90
90
90
90
90
10
20
ENDCHAR
STARTCHAR 1D52
ENCODING 7506
SWIDTH 360 0
DWIDTH 5 0
BBX 5 6 0 3
BITMAP
70
48
88
88
48
70
ENDCHAR
STARTCHAR 1D53
ENCODING 7507
SWIDTH 360 0
DWIDTH 5 0
BBX 4 6 1 3
BITMAP
E0
A0
10
10
A0
E0
ENDCHAR
STARTCHAR 1D54
ENCODING 7508
SWIDTH 360 0
DWIDTH 5 0
BBX 5 3 0 6
BITMAP
70
48
88
ENDCHAR
STARTCHAR 1D55
ENCODING 7509
SWIDTH 360 0
DWIDTH 5 0
BBX 5 3 0 3
BITMAP
88
48
70
ENDCHAR
STARTCHAR 1D56
ENCODING 7510
SWIDTH 360 0
DWIDTH 5 0
BBX 4 8 1 1
BITMAP
E0
90
90
90
90
E0
80
80
ENDCHAR
STARTCHAR 1D57
ENCODING 7511
SWIDTH 216 0
DWIDTH 3 0
BBX 3 7 0 3
BITMAP
40
E0
40
40
40
40
60
ENDCHAR
STARTCHAR 1D58
ENCODING 7512
SWIDTH 360 0
DWIDTH 5 0
BBX 4 6 1 3
BITMAP
90
90
90
90
90
F0
ENDCHAR
STARTCHAR 1D59
ENCODING 7513
SWIDTH 432 0
DWIDTH 6 0
BBX 5 4 0 4
BITMAP
F8
08
08
F8
ENDCHAR
STARTCHAR 1D5A
ENCODING 7514
SWIDTH 576 0
DWIDTH 8 0
BBX 6 6 1 3
BITMAP
A4
A4
A4
A4
A4
D8
ENDCHAR
STARTCHAR 1D5B
ENCODING 7515
SWIDTH 360 0
DWIDTH 5 0
BBX 5 6 0 3
BITMAP
88
90
50
50
60
20
ENDCHAR
STARTCHAR 1D5C
ENCODING 7516
SWIDTH 360 0
DWIDTH 5 0
BBX 5 6 0 3
BITMAP
70
70
70
30
20
D8
ENDCHAR
STARTCHAR 1D5D
ENCODING 7517
SWIDTH 360 0
DWIDTH 5 0
BBX 4 9 1 1
BITMAP
E0
90
90
A0
90
90
F0
80
80
ENDCHAR
STARTCHAR 1D5E
ENCODING 7518
SWIDTH 360 0
DWIDTH 5 0
BBX 4 8 0 1
BITMAP
90
90
50
50
60
20
20
20
ENDCHAR
STARTCHAR 1D5F
ENCODING 7519
SWIDTH 360 0
DWIDTH 5 0
BBX 5 7 0 3
BITMAP
70
20
30
48
88
88
70
ENDCHAR
STARTCHAR 1D60
ENCODING 7520
SWIDTH 432 0
DWIDTH 6 0
BBX 6 8 0 1
BITMAP
58
54
94
94
54
78
10
10
ENDCHAR
STARTCHAR 1D61
ENCODING 7521
SWIDTH 360 0
DWIDTH 5 0
BBX 5 8 0 1
BITMAP
90
50
50
20
20
50
50
88
ENDCHAR
STARTCHAR 1D62
ENCODING 7522
SWIDTH 144 0
DWIDTH 2 0
BBX 1 6 1 1
BITMAP
80
80
80
80
80
80
ENDCHAR
STARTCHAR 1D63
ENCODING 7523
SWIDTH 216 0
DWIDTH 3 0
BBX 2 6 1 -1
BITMAP
C0
80
80
80
80
80
ENDCHAR
STARTCHAR 1D64
ENCODING 7524
SWIDTH 360 0
DWIDTH 5 0
BBX 4 6 1 -1
BITMAP
90
90
90
90
90
F0
ENDCHAR
STARTCHAR 1D65
ENCODING 7525
SWIDTH 360 0
DWIDTH 5 0
BBX 5 6 0 -1
BITMAP
88
90
50
50
60
20
ENDCHAR
STARTCHAR 1D66
ENCODING 7526
SWIDTH 360 0
DWIDTH 5 0
BBX 4 9 1 -3
BITMAP
E0
90
90
A0
90
90
F0
80
80
ENDCHAR
STARTCHAR 1D67
ENCODING 7527
SWIDTH 360 0
DWIDTH 5 0
BBX 4 7 0 -3
BITMAP
90
90
50
60
20
20
40
ENDCHAR
STARTCHAR 1D68
ENCODING 7528
SWIDTH 360 0
DWIDTH 5 0
BBX 5 7 0 -3
BITMAP
70
88
88
88
F0
40
78
ENDCHAR
STARTCHAR 1D69
ENCODING 7529
SWIDTH 432 0
DWIDTH 6 0
BBX 6 7 0 -3
BITMAP
58
94
94
94
78
10
10
ENDCHAR
STARTCHAR 1D6A
ENCODING 7530
SWIDTH 360 0
DWIDTH 5 0
BBX 5 8 0 -3
BITMAP
90
50
50
20
20
50
50
88
ENDCHAR
STARTCHAR 1D6B
ENCODING 7531
SWIDTH 936 0
DWIDTH 13 0
BBX 11 7 1 0
BITMAP
87C0
8460
8420
87E0
8400
8C20
7BC0
ENDCHAR
STARTCHAR 1D6C
ENCODING 7532
SWIDTH 576 0
DWIDTH 8 0
BBX 8 10 -1 0
BITMAP
20
68
B0
2E
33
21
21
21
33
2E
ENDCHAR
STARTCHAR 1D6D
ENCODING 7533
SWIDTH 576 0
DWIDTH 8 0
BBX 7 10 1 0
BITMAP
04
1E
16
74
8C
84
84
84
8C
74
ENDCHAR
STARTCHAR 1D6E
ENCODING 7534
SWIDTH 288 0
DWIDTH 4 0
BBX 4 10 0 0
BITMAP
30
60
40
F0
40
40
F0
40
40
40
ENDCHAR
STARTCHAR 1D6F
ENCODING 7535
SWIDTH 864 0
DWIDTH 12 0
BBX 12 7 0 0
BITMAP
5DC0
6660
4620
FC30
C7E0
4420
4420
ENDCHAR
STARTCHAR 1D70
ENCODING 7536
SWIDTH 576 0
DWIDTH 8 0
BBX 9 7 -1 0
BITMAP
2E00
3300
2100
7980
A780
2100
2100
ENDCHAR
STARTCHAR 1D71
ENCODING 7537
SWIDTH 576 0
DWIDTH 8 0
BBX 8 10 -1 -3
BITMAP
2E
33
21
21
21
33
2E
20
F8
20
ENDCHAR
STARTCHAR 1D72
ENCODING 7538
SWIDTH 360 0
DWIDTH 5 0
BBX 4 7 0 0
BITMAP
50
60
40
40
F0
40
40
ENDCHAR
STARTCHAR 1D73
ENCODING 7539
SWIDTH 360 0
DWIDTH 5 0
BBX 4 7 0 0
BITMAP
30
60
40
40
F0
40
40
ENDCHAR
STARTCHAR 1D74
ENCODING 7540
SWIDTH 504 0
DWIDTH 7 0
BBX 7 7 0 0
BITMAP
7C
44
40
BE
04
44
7C
ENDCHAR
STARTCHAR 1D75
ENCODING 7541
SWIDTH 288 0
DWIDTH 4 0
BBX 4 9 0 0
BITMAP
40
40
F0
40
40
F0
40
40
70
ENDCHAR
STARTCHAR 1D76
ENCODING 7542
SWIDTH 504 0
DWIDTH 7 0
BBX 7 7 0 0
BITMAP
7C
0C
08
7C
20
40
FE
ENDCHAR
STARTCHAR 1D77
ENCODING 7543
SWIDTH 576 0
DWIDTH 8 0
BBX 6 10 1 -3
BITMAP
78
CC
80
B8
C4
84
84
84
CC
B8
ENDCHAR
STARTCHAR 1D78
ENCODING 7544
SWIDTH 360 0
DWIDTH 5 0
BBX 4 6 1 3
BITMAP
90
90
F0
90
90
90
ENDCHAR
STARTCHAR 1D79
ENCODING 7545
SWIDTH 576 0
DWIDTH 8 0
BBX 6 10 1 -3
BITMAP
FC
08
30
30
78
84
84
84
84
78
ENDCHAR
STARTCHAR 1D7A
ENCODING 7546
SWIDTH 792 0
DWIDTH 11 0
BBX 10 10 0 0
BITMAP
0900
4900
4A00
FF80
4C40
4840
5840
7840
6840
7840
ENDCHAR
STARTCHAR 1D7B
ENCODING 7547
SWIDTH 216 0
DWIDTH 3 0
BBX 3 7 0 0
BITMAP
40
40
40
E0
40
40
40
ENDCHAR
STARTCHAR 1D7C
ENCODING 7548
SWIDTH 216 0
DWIDTH 3 0
BBX 3 7 0 0
BITMAP
40
40
40
E0
40
40
40
ENDCHAR
STARTCHAR 1D7D
ENCODING 7549
SWIDTH 576 0
DWIDTH 8 0
BBX 8 10 0 -3
BITMAP
5C
66
42
FF
42
62
5C
40
40
40
ENDCHAR
STARTCHAR 1D7E
ENCODING 7550
SWIDTH 576 0
DWIDTH 8 0
BBX 7 7 0 0
BITMAP
42
42
42
FE
42
46
3C
ENDCHAR
STARTCHAR 1D7F
ENCODING 7551
SWIDTH 576 0
DWIDTH 8 0
BBX 8 7 0 0
BITMAP
FF
24
42
FF
42
46
3C
ENDCHAR
STARTCHAR 1D80
ENCODING 7552
SWIDTH 576 0
DWIDTH 8 0
BBX 6 13 1 -3
BITMAP
80
80
80
B8
CC
84
84
84
CC
BC
0C
0C
18
ENDCHAR
STARTCHAR 1D81
ENCODING 7553
SWIDTH 576 0
DWIDTH 8 0
BBX 6 13 1 -3
BITMAP
04
04
04
74
8C
84
84
84
8C
74
04
04
0C
ENDCHAR
STARTCHAR 1D82
ENCODING 7554
SWIDTH 288 0
DWIDTH 4 0
BBX 4 13 0 -3
BITMAP
30
60
40
F0
40
40
40
40
40
60
20
20
E0
ENDCHAR
STARTCHAR 1D83
ENCODING 7555
SWIDTH 720 0
DWIDTH 10 0
BBX 9 10 1 -3
BITMAP
7400
8C00
8400
8400
8400
8F80
7480
0480
8F00
7800
ENDCHAR
STARTCHAR 1D84
ENCODING 7556
SWIDTH 504 0
DWIDTH 7 0
BBX 6 13 1 -3
BITMAP
80
80
80
88
90
A0
E0
90
98
8C
04
04
1C
ENDCHAR
STARTCHAR 1D85
ENCODING 7557
SWIDTH 216 0
DWIDTH 3 0
BBX 3 13 0 -3
BITMAP
40
40
40
40
40
40
40
40
40
60
20
20
C0
ENDCHAR
STARTCHAR 1D86
ENCODING 7558
SWIDTH 864 0
DWIDTH 12 0
BBX 10 10 1 -3
BITMAP
BB80
CCC0
8C40
8840
8840
8840
8840
0040
0040
00C0
ENDCHAR
STARTCHAR 1D87
ENCODING 7559
SWIDTH 576 0
DWIDTH 8 0
BBX 7 10 1 -3
BITMAP
B8
CC
84
84
84
84
86
06
04
0C
ENDCHAR
STARTCHAR 1D88
ENCODING 7560
SWIDTH 576 0
DWIDTH 8 0
BBX 6 10 1 -3
BITMAP
B8
CC
84
84
84
CC
B8
88
88
98
ENDCHAR
STARTCHAR 1D89
ENCODING 7561
SWIDTH 360 0
DWIDTH 5 0
BBX 4 10 0 -3
BITMAP
50
60
40
40
40
40
60
20
60
C0
ENDCHAR
STARTCHAR 1D8A
ENCODING 7562
SWIDTH 504 0
DWIDTH 7 0
BBX 6 10 1 -3
BITMAP
F8
88
80
70
08
8C
FC
0C
08
18
ENDCHAR
STARTCHAR 1D8B
ENCODING 7563
SWIDTH 360 0
DWIDTH 5 0
BBX 6 13 -1 -3
BITMAP
18
20
20
20
20
20
20
20
3C
24
24
2C
E0
ENDCHAR
STARTCHAR 1D8C
ENCODING 7564
SWIDTH 504 0
DWIDTH 7 0
BBX 7 10 0 -3
BITMAP
C6
44
44
6C
28
28
1C
04
04
0C
ENDCHAR
STARTCHAR 1D8D
ENCODING 7565
SWIDTH 504 0
DWIDTH 7 0
BBX 6 10 1 -3
BITMAP
88
D8
50
20
50
D8
8C
04
04
18
ENDCHAR
STARTCHAR 1D8E
ENCODING 7566
SWIDTH 504 0
DWIDTH 7 0
BBX 7 10 0 -3
BITMAP
7C
0C
18
10
20
40
FE
06
04
0C
ENDCHAR
STARTCHAR 1D8F
ENCODING 7567
SWIDTH 576 0
DWIDTH 8 0
BBX 8 10 1 -3
BITMAP
78
8C
0C
FC
8C
8C
F6
02
02
03
ENDCHAR
STARTCHAR 1D90
ENCODING 7568
SWIDTH 576 0
DWIDTH 8 0
BBX 8 10 1 -3
BITMAP
74
8C
84
84
84
8C
74
04
04
03
ENDCHAR
STARTCHAR 1D91
ENCODING 7569
SWIDTH 576 0
DWIDTH 8 0
BBX 7 13 1 -3
BITMAP
06
04
04
74
8C
84
84
84
8C
74
04
04
06
ENDCHAR
STARTCHAR 1D92
ENCODING 7570
SWIDTH 576 0
DWIDTH 8 0
BBX 8 10 1 -3
BITMAP
78
8C
84
FC
80
84
7C
04
04
07
ENDCHAR
STARTCHAR 1D93
ENCODING 7571
SWIDTH 432 0
DWIDTH 6 0
BBX 7 10 1 -3
BITMAP
F0
88
80
60
80
88
F8
08
08
0E
ENDCHAR
STARTCHAR 1D94
ENCODING 7572
SWIDTH 432 0
DWIDTH 6 0
BBX 6 10 0 -3
BITMAP
78
4C
0C
30
0C
C4
F8
C0
C0
60
ENDCHAR
STARTCHAR 1D95
ENCODING 7573
SWIDTH 648 0
DWIDTH 9 0
BBX 9 10 1 -3
BITMAP
7800
8C00
0400
FE00
8600
8E00
7A00
0200
0200
0180
ENDCHAR
STARTCHAR 1D96
ENCODING 7574
SWIDTH 216 0
DWIDTH 3 0
BBX 3 13 1 -3
BITMAP
80
00
00
80
80
80
80
80
80
C0
40
40
60
ENDCHAR
STARTCHAR 1D97
ENCODING 7575
SWIDTH 504 0
DWIDTH 7 0
BBX 6 10 0 -3
BITMAP
78
44
04
04
04
C4
F8
C0
C0
60
ENDCHAR
STARTCHAR 1D98
ENCODING 7576
SWIDTH 216 0
DWIDTH 3 0
BBX 5 13 -1 -3
BITMAP
18
20
20
20
20
20
20
20
20
20
E0
C0
60
ENDCHAR
STARTCHAR 1D99
ENCODING 7577
SWIDTH 576 0
DWIDTH 8 0
BBX 8 10 1 -3
BITMAP
84
84
84
84
84
8C
74
04
06
03
ENDCHAR
STARTCHAR 1D9A
ENCODING 7578
SWIDTH 576 0
DWIDTH 8 0
BBX 7 10 0 -3
BITMAP
7E
04
08
1C
02
C2
C6
FC
40
60
ENDCHAR
STARTCHAR 1D9B
ENCODING 7579
SWIDTH 360 0
DWIDTH 5 0
BBX 4 6 1 3
BITMAP
E0
90
90
90
90
E0
ENDCHAR
STARTCHAR 1D9C
ENCODING 7580
SWIDTH 360 0
DWIDTH 5 0
BBX 5 6 0 3
BITMAP
70
48
80
80
48
70
ENDCHAR
STARTCHAR 1D9D
ENCODING 7581
SWIDTH 360 0
DWIDTH 5 0
BBX 4 6 0 3
BITMAP
70
40
80
B0
50
F0
ENDCHAR
STARTCHAR 1D9E
ENCODING 7582
SWIDTH 360 0
DWIDTH 5 0
BBX 5 7 0 3
BITMAP
30
10
78
88
88
88
70
ENDCHAR
STARTCHAR 1D9F
ENCODING 7583
SWIDTH 288 0
DWIDTH 4 0
BBX 4 6 0 3
BITMAP
70
10
20
10
90
70
ENDCHAR
STARTCHAR 1DA0
ENCODING 7584
SWIDTH 216 0
DWIDTH 3 0
BBX 3 7 0 3
BITMAP
60
40
E0
40
40
40
40
ENDCHAR
STARTCHAR 1DA1
ENCODING 7585
SWIDTH 216 0
DWIDTH 3 0
BBX 3 8 0 1
BITMAP
40
40
40
40
E0
40
40
C0
ENDCHAR
STARTCHAR 1DA2
ENCODING 7586
SWIDTH 360 0
DWIDTH 5 0
BBX 5 8 0 1
BITMAP
78
48
88
88
88
78
08
70
ENDCHAR
STARTCHAR 1DA3
ENCODING 7587
SWIDTH 360 0
DWIDTH 5 0
BBX 4 7 1 3
BITMAP
90
90
90
B0
D0
10
10
ENDCHAR
STARTCHAR 1DA4
ENCODING 7588
SWIDTH 144 0
DWIDTH 2 0
BBX 2 7 0 3
BITMAP
40
40
40
C0
40
40
40
ENDCHAR
STARTCHAR 1DA5
ENCODING 7589
SWIDTH 144 0
DWIDTH 2 0
BBX 1 6 1 3
BITMAP
80
80
80
80
80
80
ENDCHAR
STARTCHAR 1DA6
ENCODING 7590
SWIDTH 144 0
DWIDTH 2 0
BBX 1 6 1 3
BITMAP
80
80
80
80
80
80
ENDCHAR
STARTCHAR 1DA7
ENCODING 7591
SWIDTH 144 0
DWIDTH 2 0
BBX 2 6 0 3
BITMAP
40
40
C0
40
40
40
ENDCHAR
STARTCHAR 1DA8
ENCODING 7592
SWIDTH 288 0
DWIDTH 4 0
BBX 4 9 0 1
BITMAP
20
20
20
20
20
20
F0
A0
E0
ENDCHAR
STARTCHAR 1DA9
ENCODING 7593
SWIDTH 144 0
DWIDTH 2 0
BBX 1 9 1 1
BITMAP
80
80
80
80
80
80
80
80
80
ENDCHAR
STARTCHAR 1DAA
ENCODING 7594
SWIDTH 144 0
DWIDTH 2 0
BBX 2 9 0 1
BITMAP
40
40
40
40
40
40
40
40
C0
ENDCHAR
STARTCHAR 1DAB
ENCODING 7595
SWIDTH 288 0
DWIDTH 4 0
BBX 3 6 1 3
BITMAP
80
80
80
80
80
E0
ENDCHAR
STARTCHAR 1DAC
ENCODING 7596
SWIDTH 576 0
DWIDTH 8 0
BBX 6 8 1 1
BITMAP
EC
94
A4
A4
A4
A4
04
0C
ENDCHAR
STARTCHAR 1DAD
ENCODING 7597
SWIDTH 576 0
DWIDTH 8 0
BBX 6 8 1 1
BITMAP
A4
A4
A4
A4
A4
DC
04
04
ENDCHAR
STARTCHAR 1DAE
ENCODING 7598
SWIDTH 360 0
DWIDTH 5 0
BBX 5 8 0 1
BITMAP
70
48
48
48
48
48
40
80
ENDCHAR
STARTCHAR 1DAF
ENCODING 7599
SWIDTH 360 0
DWIDTH 5 0
BBX 5 8 1 1
BITMAP
E0
90
90
90
90
90
10
18
ENDCHAR
STARTCHAR 1DB0
ENCODING 7600
SWIDTH 360 0
DWIDTH 5 0
BBX 4 6 1 3
BITMAP
90
90
D0
D0
B0
90
ENDCHAR
STARTCHAR 1DB1
ENCODING 7601
SWIDTH 360 0
DWIDTH 5 0
BBX 5 6 0 3
BITMAP
70
88
F8
88
48
70
ENDCHAR
STARTCHAR 1DB2
ENCODING 7602
SWIDTH 360 0
DWIDTH 5 0
BBX 5 9 0 1
BITMAP
20
70
68
A8
A8
68
70
20
20
ENDCHAR
STARTCHAR 1DB3
ENCODING 7603
SWIDTH 360 0
DWIDTH 5 0
BBX 4 8 0 1
BITMAP
70
80
60
10
10
F0
80
40
ENDCHAR
STARTCHAR 1DB4
ENCODING 7604
SWIDTH 144 0
DWIDTH 2 0
BBX 4 9 -1 1
BITMAP
30
20
20
20
20
20
20
20
C0
ENDCHAR
STARTCHAR 1DB5
ENCODING 7605
SWIDTH 216 0
DWIDTH 3 0
BBX 3 9 0 1
BITMAP
40
E0
40
40
40
40
60
20
40
ENDCHAR
STARTCHAR 1DB6
ENCODING 7606
SWIDTH 360 0
DWIDTH 5 0
BBX 5 6 0 3
BITMAP
48
48
48
F8
48
78
ENDCHAR
STARTCHAR 1DB7
ENCODING 7607
SWIDTH 360 0
DWIDTH 5 0
BBX 5 6 0 3
BITMAP
C8
50
48
88
48
70
ENDCHAR
STARTCHAR 1DB8
ENCODING 7608
SWIDTH 360 0
DWIDTH 5 0
BBX 4 6 1 3
BITMAP
90
90
90
90
90
E0
ENDCHAR
STARTCHAR 1DB9
ENCODING 7609
SWIDTH 360 0
DWIDTH 5 0
BBX 4 6 1 3
BITMAP
A0
90
90
90
A0
E0
ENDCHAR
STARTCHAR 1DBA
ENCODING 7610
SWIDTH 360 0
DWIDTH 5 0
BBX 5 6 0 3
BITMAP
20
60
50
50
90
88
ENDCHAR
STARTCHAR 1DBB
ENCODING 7611
SWIDTH 360 0
DWIDTH 5 0
BBX 5 6 0 3
BITMAP
70
10
20
20
40
F8
ENDCHAR
STARTCHAR 1DBC
ENCODING 7612
SWIDTH 360 0
DWIDTH 5 0
BBX 5 8 0 1
BITMAP
F0
10
20
40
40
F8
08
08
ENDCHAR
STARTCHAR 1DBD
ENCODING 7613
SWIDTH 360 0
DWIDTH 5 0
BBX 5 7 0 2
BITMAP
F0
10
20
58
68
F8
40
ENDCHAR
STARTCHAR 1DBE
ENCODING 7614
SWIDTH 360 0
DWIDTH 5 0
BBX 5 8 0 1
BITMAP
78
10
20
30
08
08
88
70
ENDCHAR
STARTCHAR 1DBF
ENCODING 7615
SWIDTH 360 0
DWIDTH 5 0
BBX 5 7 0 3
BITMAP
70
48
88
F8
88
48
70
ENDCHAR
STARTCHAR 1DC0
ENCODING 7616
SWIDTH 0 0
DWIDTH 0 0
BBX 4 2 -2 8
BITMAP
50
A0
ENDCHAR
STARTCHAR 1DC1
ENCODING 7617
SWIDTH 0 0
DWIDTH 0 0
BBX 6 2 -3 8
BITMAP
1C
E0
ENDCHAR
STARTCHAR 1DC2
ENCODING 7618
SWIDTH 0 0
DWIDTH 0 0
BBX 2 2 -1 -3
BITMAP
40
80
ENDCHAR
STARTCHAR 1DC3
ENCODING 7619
SWIDTH 0 0
DWIDTH 0 0
BBX 4 2 -2 9
BITMAP
90
E0
ENDCHAR
STARTCHAR 1DC4
ENCODING 7620
SWIDTH 0 0
DWIDTH 0 0
BBX 4 2 -2 8
BITMAP
10
E0
ENDCHAR
STARTCHAR 1DC5
ENCODING 7621
SWIDTH 0 0
DWIDTH 0 0
BBX 4 2 -2 8
BITMAP
80
70
ENDCHAR
STARTCHAR 1DC6
ENCODING 7622
SWIDTH 0 0
DWIDTH 0 0
BBX 4 2 -2 8
BITMAP
E0
10
ENDCHAR
STARTCHAR 1DC7
ENCODING 7623
SWIDTH 0 0
DWIDTH 0 0
BBX 4 2 -2 8
BITMAP
70
80
ENDCHAR
STARTCHAR 1DC8
ENCODING 7624
SWIDTH 0 0
DWIDTH 0 0
BBX 6 2 -3 8
BITMAP
98
64
ENDCHAR
STARTCHAR 1DC9
ENCODING 7625
SWIDTH 0 0
DWIDTH 0 0
BBX 6 2 -3 8
BITMAP
64
98
ENDCHAR
STARTCHAR 1DCA
ENCODING 7626
SWIDTH 0 0
DWIDTH 0 0
BBX 2 3 -1 -3
BITMAP
C0
80
80
ENDCHAR
STARTCHAR 1DFE
ENCODING 7678
SWIDTH 0 0
DWIDTH 0 0
BBX 2 3 -1 8
BITMAP
40
80
40
ENDCHAR
STARTCHAR 1DFF
ENCODING 7679
SWIDTH 0 0
DWIDTH 0 0
BBX 5 3 -2 -3
BITMAP
A8
50
80
ENDCHAR
STARTCHAR 1E00
ENCODING 7680
SWIDTH 648 0
DWIDTH 9 0
BBX 9 13 0 -3
BITMAP
0C00
1C00
1400
1200
2200
2300
7F00
4100
4180
C080
0C00
1200
0C00
ENDCHAR
STARTCHAR 1E01
ENCODING 7681
SWIDTH 576 0
DWIDTH 8 0
BBX 7 10 1 -3
BITMAP
78
8C
0C
7C
8C
8C
F6
30
48
30
ENDCHAR
STARTCHAR 1E02
ENCODING 7682
SWIDTH 648 0
DWIDTH 9 0
BBX 8 12 1 0
BITMAP
10
00
FC
86
82
86
FC
82
83
83
82
FC
ENDCHAR
STARTCHAR 1E03
ENCODING 7683
SWIDTH 576 0
DWIDTH 8 0
BBX 6 10 1 0
BITMAP
80
90
80
B8
CC
84
84
84
CC
B8
ENDCHAR
STARTCHAR 1E04
ENCODING 7684
SWIDTH 648 0
DWIDTH 9 0
BBX 8 12 1 -2
BITMAP
FC
86
82
86
FC
82
83
83
82
FC
00
30
ENDCHAR
STARTCHAR 1E05
ENCODING 7685
SWIDTH 576 0
DWIDTH 8 0
BBX 6 12 1 -2
BITMAP
80
80
80
B8
CC
84
84
84
CC
B8
00
30
ENDCHAR
STARTCHAR 1E06
ENCODING 7686
SWIDTH 648 0
DWIDTH 9 0
BBX 8 12 1 -2
BITMAP
FC
86
82
86
FC
82
83
83
82
FC
00
78
ENDCHAR
STARTCHAR 1E07
ENCODING 7687
SWIDTH 576 0
DWIDTH 8 0
BBX 6 12 1 -2
BITMAP
80
80
80
B8
CC
84
84
84
CC
B8
00
78
ENDCHAR
STARTCHAR 1E08
ENCODING 7688
SWIDTH 720 0
DWIDTH 10 0
BBX 9 17 1 -4
BITMAP
0400
0800
0000
3E00
6300
C100
8000
8000
8000
8000
C180
6300
3E00
1000
1800
0800
1800
ENDCHAR
STARTCHAR 1E09
ENCODING 7689
SWIDTH 504 0
DWIDTH 7 0
BBX 6 14 1 -4
BITMAP
10
20
00
78
88
80
80
80
8C
78
20
30
10
30
ENDCHAR
STARTCHAR 1E0A
ENCODING 7690
SWIDTH 720 0
DWIDTH 10 0
BBX 8 12 1 0
BITMAP
10
00
FC
86
81
81
81
81
81
83
86
FC
ENDCHAR
STARTCHAR 1E0B
ENCODING 7691
SWIDTH 576 0
DWIDTH 8 0
BBX 6 10 1 0
BITMAP
04
24
04
74
8C
84
84
84
8C
74
ENDCHAR
STARTCHAR 1E0C
ENCODING 7692
SWIDTH 720 0
DWIDTH 10 0
BBX 8 12 1 -2
BITMAP
FC
86
81
81
81
81
81
83
86
FC
00
18
ENDCHAR
STARTCHAR 1E0D
ENCODING 7693
SWIDTH 576 0
DWIDTH 8 0
BBX 6 12 1 -2
BITMAP
04
04
04
74
8C
84
84
84
8C
74
00
30
ENDCHAR
STARTCHAR 1E0E
ENCODING 7694
SWIDTH 720 0
DWIDTH 10 0
BBX 8 12 1 -2
BITMAP
FC
86
81
81
81
81
81
83
86
FC
00
78
ENDCHAR
STARTCHAR 1E0F
ENCODING 7695
SWIDTH 576 0
DWIDTH 8 0
BBX 6 12 1 -2
BITMAP
04
04
04
74
8C
84
84
84
8C
74
00
78
ENDCHAR
STARTCHAR 1E10
ENCODING 7696
SWIDTH 720 0
DWIDTH 10 0
BBX 8 13 1 -3
BITMAP
FC
86
81
81
81
81
81
83
86
FC
00
18
08
ENDCHAR
STARTCHAR 1E11
ENCODING 7697
SWIDTH 576 0
DWIDTH 8 0
BBX 6 13 1 -3
BITMAP
04
04
04
74
8C
84
84
84
8C
74
00
30
10
ENDCHAR
STARTCHAR 1E12
ENCODING 7698
SWIDTH 720 0
DWIDTH 10 0
BBX 8 13 1 -3
BITMAP
FC
86
81
81
81
81
81
83
86
FC
00
18
24
ENDCHAR
STARTCHAR 1E13
ENCODING 7699
SWIDTH 576 0
DWIDTH 8 0
BBX 6 13 1 -3
BITMAP
04
04
04
74
8C
84
84
84
8C
74
00
30
48
ENDCHAR
STARTCHAR 1E14
ENCODING 7700
SWIDTH 648 0
DWIDTH 9 0
BBX 8 13 1 0
BITMAP
10
3C
00
FE
80
80
80
FE
80
80
80
80
FF
ENDCHAR
STARTCHAR 1E15
ENCODING 7701
SWIDTH 576 0
DWIDTH 8 0
BBX 6 12 1 0
BITMAP
60
20
00
78
00
78
8C
84
FC
80
84
78
ENDCHAR
STARTCHAR 1E16
ENCODING 7702
SWIDTH 648 0
DWIDTH 9 0
BBX 8 13 1 0
BITMAP
08
3C
00
FE
80
80
80
FE
80
80
80
80
FF
ENDCHAR
STARTCHAR 1E17
ENCODING 7703
SWIDTH 576 0
DWIDTH 8 0
BBX 6 12 1 0
BITMAP
08
10
00
78
00
78
8C
84
FC
80
84
78
ENDCHAR
STARTCHAR 1E18
ENCODING 7704
SWIDTH 648 0
DWIDTH 9 0
BBX 8 13 1 -3
BITMAP
FE
80
80
80
FE
80
80
80
80
FF
00
18
24
ENDCHAR
STARTCHAR 1E19
ENCODING 7705
SWIDTH 576 0
DWIDTH 8 0
BBX 6 10 1 -3
BITMAP
78
8C
84
FC
80
84
78
00
30
48
ENDCHAR
STARTCHAR 1E1A
ENCODING 7706
SWIDTH 648 0
DWIDTH 9 0
BBX 8 13 1 -3
BITMAP
FE
80
80
80
FE
80
80
80
80
FF
00
32
4C
ENDCHAR
STARTCHAR 1E1B
ENCODING 7707
SWIDTH 576 0
DWIDTH 8 0
BBX 6 10 1 -3
BITMAP
78
8C
84
FC
80
84
78
00
64
98
ENDCHAR
STARTCHAR 1E1C
ENCODING 7708
SWIDTH 648 0
DWIDTH 9 0
BBX 8 17 1 -4
BITMAP
24
1C
00
FE
80
80
80
FE
80
80
80
80
FF
10
18
08
18
ENDCHAR
STARTCHAR 1E1D
ENCODING 7709
SWIDTH 576 0
DWIDTH 8 0
BBX 6 14 1 -4
BITMAP
48
38
00
78
8C
84
FC
80
84
78
20
30
10
30
ENDCHAR
STARTCHAR 1E1E
ENCODING 7710
SWIDTH 648 0
DWIDTH 9 0
BBX 7 12 1 0
BITMAP
10
00
FE
80
80
80
80
FE
80
80
80
80
ENDCHAR
STARTCHAR 1E1F
ENCODING 7711
SWIDTH 288 0
DWIDTH 4 0
BBX 4 12 0 0
BITMAP
20
00
30
60
40
F0
40
40
40
40
40
40
ENDCHAR
STARTCHAR 1E20
ENCODING 7712
SWIDTH 792 0
DWIDTH 11 0
BBX 9 12 1 0
BITMAP
3C00
0000
3E00
6300
C180
8000
8000
8780
8080
C080
6180
3E00
ENDCHAR
STARTCHAR 1E21
ENCODING 7713
SWIDTH 576 0
DWIDTH 8 0
BBX 6 12 1 -3
BITMAP
78
00
74
8C
84
84
84
8C
74
04
8C
78
ENDCHAR
STARTCHAR 1E22
ENCODING 7714
SWIDTH 720 0
DWIDTH 10 0
BBX 8 12 1 0
BITMAP
10
00
81
81
81
81
FF
81
81
81
81
81
ENDCHAR
STARTCHAR 1E23
ENCODING 7715
SWIDTH 576 0
DWIDTH 8 0
BBX 6 12 1 0
BITMAP
10
00
80
80
80
B8
CC
84
84
84
84
84
ENDCHAR
STARTCHAR 1E24
ENCODING 7716
SWIDTH 720 0
DWIDTH 10 0
BBX 8 12 1 -2
BITMAP
81
81
81
81
FF
81
81
81
81
81
00
18
ENDCHAR
STARTCHAR 1E25
ENCODING 7717
SWIDTH 576 0
DWIDTH 8 0
BBX 6 12 1 -2
BITMAP
80
80
80
B8
CC
84
84
84
84
84
00
30
ENDCHAR
STARTCHAR 1E26
ENCODING 7718
SWIDTH 720 0
DWIDTH 10 0
BBX 8 12 1 0
BITMAP
24
00
81
81
81
81
FF
81
81
81
81
81
ENDCHAR
STARTCHAR 1E27
ENCODING 7719
SWIDTH 576 0
DWIDTH 8 0
BBX 6 12 1 0
BITMAP
48
00
80
80
80
B8
CC
84
84
84
84
84
ENDCHAR
STARTCHAR 1E28
ENCODING 7720
SWIDTH 720 0
DWIDTH 10 0
BBX 8 14 1 -4
BITMAP
81
81
81
81
FF
81
81
81
81
81
80
C0
40
C0
ENDCHAR
STARTCHAR 1E29
ENCODING 7721
SWIDTH 576 0
DWIDTH 8 0
BBX 6 14 1 -4
BITMAP
80
80
80
B8
CC
84
84
84
84
84
80
C0
40
C0
ENDCHAR
STARTCHAR 1E2A
ENCODING 7722
SWIDTH 720 0
DWIDTH 10 0
BBX 8 13 1 -3
BITMAP
81
81
81
81
FF
81
81
81
81
81
00
24
18
ENDCHAR
STARTCHAR 1E2B
ENCODING 7723
SWIDTH 576 0
DWIDTH 8 0
BBX 6 13 1 -3
BITMAP
80
80
80
B8
CC
84
84
84
84
84
00
48
30
ENDCHAR
STARTCHAR 1E2C
ENCODING 7724
SWIDTH 288 0
DWIDTH 4 0
BBX 4 13 0 -3
BITMAP
60
60
60
60
60
60
60
60
60
60
00
D0
B0
ENDCHAR
STARTCHAR 1E2D
ENCODING 7725
SWIDTH 216 0
DWIDTH 3 0
BBX 4 13 0 -3
BITMAP
40
00
00
40
40
40
40
40
40
40
00
D0
B0
ENDCHAR
STARTCHAR 1E2E
ENCODING 7726
SWIDTH 288 0
DWIDTH 4 0
BBX 4 13 0 0
BITMAP
20
90
00
60
60
60
60
60
60
60
60
60
60
ENDCHAR
STARTCHAR 1E2F
ENCODING 7727
SWIDTH 288 0
DWIDTH 4 0
BBX 4 12 0 0
BITMAP
10
20
00
90
00
60
60
60
60
60
60
60
ENDCHAR
STARTCHAR 1E30
ENCODING 7728
SWIDTH 648 0
DWIDTH 9 0
BBX 8 13 1 0
BITMAP
08
10
00
82
84
88
90
B0
D0
88
84
86
83
ENDCHAR
STARTCHAR 1E31
ENCODING 7729
SWIDTH 504 0
DWIDTH 7 0
BBX 6 13 1 0
BITMAP
20
40
00
80
80
80
88
90
A0
E0
90
98
8C
ENDCHAR
STARTCHAR 1E32
ENCODING 7730
SWIDTH 648 0
DWIDTH 9 0
BBX 8 12 1 -2
BITMAP
82
84
88
90
B0
D0
88
84
86
83
00
18
ENDCHAR
STARTCHAR 1E33
ENCODING 7731
SWIDTH 504 0
DWIDTH 7 0
BBX 6 12 1 -2
BITMAP
80
80
80
88
90
A0
E0
90
98
8C
00
30
ENDCHAR
STARTCHAR 1E34
ENCODING 7732
SWIDTH 648 0
DWIDTH 9 0
BBX 8 12 1 -2
BITMAP
82
84
88
90
B0
D0
88
84
86
83
00
3C
ENDCHAR
STARTCHAR 1E35
ENCODING 7733
SWIDTH 504 0
DWIDTH 7 0
BBX 6 12 1 -2
BITMAP
80
80
80
88
90
A0
E0
90
98
8C
00
78
ENDCHAR
STARTCHAR 1E36
ENCODING 7734
SWIDTH 576 0
DWIDTH 8 0
BBX 6 12 1 -2
BITMAP
80
80
80
80
80
80
80
80
80
FC
00
30
ENDCHAR
STARTCHAR 1E37
ENCODING 7735
SWIDTH 216 0
DWIDTH 3 0
BBX 2 12 1 -2
BITMAP
80
80
80
80
80
80
80
80
80
80
00
C0
ENDCHAR
STARTCHAR 1E38
ENCODING 7736
SWIDTH 576 0
DWIDTH 8 0
BBX 6 14 1 -2
BITMAP
78
00
80
80
80
80
80
80
80
80
80
FC
00
30
ENDCHAR
STARTCHAR 1E39
ENCODING 7737
SWIDTH 216 0
DWIDTH 3 0
BBX 4 14 -1 -2
BITMAP
F0
00
20
20
20
20
20
20
20
20
20
20
00
30
ENDCHAR
STARTCHAR 1E3A
ENCODING 7738
SWIDTH 576 0
DWIDTH 8 0
BBX 6 12 1 -2
BITMAP
80
80
80
80
80
80
80
80
80
FC
00
78
ENDCHAR
STARTCHAR 1E3B
ENCODING 7739
SWIDTH 216 0
DWIDTH 3 0
BBX 4 12 0 -2
BITMAP
40
40
40
40
40
40
40
40
40
40
00
F0
ENDCHAR
STARTCHAR 1E3C
ENCODING 7740
SWIDTH 576 0
DWIDTH 8 0
BBX 6 13 1 -3
BITMAP
80
80
80
80
80
80
80
80
80
FC
00
30
48
ENDCHAR
STARTCHAR 1E3D
ENCODING 7741
SWIDTH 216 0
DWIDTH 3 0
BBX 4 13 0 -3
BITMAP
40
40
40
40
40
40
40
40
40
40
00
60
90
ENDCHAR
STARTCHAR 1E3E
ENCODING 7742
SWIDTH 864 0
DWIDTH 12 0
BBX 10 13 1 0
BITMAP
0400
0800
0000
C0C0
C1C0
A1C0
A1C0
B2C0
92C0
92C0
9CC0
8CC0
88C0
ENDCHAR
STARTCHAR 1E3F
ENCODING 7743
SWIDTH 864 0
DWIDTH 12 0
BBX 10 10 1 0
BITMAP
0200
0400
0000
BB80
CCC0
8C40
8840
8840
8840
8840
ENDCHAR
STARTCHAR 1E40
ENCODING 7744
SWIDTH 864 0
DWIDTH 12 0
BBX 10 12 1 0
BITMAP
0800
0000
C0C0
C1C0
A1C0
A1C0
B2C0
92C0
92C0
9CC0
8CC0
88C0
ENDCHAR
STARTCHAR 1E41
ENCODING 7745
SWIDTH 864 0
DWIDTH 12 0
BBX 10 9 1 0
BITMAP
0800
0000
BB80
CCC0
8C40
8840
8840
8840
8840
ENDCHAR
STARTCHAR 1E42
ENCODING 7746
SWIDTH 864 0
DWIDTH 12 0
BBX 10 12 1 -2
BITMAP
C0C0
C1C0
A1C0
A1C0
B2C0
92C0
92C0
9CC0
8CC0
88C0
0000
0C00
ENDCHAR
STARTCHAR 1E43
ENCODING 7747
SWIDTH 864 0
DWIDTH 12 0
BBX 10 9 1 -2
BITMAP
BB80
CCC0
8C40
8840
8840
8840
8840
0000
0C00
ENDCHAR
STARTCHAR 1E44
ENCODING 7748
SWIDTH 720 0
DWIDTH 10 0
BBX 8 12 1 0
BITMAP
10
00
C1
E1
A1
B1
91
89
8D
85
87
83
ENDCHAR
STARTCHAR 1E45
ENCODING 7749
SWIDTH 576 0
DWIDTH 8 0
BBX 6 9 1 0
BITMAP
20
00
B8
CC
84
84
84
84
84
ENDCHAR
STARTCHAR 1E46
ENCODING 7750
SWIDTH 720 0
DWIDTH 10 0
BBX 8 12 1 -2
BITMAP
C1
E1
A1
B1
91
89
8D
85
87
83
00
18
ENDCHAR
STARTCHAR 1E47
ENCODING 7751
SWIDTH 576 0
DWIDTH 8 0
BBX 6 9 1 -2
BITMAP
B8
CC
84
84
84
84
84
00
30
ENDCHAR
STARTCHAR 1E48
ENCODING 7752
SWIDTH 720 0
DWIDTH 10 0
BBX 8 12 1 -2
BITMAP
C1
E1
A1
B1
91
89
8D
85
87
83
00
3C
ENDCHAR
STARTCHAR 1E49
ENCODING 7753
SWIDTH 576 0
DWIDTH 8 0
BBX 6 9 1 -2
BITMAP
B8
CC
84
84
84
84
84
00
78
ENDCHAR
STARTCHAR 1E4A
ENCODING 7754
SWIDTH 720 0
DWIDTH 10 0
BBX 8 13 1 -3
BITMAP
C1
E1
A1
B1
91
89
8D
85
87
83
00
18
24
ENDCHAR
STARTCHAR 1E4B
ENCODING 7755
SWIDTH 576 0
DWIDTH 8 0
BBX 6 10 1 -3
BITMAP
B8
CC
84
84
84
84
84
00
30
48
ENDCHAR
STARTCHAR 1E4C
ENCODING 7756
SWIDTH 792 0
DWIDTH 11 0
BBX 9 13 1 0
BITMAP
0800
3C00
0000
3E00
6300
C180
8080
8080
8080
8080
C180
6300
3E00
ENDCHAR
STARTCHAR 1E4D
ENCODING 7757
SWIDTH 576 0
DWIDTH 8 0
BBX 6 12 1 0
BITMAP
08
10
64
58
00
78
8C
84
84
84
8C
78
ENDCHAR
STARTCHAR 1E4E
ENCODING 7758
SWIDTH 792 0
DWIDTH 11 0
BBX 9 13 1 0
BITMAP
2400
3C00
0000
3E00
6300
C180
8080
8080
8080
8080
C180
6300
3E00
ENDCHAR
STARTCHAR 1E4F
ENCODING 7759
SWIDTH 576 0
DWIDTH 8 0
BBX 6 12 1 0
BITMAP
48
00
64
58
00
78
8C
84
84
84
8C
78
ENDCHAR
STARTCHAR 1E50
ENCODING 7760
SWIDTH 792 0
DWIDTH 11 0
BBX 9 13 1 0
BITMAP
1000
3C00
0000
3E00
6300
C180
8080
8080
8080
8080
C180
6300
3E00
ENDCHAR
STARTCHAR 1E51
ENCODING 7761
SWIDTH 576 0
DWIDTH 8 0
BBX 6 12 1 0
BITMAP
60
20
00
78
00
78
8C
84
84
84
8C
78
ENDCHAR
STARTCHAR 1E52
ENCODING 7762
SWIDTH 792 0
DWIDTH 11 0
BBX 9 13 1 0
BITMAP
0800
3C00
0000
3E00
6300
C180
8080
8080
8080
8080
C180
6300
3E00
ENDCHAR
STARTCHAR 1E53
ENCODING 7763
SWIDTH 576 0
DWIDTH 8 0
BBX 6 12 1 0
BITMAP
10
20
00
78
00
78
8C
84
84
84
8C
78
ENDCHAR
STARTCHAR 1E54
ENCODING 7764
SWIDTH 648 0
DWIDTH 9 0
BBX 8 13 1 0
BITMAP
08
10
00
FC
82
83
83
82
FC
80
80
80
80
ENDCHAR
STARTCHAR 1E55
ENCODING 7765
SWIDTH 576 0
DWIDTH 8 0
BBX 6 13 1 -3
BITMAP
08
10
00
B8
CC
84
84
84
CC
B8
80
80
80
ENDCHAR
STARTCHAR 1E56
ENCODING 7766
SWIDTH 648 0
DWIDTH 9 0
BBX 8 12 1 0
BITMAP
10
00
FC
82
83
83
82
FC
80
80
80
80
ENDCHAR
STARTCHAR 1E57
ENCODING 7767
SWIDTH 576 0
DWIDTH 8 0
BBX 6 12 1 -3
BITMAP
10
00
B8
CC
84
84
84
CC
B8
80
80
80
ENDCHAR
STARTCHAR 1E58
ENCODING 7768
SWIDTH 720 0
DWIDTH 10 0
BBX 8 12 1 0
BITMAP
10
00
FE
83
81
81
83
FE
84
86
82
81
ENDCHAR
STARTCHAR 1E59
ENCODING 7769
SWIDTH 360 0
DWIDTH 5 0
BBX 3 9 1 0
BITMAP
40
00
A0
C0
80
80
80
80
80
ENDCHAR
STARTCHAR 1E5A
ENCODING 7770
SWIDTH 720 0
DWIDTH 10 0
BBX 8 12 1 -2
BITMAP
FE
83
81
81
83
FE
84
86
82
81
00
18
ENDCHAR
STARTCHAR 1E5B
ENCODING 7771
SWIDTH 360 0
DWIDTH 5 0
BBX 3 9 1 -2
BITMAP
A0
C0
80
80
80
80
80
00
60
ENDCHAR
STARTCHAR 1E5C
ENCODING 7772
SWIDTH 720 0
DWIDTH 10 0
BBX 8 14 1 -2
BITMAP
3C
00
FE
83
81
81
83
FE
84
86
82
81
00
18
ENDCHAR
STARTCHAR 1E5D
ENCODING 7773
SWIDTH 360 0
DWIDTH 5 0
BBX 4 11 0 -2
BITMAP
F0
00
50
60
40
40
40
40
40
00
30
ENDCHAR
STARTCHAR 1E5E
ENCODING 7774
SWIDTH 720 0
DWIDTH 10 0
BBX 8 12 1 -2
BITMAP
FE
83
81
81
83
FE
84
86
82
81
00
3C
ENDCHAR
STARTCHAR 1E5F
ENCODING 7775
SWIDTH 360 0
DWIDTH 5 0
BBX 4 9 0 -2
BITMAP
50
60
40
40
40
40
40
00
F0
ENDCHAR
STARTCHAR 1E60
ENCODING 7776
SWIDTH 648 0
DWIDTH 9 0
BBX 8 12 1 0
BITMAP
10
00
7C
C2
80
C0
78
0E
03
03
82
7C
ENDCHAR
STARTCHAR 1E61
ENCODING 7777
SWIDTH 504 0
DWIDTH 7 0
BBX 5 9 1 0
BITMAP
20
00
F8
88
80
78
08
88
F8
ENDCHAR
STARTCHAR 1E62
ENCODING 7778
SWIDTH 648 0
DWIDTH 9 0
BBX 8 12 1 -2
BITMAP
7C
C2
80
C0
78
0E
03
03
82
7C
00
18
ENDCHAR
STARTCHAR 1E63
ENCODING 7779
SWIDTH 504 0
DWIDTH 7 0
BBX 5 9 1 -2
BITMAP
F8
88
80
78
08
88
F8
00
60
ENDCHAR
STARTCHAR 1E64
ENCODING 7780
SWIDTH 648 0
DWIDTH 9 0
BBX 8 13 1 0
BITMAP
14
08
00
7C
C2
80
C0
78
0E
03
03
82
7C
ENDCHAR
STARTCHAR 1E65
ENCODING 7781
SWIDTH 504 0
DWIDTH 7 0
BBX 5 10 1 0
BITMAP
50
20
00
F8
88
80
78
08
88
F8
ENDCHAR
STARTCHAR 1E66
ENCODING 7782
SWIDTH 648 0
DWIDTH 9 0
BBX 8 13 1 0
BITMAP
08
3C
00
7C
C2
80
C0
78
0E
03
03
82
7C
ENDCHAR
STARTCHAR 1E67
ENCODING 7783
SWIDTH 504 0
DWIDTH 7 0
BBX 5 10 1 0
BITMAP
20
F0
00
F8
88
80
78
08
88
F8
ENDCHAR
STARTCHAR 1E68
ENCODING 7784
SWIDTH 648 0
DWIDTH 9 0
BBX 8 14 1 -2
BITMAP
10
00
7C
C2
80
C0
78
0E
03
03
82
7C
00
18
ENDCHAR
STARTCHAR 1E69
ENCODING 7785
SWIDTH 504 0
DWIDTH 7 0
BBX 5 11 1 -2
BITMAP
20
00
F8
88
80
78
08
88
F8
00
60
ENDCHAR
STARTCHAR 1E6A
ENCODING 7786
SWIDTH 648 0
DWIDTH 9 0
BBX 8 12 0 0
BITMAP
08
00
FF
08
08
08
08
08
08
08
08
08
ENDCHAR
STARTCHAR 1E6B
ENCODING 7787
SWIDTH 288 0
DWIDTH 4 0
BBX 4 12 0 0
BITMAP
40
00
00
40
40
F0
40
40
40
40
40
70
ENDCHAR
STARTCHAR 1E6C
ENCODING 7788
SWIDTH 648 0
DWIDTH 9 0
BBX 8 12 0 -2
BITMAP
FF
08
08
08
08
08
08
08
08
08
00
18
ENDCHAR
STARTCHAR 1E6D
ENCODING 7789
SWIDTH 288 0
DWIDTH 4 0
BBX 4 11 0 -2
BITMAP
40
40
F0
40
40
40
40
40
70
00
60
ENDCHAR
STARTCHAR 1E6E
ENCODING 7790
SWIDTH 648 0
DWIDTH 9 0
BBX 8 12 0 -2
BITMAP
FF
08
08
08
08
08
08
08
08
08
00
3C
ENDCHAR
STARTCHAR 1E6F
ENCODING 7791
SWIDTH 288 0
DWIDTH 4 0
BBX 4 11 0 -2
BITMAP
40
40
F0
40
40
40
40
40
70
00
F0
ENDCHAR
STARTCHAR 1E70
ENCODING 7792
SWIDTH 648 0
DWIDTH 9 0
BBX 8 13 0 -3
BITMAP
FF
08
08
08
08
08
08
08
08
08
00
18
24
ENDCHAR
STARTCHAR 1E71
ENCODING 7793
SWIDTH 288 0
DWIDTH 4 0
BBX 4 12 0 -3
BITMAP
40
40
F0
40
40
40
40
40
70
00
60
90
ENDCHAR
STARTCHAR 1E72
ENCODING 7794
SWIDTH 720 0
DWIDTH 10 0
BBX 8 13 1 -3
BITMAP
81
81
81
81
81
81
81
C3
42
3C
00
00
24
ENDCHAR
STARTCHAR 1E73
ENCODING 7795
SWIDTH 576 0
DWIDTH 8 0
BBX 6 10 1 -3
BITMAP
84
84
84
84
84
8C
74
00
00
48
ENDCHAR
STARTCHAR 1E74
ENCODING 7796
SWIDTH 720 0
DWIDTH 10 0
BBX 8 13 1 -3
BITMAP
81
81
81
81
81
81
81
C3
42
3C
00
32
4C
ENDCHAR
STARTCHAR 1E75
ENCODING 7797
SWIDTH 576 0
DWIDTH 8 0
BBX 6 10 1 -3
BITMAP
84
84
84
84
84
8C
74
00
64
98
ENDCHAR
STARTCHAR 1E76
ENCODING 7798
SWIDTH 720 0
DWIDTH 10 0
BBX 8 13 1 -3
BITMAP
81
81
81
81
81
81
81
C3
42
3C
00
18
24
ENDCHAR
STARTCHAR 1E77
ENCODING 7799
SWIDTH 576 0
DWIDTH 8 0
BBX 6 10 1 -3
BITMAP
84
84
84
84
84
8C
74
00
30
48
ENDCHAR
STARTCHAR 1E78
ENCODING 7800
SWIDTH 720 0
DWIDTH 10 0
BBX 8 13 1 0
BITMAP
08
3C
00
81
81
81
81
81
81
81
C3
42
3C
ENDCHAR
STARTCHAR 1E79
ENCODING 7801
SWIDTH 576 0
DWIDTH 8 0
BBX 6 12 1 0
BITMAP
10
20
64
58
00
84
84
84
84
84
8C
74
ENDCHAR
STARTCHAR 1E7A
ENCODING 7802
SWIDTH 720 0
DWIDTH 10 0
BBX 8 13 1 0
BITMAP
24
3C
00
81
81
81
81
81
81
81
C3
42
3C
ENDCHAR
STARTCHAR 1E7B
ENCODING 7803
SWIDTH 576 0
DWIDTH 8 0
BBX 6 11 1 0
BITMAP
48
00
78
00
84
84
84
84
84
8C
74
ENDCHAR
STARTCHAR 1E7C
ENCODING 7804
SWIDTH 648 0
DWIDTH 9 0
BBX 9 13 0 0
BITMAP
3200
2C00
0000
C080
4180
4100
6100
2300
3200
1600
1400
1C00
0C00
ENDCHAR
STARTCHAR 1E7D
ENCODING 7805
SWIDTH 504 0
DWIDTH 7 0
BBX 7 10 0 0
BITMAP
64
58
00
C6
44
44
6C
28
28
10
ENDCHAR
STARTCHAR 1E7E
ENCODING 7806
SWIDTH 648 0
DWIDTH 9 0
BBX 9 12 0 -2
BITMAP
C080
4180
4100
6100
2300
3200
1600
1400
1C00
0C00
0000
0C00
ENDCHAR
STARTCHAR 1E7F
ENCODING 7807
SWIDTH 504 0
DWIDTH 7 0
BBX 7 9 0 -2
BITMAP
C6
44
44
6C
28
28
10
00
30
ENDCHAR
STARTCHAR 1E80
ENCODING 7808
SWIDTH 936 0
DWIDTH 13 0
BBX 13 13 0 0
BITMAP
0600
0200
0000
C208
C318
4510
4510
6510
24B0
28A0
28A0
38A0
1840
ENDCHAR
STARTCHAR 1E81
ENCODING 7809
SWIDTH 720 0
DWIDTH 10 0
BBX 10 10 0 0
BITMAP
1800
0800
0000
8C40
CC40
4C80
5280
5280
3300
3300
ENDCHAR
STARTCHAR 1E82
ENCODING 7810
SWIDTH 936 0
DWIDTH 13 0
BBX 13 13 0 0
BITMAP
0100
0200
0000
C208
C318
4510
4510
6510
24B0
28A0
28A0
38A0
1840
ENDCHAR
STARTCHAR 1E83
ENCODING 7811
SWIDTH 720 0
DWIDTH 10 0
BBX 10 10 0 0
BITMAP
0200
0400
0000
8C40
CC40
4C80
5280
5280
3300
3300
ENDCHAR
STARTCHAR 1E84
ENCODING 7812
SWIDTH 936 0
DWIDTH 13 0
BBX 13 12 0 0
BITMAP
0900
0000
C208
C318
4510
4510
6510
24B0
28A0
28A0
38A0
1840
ENDCHAR
STARTCHAR 1E85
ENCODING 7813
SWIDTH 720 0
DWIDTH 10 0
BBX 10 9 0 0
BITMAP
1200
0000
8C40
CC40
4C80
5280
5280
3300
3300
ENDCHAR
STARTCHAR 1E86
ENCODING 7814
SWIDTH 936 0
DWIDTH 13 0
BBX 13 12 0 0
BITMAP
0200
0000
C208
C318
4510
4510
6510
24B0
28A0
28A0
38A0
1840
ENDCHAR
STARTCHAR 1E87
ENCODING 7815
SWIDTH 720 0
DWIDTH 10 0
BBX 10 9 0 0
BITMAP
0800
0000
8C40
CC40
4C80
5280
5280
3300
3300
ENDCHAR
STARTCHAR 1E88
ENCODING 7816
SWIDTH 936 0
DWIDTH 13 0
BBX 13 12 0 -2
BITMAP
C208
C318
4510
4510
6510
24B0
28A0
28A0
38A0
1840
0000
0300
ENDCHAR
STARTCHAR 1E89
ENCODING 7817
SWIDTH 720 0
DWIDTH 10 0
BBX 10 9 0 -2
BITMAP
8C40
CC40
4C80
5280
5280
3300
3300
0000
0C00
ENDCHAR
STARTCHAR 1E8A
ENCODING 7818
SWIDTH 648 0
DWIDTH 9 0
BBX 8 12 1 0
BITMAP
10
00
82
46
64
28
18
38
2C
44
C2
83
ENDCHAR
STARTCHAR 1E8B
ENCODING 7819
SWIDTH 504 0
DWIDTH 7 0
BBX 5 9 1 0
BITMAP
20
00
88
D8
50
20
50
D8
88
ENDCHAR
STARTCHAR 1E8C
ENCODING 7820
SWIDTH 648 0
DWIDTH 9 0
BBX 8 12 1 0
BITMAP
24
00
82
46
64
28
18
38
2C
44
C2
83
ENDCHAR
STARTCHAR 1E8D
ENCODING 7821
SWIDTH 504 0
DWIDTH 7 0
BBX 5 9 1 0
BITMAP
90
00
88
D8
50
20
50
D8
88
ENDCHAR
STARTCHAR 1E8E
ENCODING 7822
SWIDTH 648 0
DWIDTH 9 0
BBX 8 12 1 0
BITMAP
10
00
83
C2
44
2C
28
18
10
10
10
10
ENDCHAR
STARTCHAR 1E8F
ENCODING 7823
SWIDTH 504 0
DWIDTH 7 0
BBX 7 12 0 -3
BITMAP
10
00
C6
44
44
2C
28
38
10
10
20
E0
ENDCHAR
STARTCHAR 1E90
ENCODING 7824
SWIDTH 648 0
DWIDTH 9 0
BBX 8 13 0 0
BITMAP
18
24
00
7F
02
06
04
08
10
30
20
40
FF
ENDCHAR
STARTCHAR 1E91
ENCODING 7825
SWIDTH 504 0
DWIDTH 7 0
BBX 5 10 1 0
BITMAP
60
90
00
F8
18
30
20
40
80
F8
ENDCHAR
STARTCHAR 1E92
ENCODING 7826
SWIDTH 648 0
DWIDTH 9 0
BBX 8 12 0 -2
BITMAP
7F
02
06
04
08
10
30
20
40
FF
00
18
ENDCHAR
STARTCHAR 1E93
ENCODING 7827
SWIDTH 504 0
DWIDTH 7 0
BBX 5 9 1 -2
BITMAP
F8
18
30
20
40
80
F8
00
60
ENDCHAR
STARTCHAR 1E94
ENCODING 7828
SWIDTH 648 0
DWIDTH 9 0
BBX 8 12 0 -2
BITMAP
7F
02
06
04
08
10
30
20
40
FF
00
3C
ENDCHAR
STARTCHAR 1E95
ENCODING 7829
SWIDTH 504 0
DWIDTH 7 0
BBX 5 9 1 -2
BITMAP
F8
18
30
20
40
80
F8
00
F0
ENDCHAR
STARTCHAR 1E96
ENCODING 7830
SWIDTH 576 0
DWIDTH 8 0
BBX 6 12 1 -2
BITMAP
80
80
80
B8
CC
84
84
84
84
84
00
78
ENDCHAR
STARTCHAR 1E97
ENCODING 7831
SWIDTH 288 0
DWIDTH 4 0
BBX 4 12 0 0
BITMAP
90
00
00
40
40
F0
40
40
40
40
40
70
ENDCHAR
STARTCHAR 1E98
ENCODING 7832
SWIDTH 720 0
DWIDTH 10 0
BBX 10 11 0 0
BITMAP
0C00
1200
0C00
0000
8C40
CC40
4C80
5280
5280
3300
3300
ENDCHAR
STARTCHAR 1E99
ENCODING 7833
SWIDTH 504 0
DWIDTH 7 0
BBX 7 14 0 -3
BITMAP
18
24
18
00
C6
44
44
2C
28
38
10
10
20
E0
ENDCHAR
STARTCHAR 1E9A
ENCODING 7834
SWIDTH 576 0
DWIDTH 8 0
BBX 7 11 1 0
BITMAP
10
10
10
00
78
8C
0C
7C
8C
8C
F6
ENDCHAR
STARTCHAR 1E9B
ENCODING 7835
SWIDTH 216 0
DWIDTH 3 0
BBX 3 12 1 0
BITMAP
40
00
E0
80
80
80
80
80
80
80
80
80
ENDCHAR
STARTCHAR 1E9E
ENCODING 7838
SWIDTH 720 0
DWIDTH 10 0
BBX 8 10 1 0
BITMAP
3C
42
C6
8C
8E
83
81
81
83
9E
ENDCHAR
STARTCHAR 1EA0
ENCODING 7840
SWIDTH 648 0
DWIDTH 9 0
BBX 9 12 0 -2
BITMAP
0C00
1C00
1400
1200
2200
2300
7F00
4100
4180
C080
0000
0C00
ENDCHAR
STARTCHAR 1EA1
ENCODING 7841
SWIDTH 576 0
DWIDTH 8 0
BBX 7 9 1 -2
BITMAP
78
8C
0C
7C
8C
8C
F6
00
30
ENDCHAR
STARTCHAR 1EA2
ENCODING 7842
SWIDTH 648 0
DWIDTH 9 0
BBX 9 13 0 0
BITMAP
0E00
0400
0000
0C00
1C00
1400
1200
2200
2300
7F00
4100
4180
C080
ENDCHAR
STARTCHAR 1EA3
ENCODING 7843
SWIDTH 576 0
DWIDTH 8 0
BBX 7 10 1 0
BITMAP
38
10
00
78
8C
0C
7C
8C
8C
F6
ENDCHAR
STARTCHAR 1EA4
ENCODING 7844
SWIDTH 648 0
DWIDTH 9 0
BBX 9 13 0 0
BITMAP
0D00
1200
0000
0C00
1C00
1400
1200
2200
2300
7F00
4100
4180
C080
ENDCHAR
STARTCHAR 1EA5
ENCODING 7845
SWIDTH 576 0
DWIDTH 8 0
BBX 7 11 1 0
BITMAP
04
34
48
00
78
8C
0C
7C
8C
8C
F6
ENDCHAR
STARTCHAR 1EA6
ENCODING 7846
SWIDTH 648 0
DWIDTH 9 0
BBX 9 13 0 0
BITMAP
2C00
1200
0000
0C00
1C00
1400
1200
2200
2300
7F00
4100
4180
C080
ENDCHAR
STARTCHAR 1EA7
ENCODING 7847
SWIDTH 576 0
DWIDTH 8 0
BBX 7 11 1 0
BITMAP
80
B0
48
00
78
8C
0C
7C
8C
8C
F6
ENDCHAR
STARTCHAR 1EA8
ENCODING 7848
SWIDTH 648 0
DWIDTH 9 0
BBX 9 14 0 0
BITMAP
0300
0D00
1200
0000
0C00
1C00
1400
1200
2200
2300
7F00
4100
4180
C080
ENDCHAR
STARTCHAR 1EA9
ENCODING 7849
SWIDTH 576 0
DWIDTH 8 0
BBX 7 11 1 0
BITMAP
0C
34
48
00
78
8C
0C
7C
8C
8C
F6
ENDCHAR
STARTCHAR 1EAA
ENCODING 7850
SWIDTH 648 0
DWIDTH 9 0
BBX 9 14 0 0
BITMAP
1A00
1600
0C00
0000
0C00
1C00
1400
1200
2200
2300
7F00
4100
4180
C080
ENDCHAR
STARTCHAR 1EAB
ENCODING 7851
SWIDTH 576 0
DWIDTH 8 0
BBX 7 12 1 0
BITMAP
68
58
30
48
00
78
8C
0C
7C
8C
8C
F6
ENDCHAR
STARTCHAR 1EAC
ENCODING 7852
SWIDTH 648 0
DWIDTH 9 0
BBX 9 15 0 -2
BITMAP
1800
2400
0000
0C00
1C00
1400
1200
2200
2300
7F00
4100
4180
C080
0000
0C00
ENDCHAR
STARTCHAR 1EAD
ENCODING 7853
SWIDTH 576 0
DWIDTH 8 0
BBX 7 12 1 -2
BITMAP
30
48
00
78
8C
0C
7C
8C
8C
F6
00
30
ENDCHAR
STARTCHAR 1EAE
ENCODING 7854
SWIDTH 648 0
DWIDTH 9 0
BBX 9 14 0 0
BITMAP
0400
1200
0C00
0000
0C00
1C00
1400
1200
2200
2300
7F00
4100
4180
C080
ENDCHAR
STARTCHAR 1EAF
ENCODING 7855
SWIDTH 576 0
DWIDTH 8 0
BBX 7 12 1 0
BITMAP
18
10
48
30
00
78
8C
0C
7C
8C
8C
F6
ENDCHAR
STARTCHAR 1EB0
ENCODING 7856
SWIDTH 648 0
DWIDTH 9 0
BBX 9 14 0 0
BITMAP
0800
1200
0C00
0000
0C00
1C00
1400
1200
2200
2300
7F00
4100
4180
C080
ENDCHAR
STARTCHAR 1EB1
ENCODING 7857
SWIDTH 576 0
DWIDTH 8 0
BBX 7 12 1 0
BITMAP
60
20
48
30
00
78
8C
0C
7C
8C
8C
F6
ENDCHAR
STARTCHAR 1EB2
ENCODING 7858
SWIDTH 648 0
DWIDTH 9 0
BBX 9 14 0 0
BITMAP
0C00
0400
1E00
0000
0C00
1C00
1400
1200
2200
2300
7F00
4100
4180
C080
ENDCHAR
STARTCHAR 1EB3
ENCODING 7859
SWIDTH 576 0
DWIDTH 8 0
BBX 7 12 1 0
BITMAP
30
10
48
30
00
78
8C
0C
7C
8C
8C
F6
ENDCHAR
STARTCHAR 1EB4
ENCODING 7860
SWIDTH 648 0
DWIDTH 9 0
BBX 9 14 0 0
BITMAP
1E00
1200
0C00
0000
0C00
1C00
1400
1200
2200
2300
7F00
4100
4180
C080
ENDCHAR
STARTCHAR 1EB5
ENCODING 7861
SWIDTH 576 0
DWIDTH 8 0
BBX 7 12 1 0
BITMAP
68
58
48
30
00
78
8C
0C
7C
8C
8C
F6
ENDCHAR
STARTCHAR 1EB6
ENCODING 7862
SWIDTH 648 0
DWIDTH 9 0
BBX 9 15 0 -2
BITMAP
1200
0E00
0000
0C00
1C00
1400
1200
2200
2300
7F00
4100
4180
C080
0000
0C00
ENDCHAR
STARTCHAR 1EB7
ENCODING 7863
SWIDTH 576 0
DWIDTH 8 0
BBX 7 12 1 -2
BITMAP
48
38
00
78
8C
0C
7C
8C
8C
F6
00
30
ENDCHAR
STARTCHAR 1EB8
ENCODING 7864
SWIDTH 648 0
DWIDTH 9 0
BBX 8 12 1 -2
BITMAP
FE
80
80
80
FE
80
80
80
80
FF
00
18
ENDCHAR
STARTCHAR 1EB9
ENCODING 7865
SWIDTH 576 0
DWIDTH 8 0
BBX 6 9 1 -2
BITMAP
78
8C
84
FC
80
84
78
00
30
ENDCHAR
STARTCHAR 1EBA
ENCODING 7866
SWIDTH 648 0
DWIDTH 9 0
BBX 8 13 1 0
BITMAP
1C
08
00
FE
80
80
80
FE
80
80
80
80
FF
ENDCHAR
STARTCHAR 1EBB
ENCODING 7867
SWIDTH 576 0
DWIDTH 8 0
BBX 6 10 1 0
BITMAP
38
10
00
78
8C
84
FC
80
84
78
ENDCHAR
STARTCHAR 1EBC
ENCODING 7868
SWIDTH 648 0
DWIDTH 9 0
BBX 8 13 1 0
BITMAP
32
2C
00
FE
80
80
80
FE
80
80
80
80
FF
ENDCHAR
STARTCHAR 1EBD
ENCODING 7869
SWIDTH 576 0
DWIDTH 8 0
BBX 6 10 1 0
BITMAP
64
58
00
78
8C
84
FC
80
84
78
ENDCHAR
STARTCHAR 1EBE
ENCODING 7870
SWIDTH 648 0
DWIDTH 9 0
BBX 8 13 1 0
BITMAP
1A
24
00
FE
80
80
80
FE
80
80
80
80
FF
ENDCHAR
STARTCHAR 1EBF
ENCODING 7871
SWIDTH 576 0
DWIDTH 8 0
BBX 6 11 1 0
BITMAP
04
34
48
00
78
8C
84
FC
80
84
78
ENDCHAR
STARTCHAR 1EC0
ENCODING 7872
SWIDTH 648 0
DWIDTH 9 0
BBX 8 13 1 0
BITMAP
58
24
00
FE
80
80
80
FE
80
80
80
80
FF
ENDCHAR
STARTCHAR 1EC1
ENCODING 7873
SWIDTH 576 0
DWIDTH 8 0
BBX 6 11 1 0
BITMAP
80
B0
48
00
78
8C
84
FC
80
84
78
ENDCHAR
STARTCHAR 1EC2
ENCODING 7874
SWIDTH 648 0
DWIDTH 9 0
BBX 8 14 1 0
BITMAP
06
1A
24
00
FE
80
80
80
FE
80
80
80
80
FF
ENDCHAR
STARTCHAR 1EC3
ENCODING 7875
SWIDTH 576 0
DWIDTH 8 0
BBX 6 11 1 0
BITMAP
0C
34
48
00
78
8C
84
FC
80
84
78
ENDCHAR
STARTCHAR 1EC4
ENCODING 7876
SWIDTH 648 0
DWIDTH 9 0
BBX 8 14 1 0
BITMAP
34
2C
18
00
FE
80
80
80
FE
80
80
80
80
FF
ENDCHAR
STARTCHAR 1EC5
ENCODING 7877
SWIDTH 576 0
DWIDTH 8 0
BBX 6 12 1 0
BITMAP
68
58
30
48
00
78
8C
84
FC
80
84
78
ENDCHAR
STARTCHAR 1EC6
ENCODING 7878
SWIDTH 648 0
DWIDTH 9 0
BBX 8 15 1 -2
BITMAP
18
24
00
FE
80
80
80
FE
80
80
80
80
FF
00
18
ENDCHAR
STARTCHAR 1EC7
ENCODING 7879
SWIDTH 576 0
DWIDTH 8 0
BBX 6 12 1 -2
BITMAP
30
48
00
78
8C
84
FC
80
84
78
00
30
ENDCHAR
STARTCHAR 1EC8
ENCODING 7880
SWIDTH 288 0
DWIDTH 4 0
BBX 3 13 1 0
BITMAP
E0
40
00
C0
C0
C0
C0
C0
C0
C0
C0
C0
C0
ENDCHAR
STARTCHAR 1EC9
ENCODING 7881
SWIDTH 216 0
DWIDTH 3 0
BBX 3 10 0 0
BITMAP
E0
40
00
40
40
40
40
40
40
40
ENDCHAR
STARTCHAR 1ECA
ENCODING 7882
SWIDTH 288 0
DWIDTH 4 0
BBX 2 12 1 -2
BITMAP
C0
C0
C0
C0
C0
C0
C0
C0
C0
C0
00
C0
ENDCHAR
STARTCHAR 1ECB
ENCODING 7883
SWIDTH 216 0
DWIDTH 3 0
BBX 2 12 1 -2
BITMAP
80
00
00
80
80
80
80
80
80
80
00
C0
ENDCHAR
STARTCHAR 1ECC
ENCODING 7884
SWIDTH 792 0
DWIDTH 11 0
BBX 9 12 1 -2
BITMAP
3E00
6300
C180
8080
8080
8080
8080
C180
6300
3E00
0000
1800
ENDCHAR
STARTCHAR 1ECD
ENCODING 7885
SWIDTH 576 0
DWIDTH 8 0
BBX 6 9 1 -2
BITMAP
78
8C
84
84
84
8C
78
00
30
ENDCHAR
STARTCHAR 1ECE
ENCODING 7886
SWIDTH 792 0
DWIDTH 11 0
BBX 9 13 1 0
BITMAP
1C00
0800
0000
3E00
6300
C180
8080
8080
8080
8080
C180
6300
3E00
ENDCHAR
STARTCHAR 1ECF
ENCODING 7887
SWIDTH 576 0
DWIDTH 8 0
BBX 6 10 1 0
BITMAP
38
10
00
78
8C
84
84
84
8C
78
ENDCHAR
STARTCHAR 1ED0
ENCODING 7888
SWIDTH 792 0
DWIDTH 11 0
BBX 9 13 1 0
BITMAP
1A00
2400
0000
3E00
6300
C180
8080
8080
8080
8080
C180
6300
3E00
ENDCHAR
STARTCHAR 1ED1
ENCODING 7889
SWIDTH 576 0
DWIDTH 8 0
BBX 6 11 1 0
BITMAP
04
34
48
00
78
8C
84
84
84
8C
78
ENDCHAR
STARTCHAR 1ED2
ENCODING 7890
SWIDTH 792 0
DWIDTH 11 0
BBX 9 13 1 0
BITMAP
5800
2400
0000
3E00
6300
C180
8080
8080
8080
8080
C180
6300
3E00
ENDCHAR
STARTCHAR 1ED3
ENCODING 7891
SWIDTH 576 0
DWIDTH 8 0
BBX 6 11 1 0
BITMAP
80
B0
48
00
78
8C
84
84
84
8C
78
ENDCHAR
STARTCHAR 1ED4
ENCODING 7892
SWIDTH 792 0
DWIDTH 11 0
BBX 9 14 1 0
BITMAP
0600
1A00
2400
0000
3E00
6300
C180
8080
8080
8080
8080
C180
6300
3E00
ENDCHAR
STARTCHAR 1ED5
ENCODING 7893
SWIDTH 576 0
DWIDTH 8 0
BBX 6 11 1 0
BITMAP
0C
34
48
00
78
8C
84
84
84
8C
78
ENDCHAR
STARTCHAR 1ED6
ENCODING 7894
SWIDTH 792 0
DWIDTH 11 0
BBX 9 14 1 0
BITMAP
3400
2C00
1800
0000
3E00
6300
C180
8080
8080
8080
8080
C180
6300
3E00
ENDCHAR
STARTCHAR 1ED7
ENCODING 7895
SWIDTH 576 0
DWIDTH 8 0
BBX 6 12 1 0
BITMAP
68
58
30
48
00
78
8C
84
84
84
8C
78
ENDCHAR
STARTCHAR 1ED8
ENCODING 7896
SWIDTH 792 0
DWIDTH 11 0
BBX 9 15 1 -2
BITMAP
1800
2400
0000
3E00
6300
C180
8080
8080
8080
8080
C180
6300
3E00
0000
1800
ENDCHAR
STARTCHAR 1ED9
ENCODING 7897
SWIDTH 576 0
DWIDTH 8 0
BBX 6 12 1 -2
BITMAP
30
48
00
78
8C
84
84
84
8C
78
00
30
ENDCHAR
STARTCHAR 1EDA
ENCODING 7898
SWIDTH 864 0
DWIDTH 12 0
BBX 11 13 1 0
BITMAP
0400
0800
0000
3E60
6320
C1C0
8080
8080
8080
8080
C180
6300
3E00
ENDCHAR
STARTCHAR 1EDB
ENCODING 7899
SWIDTH 648 0
DWIDTH 9 0
BBX 8 10 1 0
BITMAP
10
20
00
7B
8D
86
84
84
8C
78
ENDCHAR
STARTCHAR 1EDC
ENCODING 7900
SWIDTH 864 0
DWIDTH 12 0
BBX 11 13 1 0
BITMAP
1800
0800
0000
3E60
6320
C1C0
8080
8080
8080
8080
C180
6300
3E00
ENDCHAR
STARTCHAR 1EDD
ENCODING 7901
SWIDTH 648 0
DWIDTH 9 0
BBX 8 10 1 0
BITMAP
60
20
00
7B
8D
86
84
84
8C
78
ENDCHAR
STARTCHAR 1EDE
ENCODING 7902
SWIDTH 864 0
DWIDTH 12 0
BBX 11 13 1 0
BITMAP
1C00
0800
0000
3E60
6320
C1C0
8080
8080
8080
8080
C180
6300
3E00
ENDCHAR
STARTCHAR 1EDF
ENCODING 7903
SWIDTH 648 0
DWIDTH 9 0
BBX 8 10 1 0
BITMAP
38
10
00
7B
8D
86
84
84
8C
78
ENDCHAR
STARTCHAR 1EE0
ENCODING 7904
SWIDTH 864 0
DWIDTH 12 0
BBX 11 13 1 0
BITMAP
3200
2C00
0000
3E60
6320
C1C0
8080
8080
8080
8080
C180
6300
3E00
ENDCHAR
STARTCHAR 1EE1
ENCODING 7905
SWIDTH 648 0
DWIDTH 9 0
BBX 8 10 1 0
BITMAP
64
58
00
7B
8D
86
84
84
8C
78
ENDCHAR
STARTCHAR 1EE2
ENCODING 7906
SWIDTH 864 0
DWIDTH 12 0
BBX 11 12 1 -2
BITMAP
3E60
6320
C1C0
8080
8080
8080
8080
C180
6300
3E00
0000
1800
ENDCHAR
STARTCHAR 1EE3
ENCODING 7907
SWIDTH 648 0
DWIDTH 9 0
BBX 8 9 1 -2
BITMAP
7B
8D
86
84
84
8C
78
00
30
ENDCHAR
STARTCHAR 1EE4
ENCODING 7908
SWIDTH 720 0
DWIDTH 10 0
BBX 8 12 1 -2
BITMAP
81
81
81
81
81
81
81
C3
42
3C
00
18
ENDCHAR
STARTCHAR 1EE5
ENCODING 7909
SWIDTH 576 0
DWIDTH 8 0
BBX 6 9 1 -2
BITMAP
84
84
84
84
84
8C
74
00
30
ENDCHAR
STARTCHAR 1EE6
ENCODING 7910
SWIDTH 720 0
DWIDTH 10 0
BBX 8 13 1 0
BITMAP
1C
08
00
81
81
81
81
81
81
81
C3
42
3C
ENDCHAR
STARTCHAR 1EE7
ENCODING 7911
SWIDTH 576 0
DWIDTH 8 0
BBX 6 10 1 0
BITMAP
38
10
00
84
84
84
84
84
8C
74
ENDCHAR
STARTCHAR 1EE8
ENCODING 7912
SWIDTH 864 0
DWIDTH 12 0
BBX 10 13 1 0
BITMAP
0400
0800
0000
8140
8140
8140
8180
8100
8100
8100
C300
4200
3C00
ENDCHAR
STARTCHAR 1EE9
ENCODING 7913
SWIDTH 648 0
DWIDTH 9 0
BBX 8 10 1 0
BITMAP
08
10
00
85
85
85
86
84
8C
74
ENDCHAR
STARTCHAR 1EEA
ENCODING 7914
SWIDTH 864 0
DWIDTH 12 0
BBX 10 13 1 0
BITMAP
3000
1000
0000
8140
8140
8140
8180
8100
8100
8100
C300
4200
3C00
ENDCHAR
STARTCHAR 1EEB
ENCODING 7915
SWIDTH 648 0
DWIDTH 9 0
BBX 8 10 1 0
BITMAP
60
20
00
85
85
85
86
84
8C
74
ENDCHAR
STARTCHAR 1EEC
ENCODING 7916
SWIDTH 864 0
DWIDTH 12 0
BBX 10 13 1 0
BITMAP
1C00
0800
0000
8140
8140
8140
8180
8100
8100
8100
C300
4200
3C00
ENDCHAR
STARTCHAR 1EED
ENCODING 7917
SWIDTH 648 0
DWIDTH 9 0
BBX 8 10 1 0
BITMAP
38
10
00
85
85
85
86
84
8C
74
ENDCHAR
STARTCHAR 1EEE
ENCODING 7918
SWIDTH 864 0
DWIDTH 12 0
BBX 10 13 1 0
BITMAP
3200
2C00
0000
8140
8140
8140
8180
8100
8100
8100
C300
4200
3C00
ENDCHAR
STARTCHAR 1EEF
ENCODING 7919
SWIDTH 648 0
DWIDTH 9 0
BBX 8 10 1 0
BITMAP
64
58
00
85
85
85
86
84
8C
74
ENDCHAR
STARTCHAR 1EF0
ENCODING 7920
SWIDTH 864 0
DWIDTH 12 0
BBX 10 12 1 -2
BITMAP
8140
8140
8140
8180
8100
8100
8100
C300
4200
3C00
0000
1800
ENDCHAR
STARTCHAR 1EF1
ENCODING 7921
SWIDTH 648 0
DWIDTH 9 0
BBX 8 9 1 -2
BITMAP
85
85
85
86
84
8C
74
00
30
ENDCHAR
STARTCHAR 1EF2
ENCODING 7922
SWIDTH 648 0
DWIDTH 9 0
BBX 8 13 1 0
BITMAP
30
10
00
83
C2
44
2C
28
18
10
10
10
10
ENDCHAR
STARTCHAR 1EF3
ENCODING 7923
SWIDTH 504 0
DWIDTH 7 0
BBX 7 13 0 -3
BITMAP
30
10
00
C6
44
44
2C
28
38
10
10
20
E0
ENDCHAR
STARTCHAR 1EF4
ENCODING 7924
SWIDTH 648 0
DWIDTH 9 0
BBX 8 12 1 -2
BITMAP
83
C2
44
2C
28
18
10
10
10
10
00
18
ENDCHAR
STARTCHAR 1EF5
ENCODING 7925
SWIDTH 504 0
DWIDTH 7 0
BBX 7 10 0 -3
BITMAP
C6
44
44
2C
28
38
10
10
26
E0
ENDCHAR
STARTCHAR 1EF6
ENCODING 7926
SWIDTH 648 0
DWIDTH 9 0
BBX 8 13 1 0
BITMAP
1C
08
00
83
C2
44
2C
28
18
10
10
10
10
ENDCHAR
STARTCHAR 1EF7
ENCODING 7927
SWIDTH 504 0
DWIDTH 7 0
BBX 7 13 0 -3
BITMAP
38
10
00
C6
44
44
2C
28
38
10
10
20
E0
ENDCHAR
STARTCHAR 1EF8
ENCODING 7928
SWIDTH 648 0
DWIDTH 9 0
BBX 8 13 1 0
BITMAP
64
58
00
83
C2
44
2C
28
18
10
10
10
10
ENDCHAR
STARTCHAR 1EF9
ENCODING 7929
SWIDTH 504 0
DWIDTH 7 0
BBX 7 13 0 -3
BITMAP
64
58
00
C6
44
44
2C
28
38
10
10
20
E0
ENDCHAR
STARTCHAR 1F00
ENCODING 7936
SWIDTH 576 0
DWIDTH 8 0
BBX 6 10 1 0
BITMAP
10
10
00
74
8C
8C
84
8C
8C
74
ENDCHAR
STARTCHAR 1F01
ENCODING 7937
SWIDTH 576 0
DWIDTH 8 0
BBX 6 10 1 0
BITMAP
20
20
00
74
8C
8C
84
8C
8C
74
ENDCHAR
STARTCHAR 1F02
ENCODING 7938
SWIDTH 576 0
DWIDTH 8 0
BBX 6 10 1 0
BITMAP
78
28
00
74
8C
8C
84
8C
8C
74
ENDCHAR
STARTCHAR 1F03
ENCODING 7939
SWIDTH 576 0
DWIDTH 8 0
BBX 6 10 1 0
BITMAP
F0
90
00
74
8C
8C
84
8C
8C
74
ENDCHAR
STARTCHAR 1F04
ENCODING 7940
SWIDTH 576 0
DWIDTH 8 0
BBX 6 10 1 0
BITMAP
68
30
00
74
8C
8C
84
8C
8C
74
ENDCHAR
STARTCHAR 1F05
ENCODING 7941
SWIDTH 576 0
DWIDTH 8 0
BBX 6 10 1 0
BITMAP
68
50
00
74
8C
8C
84
8C
8C
74
ENDCHAR
STARTCHAR 1F06
ENCODING 7942
SWIDTH 576 0
DWIDTH 8 0
BBX 6 12 1 0
BITMAP
C8
B0
20
20
00
74
8C
8C
84
8C
8C
74
ENDCHAR
STARTCHAR 1F07
ENCODING 7943
SWIDTH 576 0
DWIDTH 8 0
BBX 6 12 1 0
BITMAP
C8
B0
20
20
00
74
8C
8C
84
8C
8C
74
ENDCHAR
STARTCHAR 1F08
ENCODING 7944
SWIDTH 648 0
DWIDTH 9 0
BBX 9 10 0 0
BITMAP
4C00
5C00
1400
1200
2200
2300
7F00
4100
4180
C080
ENDCHAR
STARTCHAR 1F09
ENCODING 7945
SWIDTH 648 0
DWIDTH 9 0
BBX 9 10 0 0
BITMAP
4C00
5C00
1400
1200
2200
2300
7F00
4100
4180
C080
ENDCHAR
STARTCHAR 1F0A
ENCODING 7946
SWIDTH 792 0
DWIDTH 11 0
BBX 11 10 0 0
BITMAP
F300
5700
0500
0480
0880
08C0
1FC0
1040
1060
3020
ENDCHAR
STARTCHAR 1F0B
ENCODING 7947
SWIDTH 792 0
DWIDTH 11 0
BBX 11 10 0 0
BITMAP
F300
9700
0500
0480
0880
08C0
1FC0
1040
1060
3020
ENDCHAR
STARTCHAR 1F0C
ENCODING 7948
SWIDTH 792 0
DWIDTH 11 0
BBX 11 10 0 0
BITMAP
D300
6700
0500
0480
0880
08C0
1FC0
1040
1060
3020
ENDCHAR
STARTCHAR 1F0D
ENCODING 7949
SWIDTH 792 0
DWIDTH 11 0
BBX 11 10 0 0
BITMAP
D300
A700
0500
0480
0880
08C0
1FC0
1040
1060
3020
ENDCHAR
STARTCHAR 1F0E
ENCODING 7950
SWIDTH 792 0
DWIDTH 11 0
BBX 10 12 1 0
BITMAP
C800
B000
2600
2E00
0A00
0900
1100
1180
3F80
2080
20C0
6040
ENDCHAR
STARTCHAR 1F0F
ENCODING 7951
SWIDTH 792 0
DWIDTH 11 0
BBX 10 12 1 0
BITMAP
C800
B000
2600
2E00
0A00
0900
1100
1180
3F80
2080
20C0
6040
ENDCHAR
STARTCHAR 1F10
ENCODING 7952
SWIDTH 432 0
DWIDTH 6 0
BBX 5 10 1 0
BITMAP
20
20
00
F0
80
80
60
80
88
F0
ENDCHAR
STARTCHAR 1F11
ENCODING 7953
SWIDTH 432 0
DWIDTH 6 0
BBX 5 10 1 0
BITMAP
20
20
00
F0
80
80
60
80
88
F0
ENDCHAR
ENDFONT
